<mxfile host="app.diagrams.net" modified="2020-08-24T08:17:39.269Z" agent="5.0 (Windows NT 10.0; Win64; x64) AppleWebKit/537.36 (KHTML, like Gecko) Chrome/71.0.3578.80 Safari/537.36" etag="tZOz7M7uHUN4ntWPcbSH" version="13.6.4" type="github">
  <diagram id="1Sy0_TXh9xAlmua2igls" name="Page-1">
    <mxGraphModel dx="1673" dy="840" grid="1" gridSize="10" guides="1" tooltips="1" connect="1" arrows="1" fold="1" page="1" pageScale="1" pageWidth="827" pageHeight="1169" math="0" shadow="0">
      <root>
        <mxCell id="0" />
        <mxCell id="1" parent="0" />
        <mxCell id="8hqIu6tpNmQfpGZRK0oC-1" value="" style="edgeStyle=entityRelationEdgeStyle;endArrow=ERzeroToMany;startArrow=ERone;endFill=1;startFill=0;" parent="1" source="8hqIu6tpNmQfpGZRK0oC-246" target="8hqIu6tpNmQfpGZRK0oC-197" edge="1">
          <mxGeometry width="100" height="100" relative="1" as="geometry">
            <mxPoint x="260" y="1510" as="sourcePoint" />
            <mxPoint x="360" y="1410" as="targetPoint" />
          </mxGeometry>
        </mxCell>
        <mxCell id="8hqIu6tpNmQfpGZRK0oC-2" value="" style="edgeStyle=entityRelationEdgeStyle;endArrow=ERzeroToMany;startArrow=ERone;endFill=1;startFill=0;" parent="1" source="8hqIu6tpNmQfpGZRK0oC-194" target="8hqIu6tpNmQfpGZRK0oC-280" edge="1">
          <mxGeometry width="100" height="100" relative="1" as="geometry">
            <mxPoint x="450" y="970" as="sourcePoint" />
            <mxPoint x="510" y="995" as="targetPoint" />
          </mxGeometry>
        </mxCell>
        <mxCell id="8hqIu6tpNmQfpGZRK0oC-3" value="" style="edgeStyle=entityRelationEdgeStyle;fontSize=12;html=1;endArrow=ERoneToMany;startArrow=ERzeroToOne;" parent="1" source="8hqIu6tpNmQfpGZRK0oC-277" target="8hqIu6tpNmQfpGZRK0oC-122" edge="1">
          <mxGeometry width="100" height="100" relative="1" as="geometry">
            <mxPoint x="420" y="1420" as="sourcePoint" />
            <mxPoint x="520" y="1320" as="targetPoint" />
          </mxGeometry>
        </mxCell>
        <mxCell id="8hqIu6tpNmQfpGZRK0oC-4" value="" style="edgeStyle=entityRelationEdgeStyle;fontSize=12;html=1;endArrow=ERoneToMany;startArrow=ERzeroToOne;entryX=0;entryY=0.5;entryDx=0;entryDy=0;" parent="1" source="8hqIu6tpNmQfpGZRK0oC-277" target="8hqIu6tpNmQfpGZRK0oC-9" edge="1">
          <mxGeometry width="100" height="100" relative="1" as="geometry">
            <mxPoint x="200" y="1710" as="sourcePoint" />
            <mxPoint x="300" y="1610" as="targetPoint" />
          </mxGeometry>
        </mxCell>
        <mxCell id="8hqIu6tpNmQfpGZRK0oC-56" value="EWR_EXP_GROUP_QTIME&#xa;(EPM_SRC_STATISTICS_SFQT/EPM_SRC_STATISTICS_MFQT)" style="shape=table;startSize=30;container=1;collapsible=1;childLayout=tableLayout;fixedRows=1;rowLines=0;fontStyle=1;align=center;resizeLast=1;" parent="1" vertex="1" treatAsSingle="0">
          <mxGeometry x="1640" y="130" width="430" height="400" as="geometry">
            <mxRectangle x="1600" y="-410" width="390" height="30" as="alternateBounds" />
          </mxGeometry>
        </mxCell>
        <mxCell id="8hqIu6tpNmQfpGZRK0oC-57" value="" style="shape=partialRectangle;collapsible=0;dropTarget=0;pointerEvents=0;fillColor=none;top=0;left=0;bottom=1;right=0;points=[[0,0.5],[1,0.5]];portConstraint=eastwest;" parent="8hqIu6tpNmQfpGZRK0oC-56" vertex="1" treatAsSingle="0">
          <mxGeometry y="30" width="430" height="30" as="geometry" />
        </mxCell>
        <mxCell id="8hqIu6tpNmQfpGZRK0oC-58" value="PK" style="shape=partialRectangle;connectable=0;fillColor=none;top=0;left=0;bottom=0;right=0;fontStyle=1;overflow=hidden;" parent="8hqIu6tpNmQfpGZRK0oC-57" vertex="1">
          <mxGeometry width="30" height="30" as="geometry" />
        </mxCell>
        <mxCell id="8hqIu6tpNmQfpGZRK0oC-59" value="id String NOT NULL" style="shape=partialRectangle;connectable=0;fillColor=none;top=0;left=0;bottom=0;right=0;align=left;spacingLeft=6;fontStyle=5;overflow=hidden;" parent="8hqIu6tpNmQfpGZRK0oC-57" vertex="1">
          <mxGeometry x="30" width="400" height="30" as="geometry" />
        </mxCell>
        <mxCell id="8hqIu6tpNmQfpGZRK0oC-60" value="" style="shape=partialRectangle;collapsible=0;dropTarget=0;pointerEvents=0;fillColor=none;top=0;left=0;bottom=0;right=0;points=[[0,0.5],[1,0.5]];portConstraint=eastwest;" parent="8hqIu6tpNmQfpGZRK0oC-56" vertex="1" treatAsSingle="0">
          <mxGeometry y="60" width="430" height="30" as="geometry" />
        </mxCell>
        <mxCell id="8hqIu6tpNmQfpGZRK0oC-61" value="" style="shape=partialRectangle;connectable=0;fillColor=none;top=0;left=0;bottom=0;right=0;editable=1;overflow=hidden;" parent="8hqIu6tpNmQfpGZRK0oC-60" vertex="1">
          <mxGeometry width="30" height="30" as="geometry" />
        </mxCell>
        <mxCell id="8hqIu6tpNmQfpGZRK0oC-62" value="ewr_exp_wafer_group_id String NOT NULL" style="shape=partialRectangle;connectable=0;fillColor=none;top=0;left=0;bottom=0;right=0;align=left;spacingLeft=6;overflow=hidden;" parent="8hqIu6tpNmQfpGZRK0oC-60" vertex="1">
          <mxGeometry x="30" width="400" height="30" as="geometry" />
        </mxCell>
        <mxCell id="8hqIu6tpNmQfpGZRK0oC-63" value="" style="shape=partialRectangle;collapsible=0;dropTarget=0;pointerEvents=0;fillColor=none;top=0;left=0;bottom=0;right=0;points=[[0,0.5],[1,0.5]];portConstraint=eastwest;" parent="8hqIu6tpNmQfpGZRK0oC-56" vertex="1" treatAsSingle="0">
          <mxGeometry y="90" width="430" height="30" as="geometry" />
        </mxCell>
        <mxCell id="8hqIu6tpNmQfpGZRK0oC-64" value="" style="shape=partialRectangle;connectable=0;fillColor=none;top=0;left=0;bottom=0;right=0;editable=1;overflow=hidden;" parent="8hqIu6tpNmQfpGZRK0oC-63" vertex="1">
          <mxGeometry width="30" height="30" as="geometry" />
        </mxCell>
        <mxCell id="8hqIu6tpNmQfpGZRK0oC-65" value="case_no String NOT NULL" style="shape=partialRectangle;connectable=0;fillColor=none;top=0;left=0;bottom=0;right=0;align=left;spacingLeft=6;overflow=hidden;" parent="8hqIu6tpNmQfpGZRK0oC-63" vertex="1">
          <mxGeometry x="30" width="400" height="30" as="geometry" />
        </mxCell>
        <mxCell id="8hqIu6tpNmQfpGZRK0oC-66" value="" style="shape=partialRectangle;collapsible=0;dropTarget=0;pointerEvents=0;fillColor=none;top=0;left=0;bottom=0;right=0;points=[[0,0.5],[1,0.5]];portConstraint=eastwest;" parent="8hqIu6tpNmQfpGZRK0oC-56" vertex="1" treatAsSingle="0">
          <mxGeometry y="120" width="430" height="30" as="geometry" />
        </mxCell>
        <mxCell id="8hqIu6tpNmQfpGZRK0oC-67" value="" style="shape=partialRectangle;connectable=0;fillColor=none;top=0;left=0;bottom=0;right=0;editable=1;overflow=hidden;" parent="8hqIu6tpNmQfpGZRK0oC-66" vertex="1">
          <mxGeometry width="30" height="30" as="geometry" />
        </mxCell>
        <mxCell id="8hqIu6tpNmQfpGZRK0oC-68" value="qtime_name String NOT NULL" style="shape=partialRectangle;connectable=0;fillColor=none;top=0;left=0;bottom=0;right=0;align=left;spacingLeft=6;overflow=hidden;" parent="8hqIu6tpNmQfpGZRK0oC-66" vertex="1">
          <mxGeometry x="30" width="400" height="30" as="geometry" />
        </mxCell>
        <mxCell id="8hqIu6tpNmQfpGZRK0oC-69" style="shape=partialRectangle;collapsible=0;dropTarget=0;pointerEvents=0;fillColor=none;top=0;left=0;bottom=0;right=0;points=[[0,0.5],[1,0.5]];portConstraint=eastwest;" parent="8hqIu6tpNmQfpGZRK0oC-56" vertex="1" treatAsSingle="0">
          <mxGeometry y="150" width="430" height="30" as="geometry" />
        </mxCell>
        <mxCell id="8hqIu6tpNmQfpGZRK0oC-70" style="shape=partialRectangle;connectable=0;fillColor=none;top=0;left=0;bottom=0;right=0;editable=1;overflow=hidden;" parent="8hqIu6tpNmQfpGZRK0oC-69" vertex="1">
          <mxGeometry width="30" height="30" as="geometry" />
        </mxCell>
        <mxCell id="8hqIu6tpNmQfpGZRK0oC-71" value="plan_id String" style="shape=partialRectangle;connectable=0;fillColor=none;top=0;left=0;bottom=0;right=0;align=left;spacingLeft=6;overflow=hidden;" parent="8hqIu6tpNmQfpGZRK0oC-69" vertex="1">
          <mxGeometry x="30" width="400" height="30" as="geometry" />
        </mxCell>
        <mxCell id="8hqIu6tpNmQfpGZRK0oC-72" style="shape=partialRectangle;collapsible=0;dropTarget=0;pointerEvents=0;fillColor=none;top=0;left=0;bottom=0;right=0;points=[[0,0.5],[1,0.5]];portConstraint=eastwest;" parent="8hqIu6tpNmQfpGZRK0oC-56" vertex="1" treatAsSingle="0">
          <mxGeometry y="180" width="430" height="30" as="geometry" />
        </mxCell>
        <mxCell id="8hqIu6tpNmQfpGZRK0oC-73" style="shape=partialRectangle;connectable=0;fillColor=none;top=0;left=0;bottom=0;right=0;editable=1;overflow=hidden;" parent="8hqIu6tpNmQfpGZRK0oC-72" vertex="1">
          <mxGeometry width="30" height="30" as="geometry" />
        </mxCell>
        <mxCell id="8hqIu6tpNmQfpGZRK0oC-74" value="start_step_seq String NOT NULL" style="shape=partialRectangle;connectable=0;fillColor=none;top=0;left=0;bottom=0;right=0;align=left;spacingLeft=6;overflow=hidden;" parent="8hqIu6tpNmQfpGZRK0oC-72" vertex="1">
          <mxGeometry x="30" width="400" height="30" as="geometry" />
        </mxCell>
        <mxCell id="8hqIu6tpNmQfpGZRK0oC-75" style="shape=partialRectangle;collapsible=0;dropTarget=0;pointerEvents=0;fillColor=none;top=0;left=0;bottom=0;right=0;points=[[0,0.5],[1,0.5]];portConstraint=eastwest;" parent="8hqIu6tpNmQfpGZRK0oC-56" vertex="1" treatAsSingle="0">
          <mxGeometry y="210" width="430" height="30" as="geometry" />
        </mxCell>
        <mxCell id="8hqIu6tpNmQfpGZRK0oC-76" style="shape=partialRectangle;connectable=0;fillColor=none;top=0;left=0;bottom=0;right=0;editable=1;overflow=hidden;" parent="8hqIu6tpNmQfpGZRK0oC-75" vertex="1">
          <mxGeometry width="30" height="30" as="geometry" />
        </mxCell>
        <mxCell id="8hqIu6tpNmQfpGZRK0oC-77" value="end_step_seq String NOT NULL" style="shape=partialRectangle;connectable=0;fillColor=none;top=0;left=0;bottom=0;right=0;align=left;spacingLeft=6;overflow=hidden;" parent="8hqIu6tpNmQfpGZRK0oC-75" vertex="1">
          <mxGeometry x="30" width="400" height="30" as="geometry" />
        </mxCell>
        <mxCell id="8hqIu6tpNmQfpGZRK0oC-78" style="shape=partialRectangle;collapsible=0;dropTarget=0;pointerEvents=0;fillColor=none;top=0;left=0;bottom=0;right=0;points=[[0,0.5],[1,0.5]];portConstraint=eastwest;" parent="8hqIu6tpNmQfpGZRK0oC-56" vertex="1" treatAsSingle="0">
          <mxGeometry y="240" width="430" height="30" as="geometry" />
        </mxCell>
        <mxCell id="8hqIu6tpNmQfpGZRK0oC-79" style="shape=partialRectangle;connectable=0;fillColor=none;top=0;left=0;bottom=0;right=0;editable=1;overflow=hidden;" parent="8hqIu6tpNmQfpGZRK0oC-78" vertex="1">
          <mxGeometry width="30" height="30" as="geometry" />
        </mxCell>
        <mxCell id="8hqIu6tpNmQfpGZRK0oC-80" value="interval_time String NOT NULL" style="shape=partialRectangle;connectable=0;fillColor=none;top=0;left=0;bottom=0;right=0;align=left;spacingLeft=6;overflow=hidden;" parent="8hqIu6tpNmQfpGZRK0oC-78" vertex="1">
          <mxGeometry x="30" width="400" height="30" as="geometry" />
        </mxCell>
        <mxCell id="8hqIu6tpNmQfpGZRK0oC-81" style="shape=partialRectangle;collapsible=0;dropTarget=0;pointerEvents=0;fillColor=none;top=0;left=0;bottom=0;right=0;points=[[0,0.5],[1,0.5]];portConstraint=eastwest;" parent="8hqIu6tpNmQfpGZRK0oC-56" vertex="1" treatAsSingle="0">
          <mxGeometry y="270" width="430" height="30" as="geometry" />
        </mxCell>
        <mxCell id="8hqIu6tpNmQfpGZRK0oC-82" style="shape=partialRectangle;connectable=0;fillColor=none;top=0;left=0;bottom=0;right=0;editable=1;overflow=hidden;" parent="8hqIu6tpNmQfpGZRK0oC-81" vertex="1">
          <mxGeometry width="30" height="30" as="geometry" />
        </mxCell>
        <mxCell id="8hqIu6tpNmQfpGZRK0oC-83" value="control_type String NOT NULL" style="shape=partialRectangle;connectable=0;fillColor=none;top=0;left=0;bottom=0;right=0;align=left;spacingLeft=6;overflow=hidden;" parent="8hqIu6tpNmQfpGZRK0oC-81" vertex="1">
          <mxGeometry x="30" width="400" height="30" as="geometry" />
        </mxCell>
        <mxCell id="8hqIu6tpNmQfpGZRK0oC-84" style="shape=partialRectangle;collapsible=0;dropTarget=0;pointerEvents=0;fillColor=none;top=0;left=0;bottom=0;right=0;points=[[0,0.5],[1,0.5]];portConstraint=eastwest;" parent="8hqIu6tpNmQfpGZRK0oC-56" vertex="1" treatAsSingle="0">
          <mxGeometry y="300" width="430" height="30" as="geometry" />
        </mxCell>
        <mxCell id="8hqIu6tpNmQfpGZRK0oC-85" style="shape=partialRectangle;connectable=0;fillColor=none;top=0;left=0;bottom=0;right=0;editable=1;overflow=hidden;" parent="8hqIu6tpNmQfpGZRK0oC-84" vertex="1">
          <mxGeometry width="30" height="30" as="geometry" />
        </mxCell>
        <mxCell id="8hqIu6tpNmQfpGZRK0oC-86" value="expire_action String NOT NULL" style="shape=partialRectangle;connectable=0;fillColor=none;top=0;left=0;bottom=0;right=0;align=left;spacingLeft=6;overflow=hidden;" parent="8hqIu6tpNmQfpGZRK0oC-84" vertex="1">
          <mxGeometry x="30" width="400" height="30" as="geometry" />
        </mxCell>
        <mxCell id="8hqIu6tpNmQfpGZRK0oC-87" style="shape=partialRectangle;collapsible=0;dropTarget=0;pointerEvents=0;fillColor=none;top=0;left=0;bottom=0;right=0;points=[[0,0.5],[1,0.5]];portConstraint=eastwest;" parent="8hqIu6tpNmQfpGZRK0oC-56" vertex="1" treatAsSingle="0">
          <mxGeometry y="330" width="430" height="30" as="geometry" />
        </mxCell>
        <mxCell id="8hqIu6tpNmQfpGZRK0oC-88" style="shape=partialRectangle;connectable=0;fillColor=none;top=0;left=0;bottom=0;right=0;editable=1;overflow=hidden;" parent="8hqIu6tpNmQfpGZRK0oC-87" vertex="1">
          <mxGeometry width="30" height="30" as="geometry" />
        </mxCell>
        <mxCell id="8hqIu6tpNmQfpGZRK0oC-89" value="mf_flag String NOT NULL" style="shape=partialRectangle;connectable=0;fillColor=none;top=0;left=0;bottom=0;right=0;align=left;spacingLeft=6;overflow=hidden;" parent="8hqIu6tpNmQfpGZRK0oC-87" vertex="1">
          <mxGeometry x="30" width="400" height="30" as="geometry" />
        </mxCell>
        <mxCell id="8hqIu6tpNmQfpGZRK0oC-90" style="shape=partialRectangle;collapsible=0;dropTarget=0;pointerEvents=0;fillColor=none;top=0;left=0;bottom=0;right=0;points=[[0,0.5],[1,0.5]];portConstraint=eastwest;" parent="8hqIu6tpNmQfpGZRK0oC-56" vertex="1" treatAsSingle="0">
          <mxGeometry y="360" width="430" height="30" as="geometry" />
        </mxCell>
        <mxCell id="8hqIu6tpNmQfpGZRK0oC-91" style="shape=partialRectangle;connectable=0;fillColor=none;top=0;left=0;bottom=0;right=0;editable=1;overflow=hidden;" parent="8hqIu6tpNmQfpGZRK0oC-90" vertex="1">
          <mxGeometry width="30" height="30" as="geometry" />
        </mxCell>
        <mxCell id="8hqIu6tpNmQfpGZRK0oC-92" style="shape=partialRectangle;connectable=0;fillColor=none;top=0;left=0;bottom=0;right=0;align=left;spacingLeft=6;overflow=hidden;" parent="8hqIu6tpNmQfpGZRK0oC-90" vertex="1">
          <mxGeometry x="30" width="400" height="30" as="geometry" />
        </mxCell>
        <mxCell id="d4iNR7_XQfnhpuLEzn-K-1" value="CHECK_MESSAGE" style="shape=table;startSize=30;container=1;collapsible=1;childLayout=tableLayout;fixedRows=1;rowLines=0;fontStyle=1;align=center;resizeLast=1;" parent="1" vertex="1" treatAsSingle="0">
          <mxGeometry x="1640" y="560" width="260" height="190" as="geometry">
            <mxRectangle x="1640" y="560" width="140" height="30" as="alternateBounds" />
          </mxGeometry>
        </mxCell>
        <mxCell id="d4iNR7_XQfnhpuLEzn-K-2" value="" style="shape=partialRectangle;collapsible=0;dropTarget=0;pointerEvents=0;fillColor=none;top=0;left=0;bottom=1;right=0;points=[[0,0.5],[1,0.5]];portConstraint=eastwest;" parent="d4iNR7_XQfnhpuLEzn-K-1" vertex="1" treatAsSingle="0">
          <mxGeometry y="30" width="260" height="30" as="geometry" />
        </mxCell>
        <mxCell id="d4iNR7_XQfnhpuLEzn-K-3" value="PK" style="shape=partialRectangle;connectable=0;fillColor=none;top=0;left=0;bottom=0;right=0;fontStyle=1;overflow=hidden;" parent="d4iNR7_XQfnhpuLEzn-K-2" vertex="1">
          <mxGeometry width="30" height="30" as="geometry" />
        </mxCell>
        <mxCell id="d4iNR7_XQfnhpuLEzn-K-4" value="id String NOT NULL" style="shape=partialRectangle;connectable=0;fillColor=none;top=0;left=0;bottom=0;right=0;align=left;spacingLeft=6;fontStyle=5;overflow=hidden;" parent="d4iNR7_XQfnhpuLEzn-K-2" vertex="1">
          <mxGeometry x="30" width="230" height="30" as="geometry" />
        </mxCell>
        <mxCell id="d4iNR7_XQfnhpuLEzn-K-5" value="" style="shape=partialRectangle;collapsible=0;dropTarget=0;pointerEvents=0;fillColor=none;top=0;left=0;bottom=0;right=0;points=[[0,0.5],[1,0.5]];portConstraint=eastwest;" parent="d4iNR7_XQfnhpuLEzn-K-1" vertex="1" treatAsSingle="0">
          <mxGeometry y="60" width="260" height="30" as="geometry" />
        </mxCell>
        <mxCell id="d4iNR7_XQfnhpuLEzn-K-6" value="" style="shape=partialRectangle;connectable=0;fillColor=none;top=0;left=0;bottom=0;right=0;editable=1;overflow=hidden;" parent="d4iNR7_XQfnhpuLEzn-K-5" vertex="1">
          <mxGeometry width="30" height="30" as="geometry" />
        </mxCell>
        <mxCell id="d4iNR7_XQfnhpuLEzn-K-7" value="BIZ_ID String NOT NULL" style="shape=partialRectangle;connectable=0;fillColor=none;top=0;left=0;bottom=0;right=0;align=left;spacingLeft=6;overflow=hidden;" parent="d4iNR7_XQfnhpuLEzn-K-5" vertex="1">
          <mxGeometry x="30" width="230" height="30" as="geometry" />
        </mxCell>
        <mxCell id="d4iNR7_XQfnhpuLEzn-K-8" value="" style="shape=partialRectangle;collapsible=0;dropTarget=0;pointerEvents=0;fillColor=none;top=0;left=0;bottom=0;right=0;points=[[0,0.5],[1,0.5]];portConstraint=eastwest;" parent="d4iNR7_XQfnhpuLEzn-K-1" vertex="1" treatAsSingle="0">
          <mxGeometry y="90" width="260" height="30" as="geometry" />
        </mxCell>
        <mxCell id="d4iNR7_XQfnhpuLEzn-K-9" value="" style="shape=partialRectangle;connectable=0;fillColor=none;top=0;left=0;bottom=0;right=0;editable=1;overflow=hidden;" parent="d4iNR7_XQfnhpuLEzn-K-8" vertex="1">
          <mxGeometry width="30" height="30" as="geometry" />
        </mxCell>
        <mxCell id="d4iNR7_XQfnhpuLEzn-K-10" value="CASE_NO String NOT NULL" style="shape=partialRectangle;connectable=0;fillColor=none;top=0;left=0;bottom=0;right=0;align=left;spacingLeft=6;overflow=hidden;" parent="d4iNR7_XQfnhpuLEzn-K-8" vertex="1">
          <mxGeometry x="30" width="230" height="30" as="geometry" />
        </mxCell>
        <mxCell id="d4iNR7_XQfnhpuLEzn-K-11" value="" style="shape=partialRectangle;collapsible=0;dropTarget=0;pointerEvents=0;fillColor=none;top=0;left=0;bottom=0;right=0;points=[[0,0.5],[1,0.5]];portConstraint=eastwest;" parent="d4iNR7_XQfnhpuLEzn-K-1" vertex="1" treatAsSingle="0">
          <mxGeometry y="120" width="260" height="30" as="geometry" />
        </mxCell>
        <mxCell id="d4iNR7_XQfnhpuLEzn-K-12" value="" style="shape=partialRectangle;connectable=0;fillColor=none;top=0;left=0;bottom=0;right=0;editable=1;overflow=hidden;" parent="d4iNR7_XQfnhpuLEzn-K-11" vertex="1">
          <mxGeometry width="30" height="30" as="geometry" />
        </mxCell>
        <mxCell id="d4iNR7_XQfnhpuLEzn-K-13" value="MSG String" style="shape=partialRectangle;connectable=0;fillColor=none;top=0;left=0;bottom=0;right=0;align=left;spacingLeft=6;overflow=hidden;" parent="d4iNR7_XQfnhpuLEzn-K-11" vertex="1">
          <mxGeometry x="30" width="230" height="30" as="geometry" />
        </mxCell>
        <mxCell id="d4iNR7_XQfnhpuLEzn-K-15" style="shape=partialRectangle;collapsible=0;dropTarget=0;pointerEvents=0;fillColor=none;top=0;left=0;bottom=0;right=0;points=[[0,0.5],[1,0.5]];portConstraint=eastwest;" parent="d4iNR7_XQfnhpuLEzn-K-1" vertex="1" treatAsSingle="0">
          <mxGeometry y="150" width="260" height="30" as="geometry" />
        </mxCell>
        <mxCell id="d4iNR7_XQfnhpuLEzn-K-16" style="shape=partialRectangle;connectable=0;fillColor=none;top=0;left=0;bottom=0;right=0;editable=1;overflow=hidden;" parent="d4iNR7_XQfnhpuLEzn-K-15" vertex="1">
          <mxGeometry width="30" height="30" as="geometry" />
        </mxCell>
        <mxCell id="d4iNR7_XQfnhpuLEzn-K-17" value="BATCH_CODE String NOT NULL" style="shape=partialRectangle;connectable=0;fillColor=none;top=0;left=0;bottom=0;right=0;align=left;spacingLeft=6;overflow=hidden;" parent="d4iNR7_XQfnhpuLEzn-K-15" vertex="1">
          <mxGeometry x="30" width="230" height="30" as="geometry" />
        </mxCell>
        <mxCell id="8hqIu6tpNmQfpGZRK0oC-54" value="" style="edgeStyle=entityRelationEdgeStyle;fontSize=12;html=1;endArrow=ERoneToMany;startArrow=ERzeroToOne;exitX=1;exitY=0.5;exitDx=0;exitDy=0;entryX=0;entryY=0.5;entryDx=0;entryDy=0;" parent="1" source="8hqIu6tpNmQfpGZRK0oC-6" target="8hqIu6tpNmQfpGZRK0oC-339" edge="1">
          <mxGeometry width="100" height="100" relative="1" as="geometry">
            <mxPoint x="1620" y="1540" as="sourcePoint" />
            <mxPoint x="1720" y="1440" as="targetPoint" />
          </mxGeometry>
        </mxCell>
        <mxCell id="8hqIu6tpNmQfpGZRK0oC-55" value="" style="edgeStyle=entityRelationEdgeStyle;fontSize=12;html=1;endArrow=ERoneToMany;startArrow=ERzeroToOne;exitX=1;exitY=0.5;exitDx=0;exitDy=0;" parent="1" source="8hqIu6tpNmQfpGZRK0oC-277" target="8hqIu6tpNmQfpGZRK0oC-99" edge="1">
          <mxGeometry width="100" height="100" relative="1" as="geometry">
            <mxPoint x="1350" y="920" as="sourcePoint" />
            <mxPoint x="1450" y="820" as="targetPoint" />
          </mxGeometry>
        </mxCell>
        <mxCell id="8hqIu6tpNmQfpGZRK0oC-93" value="" style="edgeStyle=entityRelationEdgeStyle;fontSize=12;html=1;endArrow=ERoneToMany;startArrow=ERzeroToOne;exitX=1;exitY=0.5;exitDx=0;exitDy=0;entryX=0;entryY=0.5;entryDx=0;entryDy=0;" parent="1" source="8hqIu6tpNmQfpGZRK0oC-96" target="8hqIu6tpNmQfpGZRK0oC-60" edge="1">
          <mxGeometry width="100" height="100" relative="1" as="geometry">
            <mxPoint x="1640" y="650" as="sourcePoint" />
            <mxPoint x="1740" y="550" as="targetPoint" />
          </mxGeometry>
        </mxCell>
        <mxCell id="8hqIu6tpNmQfpGZRK0oC-94" value="" style="edgeStyle=entityRelationEdgeStyle;fontSize=12;html=1;endArrow=ERoneToMany;startArrow=ERzeroToOne;exitX=1;exitY=0.5;exitDx=0;exitDy=0;entryX=0;entryY=0.5;entryDx=0;entryDy=0;" parent="1" source="8hqIu6tpNmQfpGZRK0oC-6" target="8hqIu6tpNmQfpGZRK0oC-373" edge="1">
          <mxGeometry width="100" height="100" relative="1" as="geometry">
            <mxPoint x="1700" y="1600" as="sourcePoint" />
            <mxPoint x="1800" y="1500" as="targetPoint" />
          </mxGeometry>
        </mxCell>
        <mxCell id="8hqIu6tpNmQfpGZRK0oC-95" value="EWR_EXP_WAFER_GROUP&#xa;(EPM_SRC_STATISTICS)" style="shape=table;startSize=30;container=1;collapsible=1;childLayout=tableLayout;fixedRows=1;rowLines=0;fontStyle=1;align=center;resizeLast=1;" parent="1" vertex="1" treatAsSingle="0">
          <mxGeometry x="1200" y="40" width="300" height="250" as="geometry">
            <mxRectangle x="1170" y="-290" width="190" height="30" as="alternateBounds" />
          </mxGeometry>
        </mxCell>
        <mxCell id="8hqIu6tpNmQfpGZRK0oC-96" value="" style="shape=partialRectangle;collapsible=0;dropTarget=0;pointerEvents=0;fillColor=none;top=0;left=0;bottom=1;right=0;points=[[0,0.5],[1,0.5]];portConstraint=eastwest;" parent="8hqIu6tpNmQfpGZRK0oC-95" vertex="1" treatAsSingle="0">
          <mxGeometry y="30" width="300" height="30" as="geometry" />
        </mxCell>
        <mxCell id="8hqIu6tpNmQfpGZRK0oC-97" value="PK" style="shape=partialRectangle;connectable=0;fillColor=none;top=0;left=0;bottom=0;right=0;fontStyle=1;overflow=hidden;" parent="8hqIu6tpNmQfpGZRK0oC-96" vertex="1">
          <mxGeometry width="30" height="30" as="geometry" />
        </mxCell>
        <mxCell id="8hqIu6tpNmQfpGZRK0oC-98" value="id String NOT NULL" style="shape=partialRectangle;connectable=0;fillColor=none;top=0;left=0;bottom=0;right=0;align=left;spacingLeft=6;fontStyle=5;overflow=hidden;" parent="8hqIu6tpNmQfpGZRK0oC-96" vertex="1">
          <mxGeometry x="30" width="270" height="30" as="geometry" />
        </mxCell>
        <mxCell id="8hqIu6tpNmQfpGZRK0oC-99" value="" style="shape=partialRectangle;collapsible=0;dropTarget=0;pointerEvents=0;fillColor=none;top=0;left=0;bottom=0;right=0;points=[[0,0.5],[1,0.5]];portConstraint=eastwest;" parent="8hqIu6tpNmQfpGZRK0oC-95" vertex="1" treatAsSingle="0">
          <mxGeometry y="60" width="300" height="30" as="geometry" />
        </mxCell>
        <mxCell id="8hqIu6tpNmQfpGZRK0oC-100" value="" style="shape=partialRectangle;connectable=0;fillColor=none;top=0;left=0;bottom=0;right=0;editable=1;overflow=hidden;" parent="8hqIu6tpNmQfpGZRK0oC-99" vertex="1">
          <mxGeometry width="30" height="30" as="geometry" />
        </mxCell>
        <mxCell id="8hqIu6tpNmQfpGZRK0oC-101" value="ewr_exp_step_range_id String" style="shape=partialRectangle;connectable=0;fillColor=none;top=0;left=0;bottom=0;right=0;align=left;spacingLeft=6;overflow=hidden;" parent="8hqIu6tpNmQfpGZRK0oC-99" vertex="1">
          <mxGeometry x="30" width="270" height="30" as="geometry" />
        </mxCell>
        <mxCell id="8hqIu6tpNmQfpGZRK0oC-102" value="" style="shape=partialRectangle;collapsible=0;dropTarget=0;pointerEvents=0;fillColor=none;top=0;left=0;bottom=0;right=0;points=[[0,0.5],[1,0.5]];portConstraint=eastwest;" parent="8hqIu6tpNmQfpGZRK0oC-95" vertex="1" treatAsSingle="0">
          <mxGeometry y="90" width="300" height="30" as="geometry" />
        </mxCell>
        <mxCell id="8hqIu6tpNmQfpGZRK0oC-103" value="" style="shape=partialRectangle;connectable=0;fillColor=none;top=0;left=0;bottom=0;right=0;editable=1;overflow=hidden;" parent="8hqIu6tpNmQfpGZRK0oC-102" vertex="1">
          <mxGeometry width="30" height="30" as="geometry" />
        </mxCell>
        <mxCell id="8hqIu6tpNmQfpGZRK0oC-104" value="wafer_group String NOT NULL" style="shape=partialRectangle;connectable=0;fillColor=none;top=0;left=0;bottom=0;right=0;align=left;spacingLeft=6;overflow=hidden;" parent="8hqIu6tpNmQfpGZRK0oC-102" vertex="1">
          <mxGeometry x="30" width="270" height="30" as="geometry" />
        </mxCell>
        <mxCell id="8hqIu6tpNmQfpGZRK0oC-105" value="" style="shape=partialRectangle;collapsible=0;dropTarget=0;pointerEvents=0;fillColor=none;top=0;left=0;bottom=0;right=0;points=[[0,0.5],[1,0.5]];portConstraint=eastwest;" parent="8hqIu6tpNmQfpGZRK0oC-95" vertex="1" treatAsSingle="0">
          <mxGeometry y="120" width="300" height="30" as="geometry" />
        </mxCell>
        <mxCell id="8hqIu6tpNmQfpGZRK0oC-106" value="" style="shape=partialRectangle;connectable=0;fillColor=none;top=0;left=0;bottom=0;right=0;editable=1;overflow=hidden;" parent="8hqIu6tpNmQfpGZRK0oC-105" vertex="1">
          <mxGeometry width="30" height="30" as="geometry" />
        </mxCell>
        <mxCell id="8hqIu6tpNmQfpGZRK0oC-107" value="step_seq_count int" style="shape=partialRectangle;connectable=0;fillColor=none;top=0;left=0;bottom=0;right=0;align=left;spacingLeft=6;overflow=hidden;" parent="8hqIu6tpNmQfpGZRK0oC-105" vertex="1">
          <mxGeometry x="30" width="270" height="30" as="geometry" />
        </mxCell>
        <mxCell id="8hqIu6tpNmQfpGZRK0oC-108" style="shape=partialRectangle;collapsible=0;dropTarget=0;pointerEvents=0;fillColor=none;top=0;left=0;bottom=0;right=0;points=[[0,0.5],[1,0.5]];portConstraint=eastwest;" parent="8hqIu6tpNmQfpGZRK0oC-95" vertex="1" treatAsSingle="0">
          <mxGeometry y="150" width="300" height="30" as="geometry" />
        </mxCell>
        <mxCell id="8hqIu6tpNmQfpGZRK0oC-109" style="shape=partialRectangle;connectable=0;fillColor=none;top=0;left=0;bottom=0;right=0;editable=1;overflow=hidden;" parent="8hqIu6tpNmQfpGZRK0oC-108" vertex="1">
          <mxGeometry width="30" height="30" as="geometry" />
        </mxCell>
        <mxCell id="8hqIu6tpNmQfpGZRK0oC-110" value="step_seq_str String NOT NULL" style="shape=partialRectangle;connectable=0;fillColor=none;top=0;left=0;bottom=0;right=0;align=left;spacingLeft=6;overflow=hidden;" parent="8hqIu6tpNmQfpGZRK0oC-108" vertex="1">
          <mxGeometry x="30" width="270" height="30" as="geometry" />
        </mxCell>
        <mxCell id="8hqIu6tpNmQfpGZRK0oC-111" style="shape=partialRectangle;collapsible=0;dropTarget=0;pointerEvents=0;fillColor=none;top=0;left=0;bottom=0;right=0;points=[[0,0.5],[1,0.5]];portConstraint=eastwest;" parent="8hqIu6tpNmQfpGZRK0oC-95" vertex="1" treatAsSingle="0">
          <mxGeometry y="180" width="300" height="30" as="geometry" />
        </mxCell>
        <mxCell id="8hqIu6tpNmQfpGZRK0oC-112" style="shape=partialRectangle;connectable=0;fillColor=none;top=0;left=0;bottom=0;right=0;editable=1;overflow=hidden;" parent="8hqIu6tpNmQfpGZRK0oC-111" vertex="1">
          <mxGeometry width="30" height="30" as="geometry" />
        </mxCell>
        <mxCell id="8hqIu6tpNmQfpGZRK0oC-113" value="qtime_count int" style="shape=partialRectangle;connectable=0;fillColor=none;top=0;left=0;bottom=0;right=0;align=left;spacingLeft=6;overflow=hidden;" parent="8hqIu6tpNmQfpGZRK0oC-111" vertex="1">
          <mxGeometry x="30" width="270" height="30" as="geometry" />
        </mxCell>
        <mxCell id="8hqIu6tpNmQfpGZRK0oC-114" style="shape=partialRectangle;collapsible=0;dropTarget=0;pointerEvents=0;fillColor=none;top=0;left=0;bottom=0;right=0;points=[[0,0.5],[1,0.5]];portConstraint=eastwest;" parent="8hqIu6tpNmQfpGZRK0oC-95" vertex="1" treatAsSingle="0">
          <mxGeometry y="210" width="300" height="30" as="geometry" />
        </mxCell>
        <mxCell id="8hqIu6tpNmQfpGZRK0oC-115" style="shape=partialRectangle;connectable=0;fillColor=none;top=0;left=0;bottom=0;right=0;editable=1;overflow=hidden;" parent="8hqIu6tpNmQfpGZRK0oC-114" vertex="1">
          <mxGeometry width="30" height="30" as="geometry" />
        </mxCell>
        <mxCell id="8hqIu6tpNmQfpGZRK0oC-116" value="case_no String NOT NULL" style="shape=partialRectangle;connectable=0;fillColor=none;top=0;left=0;bottom=0;right=0;align=left;spacingLeft=6;overflow=hidden;" parent="8hqIu6tpNmQfpGZRK0oC-114" vertex="1">
          <mxGeometry x="30" width="270" height="30" as="geometry" />
        </mxCell>
        <mxCell id="8hqIu6tpNmQfpGZRK0oC-117" value="" style="edgeStyle=entityRelationEdgeStyle;fontSize=12;html=1;endArrow=ERoneToMany;startArrow=ERzeroToOne;exitX=1;exitY=0.5;exitDx=0;exitDy=0;entryX=0;entryY=0.5;entryDx=0;entryDy=0;" parent="1" source="8hqIu6tpNmQfpGZRK0oC-6" target="8hqIu6tpNmQfpGZRK0oC-407" edge="1">
          <mxGeometry width="100" height="100" relative="1" as="geometry">
            <mxPoint x="1550" y="1590" as="sourcePoint" />
            <mxPoint x="1650" y="1490" as="targetPoint" />
          </mxGeometry>
        </mxCell>
        <mxCell id="8hqIu6tpNmQfpGZRK0oC-118" value="EWR_ASSIGN_LOT&#xa;(EPM_SRC_REQUEST)" style="shape=table;startSize=30;container=1;collapsible=1;childLayout=tableLayout;fixedRows=1;rowLines=0;fontStyle=1;align=center;resizeLast=1;" parent="1" vertex="1" treatAsSingle="0">
          <mxGeometry x="1202.5" y="330" width="295" height="990.0000000000005" as="geometry">
            <mxRectangle x="395" y="530" width="140" height="30" as="alternateBounds" />
          </mxGeometry>
        </mxCell>
        <mxCell id="8hqIu6tpNmQfpGZRK0oC-119" value="" style="shape=partialRectangle;collapsible=0;dropTarget=0;pointerEvents=0;fillColor=none;top=0;left=0;bottom=1;right=0;points=[[0,0.5],[1,0.5]];portConstraint=eastwest;" parent="8hqIu6tpNmQfpGZRK0oC-118" vertex="1" treatAsSingle="0">
          <mxGeometry y="30" width="295" height="30" as="geometry" />
        </mxCell>
        <mxCell id="8hqIu6tpNmQfpGZRK0oC-120" value="PK" style="shape=partialRectangle;connectable=0;fillColor=none;top=0;left=0;bottom=0;right=0;fontStyle=1;overflow=hidden;" parent="8hqIu6tpNmQfpGZRK0oC-119" vertex="1">
          <mxGeometry width="30" height="30" as="geometry" />
        </mxCell>
        <mxCell id="8hqIu6tpNmQfpGZRK0oC-121" value="id String NOT NULL" style="shape=partialRectangle;connectable=0;fillColor=none;top=0;left=0;bottom=0;right=0;align=left;spacingLeft=6;fontStyle=5;overflow=hidden;" parent="8hqIu6tpNmQfpGZRK0oC-119" vertex="1">
          <mxGeometry x="30" width="265" height="30" as="geometry" />
        </mxCell>
        <mxCell id="8hqIu6tpNmQfpGZRK0oC-122" value="" style="shape=partialRectangle;collapsible=0;dropTarget=0;pointerEvents=0;fillColor=none;top=0;left=0;bottom=0;right=0;points=[[0,0.5],[1,0.5]];portConstraint=eastwest;" parent="8hqIu6tpNmQfpGZRK0oC-118" vertex="1" treatAsSingle="0">
          <mxGeometry y="60" width="295" height="30" as="geometry" />
        </mxCell>
        <mxCell id="8hqIu6tpNmQfpGZRK0oC-123" value="" style="shape=partialRectangle;connectable=0;fillColor=none;top=0;left=0;bottom=0;right=0;editable=1;overflow=hidden;" parent="8hqIu6tpNmQfpGZRK0oC-122" vertex="1">
          <mxGeometry width="30" height="30" as="geometry" />
        </mxCell>
        <mxCell id="8hqIu6tpNmQfpGZRK0oC-124" value="ewr_exp_step_range_id String NOT NULL" style="shape=partialRectangle;connectable=0;fillColor=none;top=0;left=0;bottom=0;right=0;align=left;spacingLeft=6;overflow=hidden;" parent="8hqIu6tpNmQfpGZRK0oC-122" vertex="1">
          <mxGeometry x="30" width="265" height="30" as="geometry" />
        </mxCell>
        <mxCell id="8hqIu6tpNmQfpGZRK0oC-125" value="" style="shape=partialRectangle;collapsible=0;dropTarget=0;pointerEvents=0;fillColor=none;top=0;left=0;bottom=0;right=0;points=[[0,0.5],[1,0.5]];portConstraint=eastwest;" parent="8hqIu6tpNmQfpGZRK0oC-118" vertex="1" treatAsSingle="0">
          <mxGeometry y="90" width="295" height="30" as="geometry" />
        </mxCell>
        <mxCell id="8hqIu6tpNmQfpGZRK0oC-126" value="" style="shape=partialRectangle;connectable=0;fillColor=none;top=0;left=0;bottom=0;right=0;editable=1;overflow=hidden;" parent="8hqIu6tpNmQfpGZRK0oC-125" vertex="1">
          <mxGeometry width="30" height="30" as="geometry" />
        </mxCell>
        <mxCell id="8hqIu6tpNmQfpGZRK0oC-127" value="lot_id String NOT NULL" style="shape=partialRectangle;connectable=0;fillColor=none;top=0;left=0;bottom=0;right=0;align=left;spacingLeft=6;overflow=hidden;" parent="8hqIu6tpNmQfpGZRK0oC-125" vertex="1">
          <mxGeometry x="30" width="265" height="30" as="geometry" />
        </mxCell>
        <mxCell id="8hqIu6tpNmQfpGZRK0oC-128" value="" style="shape=partialRectangle;collapsible=0;dropTarget=0;pointerEvents=0;fillColor=none;top=0;left=0;bottom=0;right=0;points=[[0,0.5],[1,0.5]];portConstraint=eastwest;" parent="8hqIu6tpNmQfpGZRK0oC-118" vertex="1" treatAsSingle="0">
          <mxGeometry y="120" width="295" height="30" as="geometry" />
        </mxCell>
        <mxCell id="8hqIu6tpNmQfpGZRK0oC-129" value="" style="shape=partialRectangle;connectable=0;fillColor=none;top=0;left=0;bottom=0;right=0;editable=1;overflow=hidden;" parent="8hqIu6tpNmQfpGZRK0oC-128" vertex="1">
          <mxGeometry width="30" height="30" as="geometry" />
        </mxCell>
        <mxCell id="8hqIu6tpNmQfpGZRK0oC-130" value="qty int NOT NULL" style="shape=partialRectangle;connectable=0;fillColor=none;top=0;left=0;bottom=0;right=0;align=left;spacingLeft=6;overflow=hidden;" parent="8hqIu6tpNmQfpGZRK0oC-128" vertex="1">
          <mxGeometry x="30" width="265" height="30" as="geometry" />
        </mxCell>
        <mxCell id="8hqIu6tpNmQfpGZRK0oC-131" style="shape=partialRectangle;collapsible=0;dropTarget=0;pointerEvents=0;fillColor=none;top=0;left=0;bottom=0;right=0;points=[[0,0.5],[1,0.5]];portConstraint=eastwest;" parent="8hqIu6tpNmQfpGZRK0oC-118" vertex="1" treatAsSingle="0">
          <mxGeometry y="150" width="295" height="30" as="geometry" />
        </mxCell>
        <mxCell id="8hqIu6tpNmQfpGZRK0oC-132" style="shape=partialRectangle;connectable=0;fillColor=none;top=0;left=0;bottom=0;right=0;editable=1;overflow=hidden;" parent="8hqIu6tpNmQfpGZRK0oC-131" vertex="1">
          <mxGeometry width="30" height="30" as="geometry" />
        </mxCell>
        <mxCell id="8hqIu6tpNmQfpGZRK0oC-133" value="wafer_id String NULL" style="shape=partialRectangle;connectable=0;fillColor=none;top=0;left=0;bottom=0;right=0;align=left;spacingLeft=6;overflow=hidden;" parent="8hqIu6tpNmQfpGZRK0oC-131" vertex="1">
          <mxGeometry x="30" width="265" height="30" as="geometry" />
        </mxCell>
        <mxCell id="8hqIu6tpNmQfpGZRK0oC-134" style="shape=partialRectangle;collapsible=0;dropTarget=0;pointerEvents=0;fillColor=none;top=0;left=0;bottom=0;right=0;points=[[0,0.5],[1,0.5]];portConstraint=eastwest;" parent="8hqIu6tpNmQfpGZRK0oC-118" vertex="1" treatAsSingle="0">
          <mxGeometry y="180" width="295" height="30" as="geometry" />
        </mxCell>
        <mxCell id="8hqIu6tpNmQfpGZRK0oC-135" style="shape=partialRectangle;connectable=0;fillColor=none;top=0;left=0;bottom=0;right=0;editable=1;overflow=hidden;" parent="8hqIu6tpNmQfpGZRK0oC-134" vertex="1">
          <mxGeometry width="30" height="30" as="geometry" />
        </mxCell>
        <mxCell id="8hqIu6tpNmQfpGZRK0oC-136" value="case_no String NOT NULL" style="shape=partialRectangle;connectable=0;fillColor=none;top=0;left=0;bottom=0;right=0;align=left;spacingLeft=6;overflow=hidden;" parent="8hqIu6tpNmQfpGZRK0oC-134" vertex="1">
          <mxGeometry x="30" width="265" height="30" as="geometry" />
        </mxCell>
        <mxCell id="8hqIu6tpNmQfpGZRK0oC-137" style="shape=partialRectangle;collapsible=0;dropTarget=0;pointerEvents=0;fillColor=none;top=0;left=0;bottom=0;right=0;points=[[0,0.5],[1,0.5]];portConstraint=eastwest;" parent="8hqIu6tpNmQfpGZRK0oC-118" vertex="1" treatAsSingle="0">
          <mxGeometry y="210" width="295" height="30" as="geometry" />
        </mxCell>
        <mxCell id="8hqIu6tpNmQfpGZRK0oC-138" style="shape=partialRectangle;connectable=0;fillColor=none;top=0;left=0;bottom=0;right=0;editable=1;overflow=hidden;" parent="8hqIu6tpNmQfpGZRK0oC-137" vertex="1">
          <mxGeometry width="30" height="30" as="geometry" />
        </mxCell>
        <mxCell id="8hqIu6tpNmQfpGZRK0oC-139" value="exp_code String NOT NULL" style="shape=partialRectangle;connectable=0;fillColor=none;top=0;left=0;bottom=0;right=0;align=left;spacingLeft=6;overflow=hidden;" parent="8hqIu6tpNmQfpGZRK0oC-137" vertex="1">
          <mxGeometry x="30" width="265" height="30" as="geometry" />
        </mxCell>
        <mxCell id="8hqIu6tpNmQfpGZRK0oC-140" style="shape=partialRectangle;collapsible=0;dropTarget=0;pointerEvents=0;fillColor=none;top=0;left=0;bottom=0;right=0;points=[[0,0.5],[1,0.5]];portConstraint=eastwest;" parent="8hqIu6tpNmQfpGZRK0oC-118" vertex="1" treatAsSingle="0">
          <mxGeometry y="240" width="295" height="30" as="geometry" />
        </mxCell>
        <mxCell id="8hqIu6tpNmQfpGZRK0oC-141" style="shape=partialRectangle;connectable=0;fillColor=none;top=0;left=0;bottom=0;right=0;editable=1;overflow=hidden;" parent="8hqIu6tpNmQfpGZRK0oC-140" vertex="1">
          <mxGeometry width="30" height="30" as="geometry" />
        </mxCell>
        <mxCell id="8hqIu6tpNmQfpGZRK0oC-142" value="HOLD_STEP_NO String NOT NULL" style="shape=partialRectangle;connectable=0;fillColor=none;top=0;left=0;bottom=0;right=0;align=left;spacingLeft=6;overflow=hidden;" parent="8hqIu6tpNmQfpGZRK0oC-140" vertex="1">
          <mxGeometry x="30" width="265" height="30" as="geometry" />
        </mxCell>
        <mxCell id="8hqIu6tpNmQfpGZRK0oC-143" style="shape=partialRectangle;collapsible=0;dropTarget=0;pointerEvents=0;fillColor=none;top=0;left=0;bottom=0;right=0;points=[[0,0.5],[1,0.5]];portConstraint=eastwest;" parent="8hqIu6tpNmQfpGZRK0oC-118" vertex="1" treatAsSingle="0">
          <mxGeometry y="270" width="295" height="30" as="geometry" />
        </mxCell>
        <mxCell id="8hqIu6tpNmQfpGZRK0oC-144" style="shape=partialRectangle;connectable=0;fillColor=none;top=0;left=0;bottom=0;right=0;editable=1;overflow=hidden;" parent="8hqIu6tpNmQfpGZRK0oC-143" vertex="1">
          <mxGeometry width="30" height="30" as="geometry" />
        </mxCell>
        <mxCell id="8hqIu6tpNmQfpGZRK0oC-145" value="STEPID String NOT NULL" style="shape=partialRectangle;connectable=0;fillColor=none;top=0;left=0;bottom=0;right=0;align=left;spacingLeft=6;overflow=hidden;" parent="8hqIu6tpNmQfpGZRK0oC-143" vertex="1">
          <mxGeometry x="30" width="265" height="30" as="geometry" />
        </mxCell>
        <mxCell id="8hqIu6tpNmQfpGZRK0oC-146" style="shape=partialRectangle;collapsible=0;dropTarget=0;pointerEvents=0;fillColor=none;top=0;left=0;bottom=0;right=0;points=[[0,0.5],[1,0.5]];portConstraint=eastwest;" parent="8hqIu6tpNmQfpGZRK0oC-118" vertex="1" treatAsSingle="0">
          <mxGeometry y="300" width="295" height="30" as="geometry" />
        </mxCell>
        <mxCell id="8hqIu6tpNmQfpGZRK0oC-147" style="shape=partialRectangle;connectable=0;fillColor=none;top=0;left=0;bottom=0;right=0;editable=1;overflow=hidden;" parent="8hqIu6tpNmQfpGZRK0oC-146" vertex="1">
          <mxGeometry width="30" height="30" as="geometry" />
        </mxCell>
        <mxCell id="8hqIu6tpNmQfpGZRK0oC-148" value="STAGEID String NOT NULL" style="shape=partialRectangle;connectable=0;fillColor=none;top=0;left=0;bottom=0;right=0;align=left;spacingLeft=6;overflow=hidden;" parent="8hqIu6tpNmQfpGZRK0oC-146" vertex="1">
          <mxGeometry x="30" width="265" height="30" as="geometry" />
        </mxCell>
        <mxCell id="8hqIu6tpNmQfpGZRK0oC-149" style="shape=partialRectangle;collapsible=0;dropTarget=0;pointerEvents=0;fillColor=none;top=0;left=0;bottom=0;right=0;points=[[0,0.5],[1,0.5]];portConstraint=eastwest;" parent="8hqIu6tpNmQfpGZRK0oC-118" vertex="1" treatAsSingle="0">
          <mxGeometry y="330" width="295" height="30" as="geometry" />
        </mxCell>
        <mxCell id="8hqIu6tpNmQfpGZRK0oC-150" style="shape=partialRectangle;connectable=0;fillColor=none;top=0;left=0;bottom=0;right=0;editable=1;overflow=hidden;" parent="8hqIu6tpNmQfpGZRK0oC-149" vertex="1">
          <mxGeometry width="30" height="30" as="geometry" />
        </mxCell>
        <mxCell id="8hqIu6tpNmQfpGZRK0oC-151" value="PRODUCTID String NOT  NULL" style="shape=partialRectangle;connectable=0;fillColor=none;top=0;left=0;bottom=0;right=0;align=left;spacingLeft=6;overflow=hidden;" parent="8hqIu6tpNmQfpGZRK0oC-149" vertex="1">
          <mxGeometry x="30" width="265" height="30" as="geometry" />
        </mxCell>
        <mxCell id="8hqIu6tpNmQfpGZRK0oC-152" style="shape=partialRectangle;collapsible=0;dropTarget=0;pointerEvents=0;fillColor=none;top=0;left=0;bottom=0;right=0;points=[[0,0.5],[1,0.5]];portConstraint=eastwest;" parent="8hqIu6tpNmQfpGZRK0oC-118" vertex="1" treatAsSingle="0">
          <mxGeometry y="360" width="295" height="30" as="geometry" />
        </mxCell>
        <mxCell id="8hqIu6tpNmQfpGZRK0oC-153" style="shape=partialRectangle;connectable=0;fillColor=none;top=0;left=0;bottom=0;right=0;editable=1;overflow=hidden;" parent="8hqIu6tpNmQfpGZRK0oC-152" vertex="1">
          <mxGeometry width="30" height="30" as="geometry" />
        </mxCell>
        <mxCell id="8hqIu6tpNmQfpGZRK0oC-154" value="PROCESS_LOCATION String NOT NULL" style="shape=partialRectangle;connectable=0;fillColor=none;top=0;left=0;bottom=0;right=0;align=left;spacingLeft=6;overflow=hidden;" parent="8hqIu6tpNmQfpGZRK0oC-152" vertex="1">
          <mxGeometry x="30" width="265" height="30" as="geometry" />
        </mxCell>
        <mxCell id="8hqIu6tpNmQfpGZRK0oC-155" style="shape=partialRectangle;collapsible=0;dropTarget=0;pointerEvents=0;fillColor=none;top=0;left=0;bottom=0;right=0;points=[[0,0.5],[1,0.5]];portConstraint=eastwest;" parent="8hqIu6tpNmQfpGZRK0oC-118" vertex="1" treatAsSingle="0">
          <mxGeometry y="390" width="295" height="30" as="geometry" />
        </mxCell>
        <mxCell id="8hqIu6tpNmQfpGZRK0oC-156" style="shape=partialRectangle;connectable=0;fillColor=none;top=0;left=0;bottom=0;right=0;editable=1;overflow=hidden;" parent="8hqIu6tpNmQfpGZRK0oC-155" vertex="1">
          <mxGeometry width="30" height="30" as="geometry" />
        </mxCell>
        <mxCell id="8hqIu6tpNmQfpGZRK0oC-157" value="STEP_NO String NOT NULL" style="shape=partialRectangle;connectable=0;fillColor=none;top=0;left=0;bottom=0;right=0;align=left;spacingLeft=6;overflow=hidden;" parent="8hqIu6tpNmQfpGZRK0oC-155" vertex="1">
          <mxGeometry x="30" width="265" height="30" as="geometry" />
        </mxCell>
        <mxCell id="8hqIu6tpNmQfpGZRK0oC-158" style="shape=partialRectangle;collapsible=0;dropTarget=0;pointerEvents=0;fillColor=none;top=0;left=0;bottom=0;right=0;points=[[0,0.5],[1,0.5]];portConstraint=eastwest;" parent="8hqIu6tpNmQfpGZRK0oC-118" vertex="1" treatAsSingle="0">
          <mxGeometry y="420" width="295" height="30" as="geometry" />
        </mxCell>
        <mxCell id="8hqIu6tpNmQfpGZRK0oC-159" style="shape=partialRectangle;connectable=0;fillColor=none;top=0;left=0;bottom=0;right=0;editable=1;overflow=hidden;" parent="8hqIu6tpNmQfpGZRK0oC-158" vertex="1">
          <mxGeometry width="30" height="30" as="geometry" />
        </mxCell>
        <mxCell id="8hqIu6tpNmQfpGZRK0oC-160" value="DESCRIPTION String" style="shape=partialRectangle;connectable=0;fillColor=none;top=0;left=0;bottom=0;right=0;align=left;spacingLeft=6;overflow=hidden;" parent="8hqIu6tpNmQfpGZRK0oC-158" vertex="1">
          <mxGeometry x="30" width="265" height="30" as="geometry" />
        </mxCell>
        <mxCell id="8hqIu6tpNmQfpGZRK0oC-161" style="shape=partialRectangle;collapsible=0;dropTarget=0;pointerEvents=0;fillColor=none;top=0;left=0;bottom=0;right=0;points=[[0,0.5],[1,0.5]];portConstraint=eastwest;" parent="8hqIu6tpNmQfpGZRK0oC-118" vertex="1" treatAsSingle="0">
          <mxGeometry y="450" width="295" height="30" as="geometry" />
        </mxCell>
        <mxCell id="8hqIu6tpNmQfpGZRK0oC-162" style="shape=partialRectangle;connectable=0;fillColor=none;top=0;left=0;bottom=0;right=0;editable=1;overflow=hidden;" parent="8hqIu6tpNmQfpGZRK0oC-161" vertex="1">
          <mxGeometry width="30" height="30" as="geometry" />
        </mxCell>
        <mxCell id="8hqIu6tpNmQfpGZRK0oC-163" value="END_STEP_DESC String" style="shape=partialRectangle;connectable=0;fillColor=none;top=0;left=0;bottom=0;right=0;align=left;spacingLeft=6;overflow=hidden;" parent="8hqIu6tpNmQfpGZRK0oC-161" vertex="1">
          <mxGeometry x="30" width="265" height="30" as="geometry" />
        </mxCell>
        <mxCell id="8hqIu6tpNmQfpGZRK0oC-164" style="shape=partialRectangle;collapsible=0;dropTarget=0;pointerEvents=0;fillColor=none;top=0;left=0;bottom=0;right=0;points=[[0,0.5],[1,0.5]];portConstraint=eastwest;" parent="8hqIu6tpNmQfpGZRK0oC-118" vertex="1" treatAsSingle="0">
          <mxGeometry y="480" width="295" height="30" as="geometry" />
        </mxCell>
        <mxCell id="8hqIu6tpNmQfpGZRK0oC-165" style="shape=partialRectangle;connectable=0;fillColor=none;top=0;left=0;bottom=0;right=0;editable=1;overflow=hidden;" parent="8hqIu6tpNmQfpGZRK0oC-164" vertex="1">
          <mxGeometry width="30" height="30" as="geometry" />
        </mxCell>
        <mxCell id="8hqIu6tpNmQfpGZRK0oC-166" value="END_STEPID String" style="shape=partialRectangle;connectable=0;fillColor=none;top=0;left=0;bottom=0;right=0;align=left;spacingLeft=6;overflow=hidden;" parent="8hqIu6tpNmQfpGZRK0oC-164" vertex="1">
          <mxGeometry x="30" width="265" height="30" as="geometry" />
        </mxCell>
        <mxCell id="8hqIu6tpNmQfpGZRK0oC-167" style="shape=partialRectangle;collapsible=0;dropTarget=0;pointerEvents=0;fillColor=none;top=0;left=0;bottom=0;right=0;points=[[0,0.5],[1,0.5]];portConstraint=eastwest;" parent="8hqIu6tpNmQfpGZRK0oC-118" vertex="1" treatAsSingle="0">
          <mxGeometry y="510" width="295" height="30" as="geometry" />
        </mxCell>
        <mxCell id="8hqIu6tpNmQfpGZRK0oC-168" style="shape=partialRectangle;connectable=0;fillColor=none;top=0;left=0;bottom=0;right=0;editable=1;overflow=hidden;" parent="8hqIu6tpNmQfpGZRK0oC-167" vertex="1">
          <mxGeometry width="30" height="30" as="geometry" />
        </mxCell>
        <mxCell id="8hqIu6tpNmQfpGZRK0oC-169" value="END_STAGEID String" style="shape=partialRectangle;connectable=0;fillColor=none;top=0;left=0;bottom=0;right=0;align=left;spacingLeft=6;overflow=hidden;" parent="8hqIu6tpNmQfpGZRK0oC-167" vertex="1">
          <mxGeometry x="30" width="265" height="30" as="geometry" />
        </mxCell>
        <mxCell id="8hqIu6tpNmQfpGZRK0oC-170" style="shape=partialRectangle;collapsible=0;dropTarget=0;pointerEvents=0;fillColor=none;top=0;left=0;bottom=0;right=0;points=[[0,0.5],[1,0.5]];portConstraint=eastwest;" parent="8hqIu6tpNmQfpGZRK0oC-118" vertex="1" treatAsSingle="0">
          <mxGeometry y="540" width="295" height="30" as="geometry" />
        </mxCell>
        <mxCell id="8hqIu6tpNmQfpGZRK0oC-171" style="shape=partialRectangle;connectable=0;fillColor=none;top=0;left=0;bottom=0;right=0;editable=1;overflow=hidden;" parent="8hqIu6tpNmQfpGZRK0oC-170" vertex="1">
          <mxGeometry width="30" height="30" as="geometry" />
        </mxCell>
        <mxCell id="8hqIu6tpNmQfpGZRK0oC-172" value="PIE_MGR String" style="shape=partialRectangle;connectable=0;fillColor=none;top=0;left=0;bottom=0;right=0;align=left;spacingLeft=6;overflow=hidden;" parent="8hqIu6tpNmQfpGZRK0oC-170" vertex="1">
          <mxGeometry x="30" width="265" height="30" as="geometry" />
        </mxCell>
        <mxCell id="8hqIu6tpNmQfpGZRK0oC-173" style="shape=partialRectangle;collapsible=0;dropTarget=0;pointerEvents=0;fillColor=none;top=0;left=0;bottom=0;right=0;points=[[0,0.5],[1,0.5]];portConstraint=eastwest;" parent="8hqIu6tpNmQfpGZRK0oC-118" vertex="1" treatAsSingle="0">
          <mxGeometry y="570" width="295" height="30" as="geometry" />
        </mxCell>
        <mxCell id="8hqIu6tpNmQfpGZRK0oC-174" style="shape=partialRectangle;connectable=0;fillColor=none;top=0;left=0;bottom=0;right=0;editable=1;overflow=hidden;" parent="8hqIu6tpNmQfpGZRK0oC-173" vertex="1">
          <mxGeometry width="30" height="30" as="geometry" />
        </mxCell>
        <mxCell id="8hqIu6tpNmQfpGZRK0oC-175" value="MFG_MGR String" style="shape=partialRectangle;connectable=0;fillColor=none;top=0;left=0;bottom=0;right=0;align=left;spacingLeft=6;overflow=hidden;" parent="8hqIu6tpNmQfpGZRK0oC-173" vertex="1">
          <mxGeometry x="30" width="265" height="30" as="geometry" />
        </mxCell>
        <mxCell id="8hqIu6tpNmQfpGZRK0oC-176" style="shape=partialRectangle;collapsible=0;dropTarget=0;pointerEvents=0;fillColor=none;top=0;left=0;bottom=0;right=0;points=[[0,0.5],[1,0.5]];portConstraint=eastwest;" parent="8hqIu6tpNmQfpGZRK0oC-118" vertex="1" treatAsSingle="0">
          <mxGeometry y="600" width="295" height="30" as="geometry" />
        </mxCell>
        <mxCell id="8hqIu6tpNmQfpGZRK0oC-177" style="shape=partialRectangle;connectable=0;fillColor=none;top=0;left=0;bottom=0;right=0;editable=1;overflow=hidden;" parent="8hqIu6tpNmQfpGZRK0oC-176" vertex="1">
          <mxGeometry width="30" height="30" as="geometry" />
        </mxCell>
        <mxCell id="8hqIu6tpNmQfpGZRK0oC-178" value="MES_REASON_CODE String" style="shape=partialRectangle;connectable=0;fillColor=none;top=0;left=0;bottom=0;right=0;align=left;spacingLeft=6;overflow=hidden;" parent="8hqIu6tpNmQfpGZRK0oC-176" vertex="1">
          <mxGeometry x="30" width="265" height="30" as="geometry" />
        </mxCell>
        <mxCell id="8hqIu6tpNmQfpGZRK0oC-179" style="shape=partialRectangle;collapsible=0;dropTarget=0;pointerEvents=0;fillColor=none;top=0;left=0;bottom=0;right=0;points=[[0,0.5],[1,0.5]];portConstraint=eastwest;" parent="8hqIu6tpNmQfpGZRK0oC-118" vertex="1" treatAsSingle="0">
          <mxGeometry y="630" width="295" height="30" as="geometry" />
        </mxCell>
        <mxCell id="8hqIu6tpNmQfpGZRK0oC-180" style="shape=partialRectangle;connectable=0;fillColor=none;top=0;left=0;bottom=0;right=0;editable=1;overflow=hidden;" parent="8hqIu6tpNmQfpGZRK0oC-179" vertex="1">
          <mxGeometry width="30" height="30" as="geometry" />
        </mxCell>
        <mxCell id="8hqIu6tpNmQfpGZRK0oC-181" value="DEPARTMENT String" style="shape=partialRectangle;connectable=0;fillColor=none;top=0;left=0;bottom=0;right=0;align=left;spacingLeft=6;overflow=hidden;" parent="8hqIu6tpNmQfpGZRK0oC-179" vertex="1">
          <mxGeometry x="30" width="265" height="30" as="geometry" />
        </mxCell>
        <mxCell id="8hqIu6tpNmQfpGZRK0oC-182" style="shape=partialRectangle;collapsible=0;dropTarget=0;pointerEvents=0;fillColor=none;top=0;left=0;bottom=0;right=0;points=[[0,0.5],[1,0.5]];portConstraint=eastwest;" parent="8hqIu6tpNmQfpGZRK0oC-118" vertex="1" treatAsSingle="0">
          <mxGeometry y="660" width="295" height="30" as="geometry" />
        </mxCell>
        <mxCell id="8hqIu6tpNmQfpGZRK0oC-183" style="shape=partialRectangle;connectable=0;fillColor=none;top=0;left=0;bottom=0;right=0;editable=1;overflow=hidden;" parent="8hqIu6tpNmQfpGZRK0oC-182" vertex="1">
          <mxGeometry width="30" height="30" as="geometry" />
        </mxCell>
        <mxCell id="8hqIu6tpNmQfpGZRK0oC-184" value="SECTION String" style="shape=partialRectangle;connectable=0;fillColor=none;top=0;left=0;bottom=0;right=0;align=left;spacingLeft=6;overflow=hidden;" parent="8hqIu6tpNmQfpGZRK0oC-182" vertex="1">
          <mxGeometry x="30" width="265" height="30" as="geometry" />
        </mxCell>
        <mxCell id="8hqIu6tpNmQfpGZRK0oC-185" style="shape=partialRectangle;collapsible=0;dropTarget=0;pointerEvents=0;fillColor=none;top=0;left=0;bottom=0;right=0;points=[[0,0.5],[1,0.5]];portConstraint=eastwest;" parent="8hqIu6tpNmQfpGZRK0oC-118" vertex="1" treatAsSingle="0">
          <mxGeometry y="690" width="295" height="30" as="geometry" />
        </mxCell>
        <mxCell id="8hqIu6tpNmQfpGZRK0oC-186" style="shape=partialRectangle;connectable=0;fillColor=none;top=0;left=0;bottom=0;right=0;editable=1;overflow=hidden;" parent="8hqIu6tpNmQfpGZRK0oC-185" vertex="1">
          <mxGeometry width="30" height="30" as="geometry" />
        </mxCell>
        <mxCell id="8hqIu6tpNmQfpGZRK0oC-187" value="MODULE String" style="shape=partialRectangle;connectable=0;fillColor=none;top=0;left=0;bottom=0;right=0;align=left;spacingLeft=6;overflow=hidden;" parent="8hqIu6tpNmQfpGZRK0oC-185" vertex="1">
          <mxGeometry x="30" width="265" height="30" as="geometry" />
        </mxCell>
        <mxCell id="8hqIu6tpNmQfpGZRK0oC-188" style="shape=partialRectangle;collapsible=0;dropTarget=0;pointerEvents=0;fillColor=none;top=0;left=0;bottom=0;right=0;points=[[0,0.5],[1,0.5]];portConstraint=eastwest;" parent="8hqIu6tpNmQfpGZRK0oC-118" vertex="1" treatAsSingle="0">
          <mxGeometry y="720" width="295" height="40" as="geometry" />
        </mxCell>
        <mxCell id="8hqIu6tpNmQfpGZRK0oC-189" style="shape=partialRectangle;connectable=0;fillColor=none;top=0;left=0;bottom=0;right=0;editable=1;overflow=hidden;" parent="8hqIu6tpNmQfpGZRK0oC-188" vertex="1">
          <mxGeometry width="30" height="40" as="geometry" />
        </mxCell>
        <mxCell id="8hqIu6tpNmQfpGZRK0oC-190" value="LotType String" style="shape=partialRectangle;connectable=0;fillColor=none;top=0;left=0;bottom=0;right=0;align=left;spacingLeft=6;overflow=hidden;" parent="8hqIu6tpNmQfpGZRK0oC-188" vertex="1">
          <mxGeometry x="30" width="265" height="40" as="geometry" />
        </mxCell>
        <mxCell id="HYympp35xAa7EPD4HPgj-1" style="shape=partialRectangle;collapsible=0;dropTarget=0;pointerEvents=0;fillColor=none;top=0;left=0;bottom=0;right=0;points=[[0,0.5],[1,0.5]];portConstraint=eastwest;" vertex="1" treatAsSingle="0" parent="8hqIu6tpNmQfpGZRK0oC-118">
          <mxGeometry y="760" width="295" height="40" as="geometry" />
        </mxCell>
        <mxCell id="HYympp35xAa7EPD4HPgj-2" style="shape=partialRectangle;connectable=0;fillColor=none;top=0;left=0;bottom=0;right=0;editable=1;overflow=hidden;" vertex="1" parent="HYympp35xAa7EPD4HPgj-1">
          <mxGeometry width="30" height="40" as="geometry" />
        </mxCell>
        <mxCell id="HYympp35xAa7EPD4HPgj-3" value="LotOwner String" style="shape=partialRectangle;connectable=0;fillColor=none;top=0;left=0;bottom=0;right=0;align=left;spacingLeft=6;overflow=hidden;" vertex="1" parent="HYympp35xAa7EPD4HPgj-1">
          <mxGeometry x="30" width="265" height="40" as="geometry" />
        </mxCell>
        <mxCell id="HYympp35xAa7EPD4HPgj-4" style="shape=partialRectangle;collapsible=0;dropTarget=0;pointerEvents=0;fillColor=none;top=0;left=0;bottom=0;right=0;points=[[0,0.5],[1,0.5]];portConstraint=eastwest;" vertex="1" treatAsSingle="0" parent="8hqIu6tpNmQfpGZRK0oC-118">
          <mxGeometry y="800" width="295" height="40" as="geometry" />
        </mxCell>
        <mxCell id="HYympp35xAa7EPD4HPgj-5" style="shape=partialRectangle;connectable=0;fillColor=none;top=0;left=0;bottom=0;right=0;editable=1;overflow=hidden;" vertex="1" parent="HYympp35xAa7EPD4HPgj-4">
          <mxGeometry width="30" height="40" as="geometry" />
        </mxCell>
        <mxCell id="HYympp35xAa7EPD4HPgj-6" value="Priority String" style="shape=partialRectangle;connectable=0;fillColor=none;top=0;left=0;bottom=0;right=0;align=left;spacingLeft=6;overflow=hidden;" vertex="1" parent="HYympp35xAa7EPD4HPgj-4">
          <mxGeometry x="30" width="265" height="40" as="geometry" />
        </mxCell>
        <mxCell id="HYympp35xAa7EPD4HPgj-7" style="shape=partialRectangle;collapsible=0;dropTarget=0;pointerEvents=0;fillColor=none;top=0;left=0;bottom=0;right=0;points=[[0,0.5],[1,0.5]];portConstraint=eastwest;" vertex="1" treatAsSingle="0" parent="8hqIu6tpNmQfpGZRK0oC-118">
          <mxGeometry y="840" width="295" height="40" as="geometry" />
        </mxCell>
        <mxCell id="HYympp35xAa7EPD4HPgj-8" style="shape=partialRectangle;connectable=0;fillColor=none;top=0;left=0;bottom=0;right=0;editable=1;overflow=hidden;" vertex="1" parent="HYympp35xAa7EPD4HPgj-7">
          <mxGeometry width="30" height="40" as="geometry" />
        </mxCell>
        <mxCell id="HYympp35xAa7EPD4HPgj-9" value="lotWaferInfo String" style="shape=partialRectangle;connectable=0;fillColor=none;top=0;left=0;bottom=0;right=0;align=left;spacingLeft=6;overflow=hidden;" vertex="1" parent="HYympp35xAa7EPD4HPgj-7">
          <mxGeometry x="30" width="265" height="40" as="geometry" />
        </mxCell>
        <mxCell id="HYympp35xAa7EPD4HPgj-10" style="shape=partialRectangle;collapsible=0;dropTarget=0;pointerEvents=0;fillColor=none;top=0;left=0;bottom=0;right=0;points=[[0,0.5],[1,0.5]];portConstraint=eastwest;" vertex="1" treatAsSingle="0" parent="8hqIu6tpNmQfpGZRK0oC-118">
          <mxGeometry y="880" width="295" height="40" as="geometry" />
        </mxCell>
        <mxCell id="HYympp35xAa7EPD4HPgj-11" style="shape=partialRectangle;connectable=0;fillColor=none;top=0;left=0;bottom=0;right=0;editable=1;overflow=hidden;" vertex="1" parent="HYympp35xAa7EPD4HPgj-10">
          <mxGeometry width="30" height="40" as="geometry" />
        </mxCell>
        <mxCell id="HYympp35xAa7EPD4HPgj-12" value="lotWafer String" style="shape=partialRectangle;connectable=0;fillColor=none;top=0;left=0;bottom=0;right=0;align=left;spacingLeft=6;overflow=hidden;" vertex="1" parent="HYympp35xAa7EPD4HPgj-10">
          <mxGeometry x="30" width="265" height="40" as="geometry" />
        </mxCell>
        <mxCell id="HYympp35xAa7EPD4HPgj-13" style="shape=partialRectangle;collapsible=0;dropTarget=0;pointerEvents=0;fillColor=none;top=0;left=0;bottom=0;right=0;points=[[0,0.5],[1,0.5]];portConstraint=eastwest;" vertex="1" treatAsSingle="0" parent="8hqIu6tpNmQfpGZRK0oC-118">
          <mxGeometry y="920" width="295" height="40" as="geometry" />
        </mxCell>
        <mxCell id="HYympp35xAa7EPD4HPgj-14" style="shape=partialRectangle;connectable=0;fillColor=none;top=0;left=0;bottom=0;right=0;editable=1;overflow=hidden;" vertex="1" parent="HYympp35xAa7EPD4HPgj-13">
          <mxGeometry width="30" height="40" as="geometry" />
        </mxCell>
        <mxCell id="HYympp35xAa7EPD4HPgj-15" value="lotWaferListInfo String" style="shape=partialRectangle;connectable=0;fillColor=none;top=0;left=0;bottom=0;right=0;align=left;spacingLeft=6;overflow=hidden;" vertex="1" parent="HYympp35xAa7EPD4HPgj-13">
          <mxGeometry x="30" width="265" height="40" as="geometry" />
        </mxCell>
        <mxCell id="8hqIu6tpNmQfpGZRK0oC-191" value="" style="edgeStyle=entityRelationEdgeStyle;fontSize=12;html=1;endArrow=ERoneToMany;startArrow=ERzeroToOne;exitX=1;exitY=0.5;exitDx=0;exitDy=0;" parent="1" source="8hqIu6tpNmQfpGZRK0oC-6" target="8hqIu6tpNmQfpGZRK0oC-441" edge="1">
          <mxGeometry width="100" height="100" relative="1" as="geometry">
            <mxPoint x="1550" y="1510" as="sourcePoint" />
            <mxPoint x="1650" y="1410" as="targetPoint" />
          </mxGeometry>
        </mxCell>
        <mxCell id="8hqIu6tpNmQfpGZRK0oC-192" value="" style="edgeStyle=entityRelationEdgeStyle;fontSize=12;html=1;endArrow=ERmandOne;startArrow=ERmandOne;exitX=1;exitY=0.5;exitDx=0;exitDy=0;entryX=0;entryY=0.5;entryDx=0;entryDy=0;" parent="1" source="8hqIu6tpNmQfpGZRK0oC-194" target="8hqIu6tpNmQfpGZRK0oC-308" edge="1">
          <mxGeometry width="100" height="100" relative="1" as="geometry">
            <mxPoint x="850" y="1190" as="sourcePoint" />
            <mxPoint x="950" y="1090" as="targetPoint" />
          </mxGeometry>
        </mxCell>
        <mxCell id="8hqIu6tpNmQfpGZRK0oC-193" value="EWR_EXPERIMENT" style="shape=table;startSize=30;container=1;collapsible=1;childLayout=tableLayout;fixedRows=1;rowLines=0;fontStyle=1;align=center;resizeLast=1;" parent="1" vertex="1" treatAsSingle="0">
          <mxGeometry x="370" y="910" width="280" height="590" as="geometry">
            <mxRectangle x="450" y="120" width="160" height="30" as="alternateBounds" />
          </mxGeometry>
        </mxCell>
        <mxCell id="8hqIu6tpNmQfpGZRK0oC-194" value="" style="shape=partialRectangle;collapsible=0;dropTarget=0;pointerEvents=0;fillColor=none;points=[[0,0.5],[1,0.5]];portConstraint=eastwest;top=0;left=0;right=0;bottom=1;" parent="8hqIu6tpNmQfpGZRK0oC-193" vertex="1" treatAsSingle="0">
          <mxGeometry y="30" width="280" height="30" as="geometry" />
        </mxCell>
        <mxCell id="8hqIu6tpNmQfpGZRK0oC-195" value="PK" style="shape=partialRectangle;overflow=hidden;connectable=0;fillColor=none;top=0;left=0;bottom=0;right=0;fontStyle=1;" parent="8hqIu6tpNmQfpGZRK0oC-194" vertex="1">
          <mxGeometry width="30" height="30" as="geometry" />
        </mxCell>
        <mxCell id="8hqIu6tpNmQfpGZRK0oC-196" value="id String NOT NULL " style="shape=partialRectangle;overflow=hidden;connectable=0;fillColor=none;top=0;left=0;bottom=0;right=0;align=left;spacingLeft=6;fontStyle=5;" parent="8hqIu6tpNmQfpGZRK0oC-194" vertex="1">
          <mxGeometry x="30" width="250" height="30" as="geometry" />
        </mxCell>
        <mxCell id="8hqIu6tpNmQfpGZRK0oC-197" value="" style="shape=partialRectangle;collapsible=0;dropTarget=0;pointerEvents=0;fillColor=none;points=[[0,0.5],[1,0.5]];portConstraint=eastwest;top=0;left=0;right=0;bottom=0;" parent="8hqIu6tpNmQfpGZRK0oC-193" vertex="1" treatAsSingle="0">
          <mxGeometry y="60" width="280" height="30" as="geometry" />
        </mxCell>
        <mxCell id="8hqIu6tpNmQfpGZRK0oC-198" value="" style="shape=partialRectangle;overflow=hidden;connectable=0;fillColor=none;top=0;left=0;bottom=0;right=0;" parent="8hqIu6tpNmQfpGZRK0oC-197" vertex="1">
          <mxGeometry width="30" height="30" as="geometry" />
        </mxCell>
        <mxCell id="8hqIu6tpNmQfpGZRK0oC-199" value="ewr_id String NOT NULL" style="shape=partialRectangle;overflow=hidden;connectable=0;fillColor=none;top=0;left=0;bottom=0;right=0;align=left;spacingLeft=6;" parent="8hqIu6tpNmQfpGZRK0oC-197" vertex="1">
          <mxGeometry x="30" width="250" height="30" as="geometry" />
        </mxCell>
        <mxCell id="8hqIu6tpNmQfpGZRK0oC-200" value="" style="shape=partialRectangle;collapsible=0;dropTarget=0;pointerEvents=0;fillColor=none;points=[[0,0.5],[1,0.5]];portConstraint=eastwest;top=0;left=0;right=0;bottom=0;" parent="8hqIu6tpNmQfpGZRK0oC-193" vertex="1" treatAsSingle="0">
          <mxGeometry y="90" width="280" height="30" as="geometry" />
        </mxCell>
        <mxCell id="8hqIu6tpNmQfpGZRK0oC-201" value="" style="shape=partialRectangle;overflow=hidden;connectable=0;fillColor=none;top=0;left=0;bottom=0;right=0;" parent="8hqIu6tpNmQfpGZRK0oC-200" vertex="1">
          <mxGeometry width="30" height="30" as="geometry" />
        </mxCell>
        <mxCell id="8hqIu6tpNmQfpGZRK0oC-202" value="last_execution_time date DEFAULT NULL" style="shape=partialRectangle;overflow=hidden;connectable=0;fillColor=none;top=0;left=0;bottom=0;right=0;align=left;spacingLeft=6;" parent="8hqIu6tpNmQfpGZRK0oC-200" vertex="1">
          <mxGeometry x="30" width="250" height="30" as="geometry" />
        </mxCell>
        <mxCell id="8hqIu6tpNmQfpGZRK0oC-203" style="shape=partialRectangle;collapsible=0;dropTarget=0;pointerEvents=0;fillColor=none;points=[[0,0.5],[1,0.5]];portConstraint=eastwest;top=0;left=0;right=0;bottom=0;" parent="8hqIu6tpNmQfpGZRK0oC-193" vertex="1" treatAsSingle="0">
          <mxGeometry y="120" width="280" height="30" as="geometry" />
        </mxCell>
        <mxCell id="8hqIu6tpNmQfpGZRK0oC-204" style="shape=partialRectangle;overflow=hidden;connectable=0;fillColor=none;top=0;left=0;bottom=0;right=0;" parent="8hqIu6tpNmQfpGZRK0oC-203" vertex="1">
          <mxGeometry width="30" height="30" as="geometry" />
        </mxCell>
        <mxCell id="8hqIu6tpNmQfpGZRK0oC-205" value="first_execution_time date DEFAULT NULL" style="shape=partialRectangle;overflow=hidden;connectable=0;fillColor=none;top=0;left=0;bottom=0;right=0;align=left;spacingLeft=6;" parent="8hqIu6tpNmQfpGZRK0oC-203" vertex="1">
          <mxGeometry x="30" width="250" height="30" as="geometry" />
        </mxCell>
        <mxCell id="8hqIu6tpNmQfpGZRK0oC-206" style="shape=partialRectangle;collapsible=0;dropTarget=0;pointerEvents=0;fillColor=none;points=[[0,0.5],[1,0.5]];portConstraint=eastwest;top=0;left=0;right=0;bottom=0;" parent="8hqIu6tpNmQfpGZRK0oC-193" vertex="1" treatAsSingle="0">
          <mxGeometry y="150" width="280" height="30" as="geometry" />
        </mxCell>
        <mxCell id="8hqIu6tpNmQfpGZRK0oC-207" style="shape=partialRectangle;overflow=hidden;connectable=0;fillColor=none;top=0;left=0;bottom=0;right=0;" parent="8hqIu6tpNmQfpGZRK0oC-206" vertex="1">
          <mxGeometry width="30" height="30" as="geometry" />
        </mxCell>
        <mxCell id="8hqIu6tpNmQfpGZRK0oC-208" value="lot_count int DEFAULT 0" style="shape=partialRectangle;overflow=hidden;connectable=0;fillColor=none;top=0;left=0;bottom=0;right=0;align=left;spacingLeft=6;" parent="8hqIu6tpNmQfpGZRK0oC-206" vertex="1">
          <mxGeometry x="30" width="250" height="30" as="geometry" />
        </mxCell>
        <mxCell id="8hqIu6tpNmQfpGZRK0oC-209" style="shape=partialRectangle;collapsible=0;dropTarget=0;pointerEvents=0;fillColor=none;points=[[0,0.5],[1,0.5]];portConstraint=eastwest;top=0;left=0;right=0;bottom=0;" parent="8hqIu6tpNmQfpGZRK0oC-193" vertex="1" treatAsSingle="0">
          <mxGeometry y="180" width="280" height="30" as="geometry" />
        </mxCell>
        <mxCell id="8hqIu6tpNmQfpGZRK0oC-210" style="shape=partialRectangle;overflow=hidden;connectable=0;fillColor=none;top=0;left=0;bottom=0;right=0;" parent="8hqIu6tpNmQfpGZRK0oC-209" vertex="1">
          <mxGeometry width="30" height="30" as="geometry" />
        </mxCell>
        <mxCell id="8hqIu6tpNmQfpGZRK0oC-211" value="use_mes_flow int DEFAULT 0" style="shape=partialRectangle;overflow=hidden;connectable=0;fillColor=none;top=0;left=0;bottom=0;right=0;align=left;spacingLeft=6;" parent="8hqIu6tpNmQfpGZRK0oC-209" vertex="1">
          <mxGeometry x="30" width="250" height="30" as="geometry" />
        </mxCell>
        <mxCell id="8hqIu6tpNmQfpGZRK0oC-212" style="shape=partialRectangle;collapsible=0;dropTarget=0;pointerEvents=0;fillColor=none;points=[[0,0.5],[1,0.5]];portConstraint=eastwest;top=0;left=0;right=0;bottom=0;" parent="8hqIu6tpNmQfpGZRK0oC-193" vertex="1" treatAsSingle="0">
          <mxGeometry y="210" width="280" height="30" as="geometry" />
        </mxCell>
        <mxCell id="8hqIu6tpNmQfpGZRK0oC-213" style="shape=partialRectangle;overflow=hidden;connectable=0;fillColor=none;top=0;left=0;bottom=0;right=0;" parent="8hqIu6tpNmQfpGZRK0oC-212" vertex="1">
          <mxGeometry width="30" height="30" as="geometry" />
        </mxCell>
        <mxCell id="8hqIu6tpNmQfpGZRK0oC-214" value="finished_action String NOT NULL" style="shape=partialRectangle;overflow=hidden;connectable=0;fillColor=none;top=0;left=0;bottom=0;right=0;align=left;spacingLeft=6;" parent="8hqIu6tpNmQfpGZRK0oC-212" vertex="1">
          <mxGeometry x="30" width="250" height="30" as="geometry" />
        </mxCell>
        <mxCell id="8hqIu6tpNmQfpGZRK0oC-215" style="shape=partialRectangle;collapsible=0;dropTarget=0;pointerEvents=0;fillColor=none;points=[[0,0.5],[1,0.5]];portConstraint=eastwest;top=0;left=0;right=0;bottom=0;" parent="8hqIu6tpNmQfpGZRK0oC-193" vertex="1" treatAsSingle="0">
          <mxGeometry y="240" width="280" height="30" as="geometry" />
        </mxCell>
        <mxCell id="8hqIu6tpNmQfpGZRK0oC-216" style="shape=partialRectangle;overflow=hidden;connectable=0;fillColor=none;top=0;left=0;bottom=0;right=0;" parent="8hqIu6tpNmQfpGZRK0oC-215" vertex="1">
          <mxGeometry width="30" height="30" as="geometry" />
        </mxCell>
        <mxCell id="8hqIu6tpNmQfpGZRK0oC-217" value="execution_status int DEFAULT 0" style="shape=partialRectangle;overflow=hidden;connectable=0;fillColor=none;top=0;left=0;bottom=0;right=0;align=left;spacingLeft=6;" parent="8hqIu6tpNmQfpGZRK0oC-215" vertex="1">
          <mxGeometry x="30" width="250" height="30" as="geometry" />
        </mxCell>
        <mxCell id="8hqIu6tpNmQfpGZRK0oC-218" style="shape=partialRectangle;collapsible=0;dropTarget=0;pointerEvents=0;fillColor=none;points=[[0,0.5],[1,0.5]];portConstraint=eastwest;top=0;left=0;right=0;bottom=0;" parent="8hqIu6tpNmQfpGZRK0oC-193" vertex="1" treatAsSingle="0">
          <mxGeometry y="270" width="280" height="30" as="geometry" />
        </mxCell>
        <mxCell id="8hqIu6tpNmQfpGZRK0oC-219" style="shape=partialRectangle;overflow=hidden;connectable=0;fillColor=none;top=0;left=0;bottom=0;right=0;" parent="8hqIu6tpNmQfpGZRK0oC-218" vertex="1">
          <mxGeometry width="30" height="30" as="geometry" />
        </mxCell>
        <mxCell id="8hqIu6tpNmQfpGZRK0oC-220" value="purpose String DEFAULT NULL" style="shape=partialRectangle;overflow=hidden;connectable=0;fillColor=none;top=0;left=0;bottom=0;right=0;align=left;spacingLeft=6;" parent="8hqIu6tpNmQfpGZRK0oC-218" vertex="1">
          <mxGeometry x="30" width="250" height="30" as="geometry" />
        </mxCell>
        <mxCell id="8hqIu6tpNmQfpGZRK0oC-221" style="shape=partialRectangle;collapsible=0;dropTarget=0;pointerEvents=0;fillColor=none;points=[[0,0.5],[1,0.5]];portConstraint=eastwest;top=0;left=0;right=0;bottom=0;" parent="8hqIu6tpNmQfpGZRK0oC-193" vertex="1" treatAsSingle="0">
          <mxGeometry y="300" width="280" height="30" as="geometry" />
        </mxCell>
        <mxCell id="8hqIu6tpNmQfpGZRK0oC-222" style="shape=partialRectangle;overflow=hidden;connectable=0;fillColor=none;top=0;left=0;bottom=0;right=0;" parent="8hqIu6tpNmQfpGZRK0oC-221" vertex="1">
          <mxGeometry width="30" height="30" as="geometry" />
        </mxCell>
        <mxCell id="8hqIu6tpNmQfpGZRK0oC-223" value="sn int NOT NULL" style="shape=partialRectangle;overflow=hidden;connectable=0;fillColor=none;top=0;left=0;bottom=0;right=0;align=left;spacingLeft=6;" parent="8hqIu6tpNmQfpGZRK0oC-221" vertex="1">
          <mxGeometry x="30" width="250" height="30" as="geometry" />
        </mxCell>
        <mxCell id="8hqIu6tpNmQfpGZRK0oC-224" style="shape=partialRectangle;collapsible=0;dropTarget=0;pointerEvents=0;fillColor=none;points=[[0,0.5],[1,0.5]];portConstraint=eastwest;top=0;left=0;right=0;bottom=0;" parent="8hqIu6tpNmQfpGZRK0oC-193" vertex="1" treatAsSingle="0">
          <mxGeometry y="330" width="280" height="30" as="geometry" />
        </mxCell>
        <mxCell id="8hqIu6tpNmQfpGZRK0oC-225" style="shape=partialRectangle;overflow=hidden;connectable=0;fillColor=none;top=0;left=0;bottom=0;right=0;" parent="8hqIu6tpNmQfpGZRK0oC-224" vertex="1">
          <mxGeometry width="30" height="30" as="geometry" />
        </mxCell>
        <mxCell id="8hqIu6tpNmQfpGZRK0oC-226" value="case_no String NOT NULL" style="shape=partialRectangle;overflow=hidden;connectable=0;fillColor=none;top=0;left=0;bottom=0;right=0;align=left;spacingLeft=6;" parent="8hqIu6tpNmQfpGZRK0oC-224" vertex="1">
          <mxGeometry x="30" width="250" height="30" as="geometry" />
        </mxCell>
        <mxCell id="8hqIu6tpNmQfpGZRK0oC-227" style="shape=partialRectangle;collapsible=0;dropTarget=0;pointerEvents=0;fillColor=none;points=[[0,0.5],[1,0.5]];portConstraint=eastwest;top=0;left=0;right=0;bottom=0;" parent="8hqIu6tpNmQfpGZRK0oC-193" vertex="1" treatAsSingle="0">
          <mxGeometry y="360" width="280" height="30" as="geometry" />
        </mxCell>
        <mxCell id="8hqIu6tpNmQfpGZRK0oC-228" style="shape=partialRectangle;overflow=hidden;connectable=0;fillColor=none;top=0;left=0;bottom=0;right=0;" parent="8hqIu6tpNmQfpGZRK0oC-227" vertex="1">
          <mxGeometry width="30" height="30" as="geometry" />
        </mxCell>
        <mxCell id="8hqIu6tpNmQfpGZRK0oC-229" value="status String Default &#39;Draft&#39;" style="shape=partialRectangle;overflow=hidden;connectable=0;fillColor=none;top=0;left=0;bottom=0;right=0;align=left;spacingLeft=6;" parent="8hqIu6tpNmQfpGZRK0oC-227" vertex="1">
          <mxGeometry x="30" width="250" height="30" as="geometry" />
        </mxCell>
        <mxCell id="8hqIu6tpNmQfpGZRK0oC-230" style="shape=partialRectangle;collapsible=0;dropTarget=0;pointerEvents=0;fillColor=none;points=[[0,0.5],[1,0.5]];portConstraint=eastwest;top=0;left=0;right=0;bottom=0;" parent="8hqIu6tpNmQfpGZRK0oC-193" vertex="1" treatAsSingle="0">
          <mxGeometry y="390" width="280" height="30" as="geometry" />
        </mxCell>
        <mxCell id="8hqIu6tpNmQfpGZRK0oC-231" style="shape=partialRectangle;overflow=hidden;connectable=0;fillColor=none;top=0;left=0;bottom=0;right=0;" parent="8hqIu6tpNmQfpGZRK0oC-230" vertex="1">
          <mxGeometry width="30" height="30" as="geometry" />
        </mxCell>
        <mxCell id="8hqIu6tpNmQfpGZRK0oC-232" value="MES_REASON_CODE String" style="shape=partialRectangle;overflow=hidden;connectable=0;fillColor=none;top=0;left=0;bottom=0;right=0;align=left;spacingLeft=6;" parent="8hqIu6tpNmQfpGZRK0oC-230" vertex="1">
          <mxGeometry x="30" width="250" height="30" as="geometry" />
        </mxCell>
        <mxCell id="8hqIu6tpNmQfpGZRK0oC-233" style="shape=partialRectangle;collapsible=0;dropTarget=0;pointerEvents=0;fillColor=none;points=[[0,0.5],[1,0.5]];portConstraint=eastwest;top=0;left=0;right=0;bottom=0;" parent="8hqIu6tpNmQfpGZRK0oC-193" vertex="1" treatAsSingle="0">
          <mxGeometry y="420" width="280" height="30" as="geometry" />
        </mxCell>
        <mxCell id="8hqIu6tpNmQfpGZRK0oC-234" style="shape=partialRectangle;overflow=hidden;connectable=0;fillColor=none;top=0;left=0;bottom=0;right=0;" parent="8hqIu6tpNmQfpGZRK0oC-233" vertex="1">
          <mxGeometry width="30" height="30" as="geometry" />
        </mxCell>
        <mxCell id="8hqIu6tpNmQfpGZRK0oC-235" value="DEPARTMENT String" style="shape=partialRectangle;overflow=hidden;connectable=0;fillColor=none;top=0;left=0;bottom=0;right=0;align=left;spacingLeft=6;" parent="8hqIu6tpNmQfpGZRK0oC-233" vertex="1">
          <mxGeometry x="30" width="250" height="30" as="geometry" />
        </mxCell>
        <mxCell id="8hqIu6tpNmQfpGZRK0oC-236" style="shape=partialRectangle;collapsible=0;dropTarget=0;pointerEvents=0;fillColor=none;points=[[0,0.5],[1,0.5]];portConstraint=eastwest;top=0;left=0;right=0;bottom=0;" parent="8hqIu6tpNmQfpGZRK0oC-193" vertex="1" treatAsSingle="0">
          <mxGeometry y="450" width="280" height="30" as="geometry" />
        </mxCell>
        <mxCell id="8hqIu6tpNmQfpGZRK0oC-237" style="shape=partialRectangle;overflow=hidden;connectable=0;fillColor=none;top=0;left=0;bottom=0;right=0;" parent="8hqIu6tpNmQfpGZRK0oC-236" vertex="1">
          <mxGeometry width="30" height="30" as="geometry" />
        </mxCell>
        <mxCell id="8hqIu6tpNmQfpGZRK0oC-238" value="SECTION String" style="shape=partialRectangle;overflow=hidden;connectable=0;fillColor=none;top=0;left=0;bottom=0;right=0;align=left;spacingLeft=6;" parent="8hqIu6tpNmQfpGZRK0oC-236" vertex="1">
          <mxGeometry x="30" width="250" height="30" as="geometry" />
        </mxCell>
        <mxCell id="8hqIu6tpNmQfpGZRK0oC-239" style="shape=partialRectangle;collapsible=0;dropTarget=0;pointerEvents=0;fillColor=none;points=[[0,0.5],[1,0.5]];portConstraint=eastwest;top=0;left=0;right=0;bottom=0;" parent="8hqIu6tpNmQfpGZRK0oC-193" vertex="1" treatAsSingle="0">
          <mxGeometry y="480" width="280" height="30" as="geometry" />
        </mxCell>
        <mxCell id="8hqIu6tpNmQfpGZRK0oC-240" style="shape=partialRectangle;overflow=hidden;connectable=0;fillColor=none;top=0;left=0;bottom=0;right=0;" parent="8hqIu6tpNmQfpGZRK0oC-239" vertex="1">
          <mxGeometry width="30" height="30" as="geometry" />
        </mxCell>
        <mxCell id="8hqIu6tpNmQfpGZRK0oC-241" value="MODULE String" style="shape=partialRectangle;overflow=hidden;connectable=0;fillColor=none;top=0;left=0;bottom=0;right=0;align=left;spacingLeft=6;" parent="8hqIu6tpNmQfpGZRK0oC-239" vertex="1">
          <mxGeometry x="30" width="250" height="30" as="geometry" />
        </mxCell>
        <mxCell id="8hqIu6tpNmQfpGZRK0oC-242" style="shape=partialRectangle;collapsible=0;dropTarget=0;pointerEvents=0;fillColor=none;points=[[0,0.5],[1,0.5]];portConstraint=eastwest;top=0;left=0;right=0;bottom=0;" parent="8hqIu6tpNmQfpGZRK0oC-193" vertex="1" treatAsSingle="0">
          <mxGeometry y="510" width="280" height="30" as="geometry" />
        </mxCell>
        <mxCell id="8hqIu6tpNmQfpGZRK0oC-243" style="shape=partialRectangle;overflow=hidden;connectable=0;fillColor=none;top=0;left=0;bottom=0;right=0;" parent="8hqIu6tpNmQfpGZRK0oC-242" vertex="1">
          <mxGeometry width="30" height="30" as="geometry" />
        </mxCell>
        <mxCell id="8hqIu6tpNmQfpGZRK0oC-244" value="HOLD_LOT_EMPLOYEE String" style="shape=partialRectangle;overflow=hidden;connectable=0;fillColor=none;top=0;left=0;bottom=0;right=0;align=left;spacingLeft=6;" parent="8hqIu6tpNmQfpGZRK0oC-242" vertex="1">
          <mxGeometry x="30" width="250" height="30" as="geometry" />
        </mxCell>
        <mxCell id="6iO6S8B7v-MfsSudBkjt-4" style="shape=partialRectangle;collapsible=0;dropTarget=0;pointerEvents=0;fillColor=none;points=[[0,0.5],[1,0.5]];portConstraint=eastwest;top=0;left=0;right=0;bottom=0;" parent="8hqIu6tpNmQfpGZRK0oC-193" vertex="1" treatAsSingle="0">
          <mxGeometry y="540" width="280" height="30" as="geometry" />
        </mxCell>
        <mxCell id="6iO6S8B7v-MfsSudBkjt-5" style="shape=partialRectangle;overflow=hidden;connectable=0;fillColor=none;top=0;left=0;bottom=0;right=0;" parent="6iO6S8B7v-MfsSudBkjt-4" vertex="1">
          <mxGeometry width="30" height="30" as="geometry" />
        </mxCell>
        <mxCell id="6iO6S8B7v-MfsSudBkjt-6" value="EXP_CODE String" style="shape=partialRectangle;overflow=hidden;connectable=0;fillColor=none;top=0;left=0;bottom=0;right=0;align=left;spacingLeft=6;" parent="6iO6S8B7v-MfsSudBkjt-4" vertex="1">
          <mxGeometry x="30" width="250" height="30" as="geometry" />
        </mxCell>
        <mxCell id="8hqIu6tpNmQfpGZRK0oC-245" value="EWR Request" style="shape=table;startSize=30;container=1;collapsible=1;childLayout=tableLayout;fixedRows=1;rowLines=0;fontStyle=1;align=center;resizeLast=1;" parent="1" vertex="1" treatAsSingle="0">
          <mxGeometry x="40" y="910" width="250" height="360" as="geometry">
            <mxRectangle x="120" y="120" width="110" height="30" as="alternateBounds" />
          </mxGeometry>
        </mxCell>
        <mxCell id="8hqIu6tpNmQfpGZRK0oC-246" value="" style="shape=partialRectangle;collapsible=0;dropTarget=0;pointerEvents=0;fillColor=none;points=[[0,0.5],[1,0.5]];portConstraint=eastwest;top=0;left=0;right=0;bottom=1;" parent="8hqIu6tpNmQfpGZRK0oC-245" vertex="1" treatAsSingle="0">
          <mxGeometry y="30" width="250" height="30" as="geometry" />
        </mxCell>
        <mxCell id="8hqIu6tpNmQfpGZRK0oC-247" value="PK" style="shape=partialRectangle;overflow=hidden;connectable=0;fillColor=none;top=0;left=0;bottom=0;right=0;fontStyle=1;" parent="8hqIu6tpNmQfpGZRK0oC-246" vertex="1">
          <mxGeometry width="30" height="30" as="geometry" />
        </mxCell>
        <mxCell id="8hqIu6tpNmQfpGZRK0oC-248" value="id String NOT NULL " style="shape=partialRectangle;overflow=hidden;connectable=0;fillColor=none;top=0;left=0;bottom=0;right=0;align=left;spacingLeft=6;fontStyle=5;" parent="8hqIu6tpNmQfpGZRK0oC-246" vertex="1">
          <mxGeometry x="30" width="220" height="30" as="geometry" />
        </mxCell>
        <mxCell id="8hqIu6tpNmQfpGZRK0oC-249" value="" style="shape=partialRectangle;collapsible=0;dropTarget=0;pointerEvents=0;fillColor=none;points=[[0,0.5],[1,0.5]];portConstraint=eastwest;top=0;left=0;right=0;bottom=0;" parent="8hqIu6tpNmQfpGZRK0oC-245" vertex="1" treatAsSingle="0">
          <mxGeometry y="60" width="250" height="30" as="geometry" />
        </mxCell>
        <mxCell id="8hqIu6tpNmQfpGZRK0oC-250" value="" style="shape=partialRectangle;overflow=hidden;connectable=0;fillColor=none;top=0;left=0;bottom=0;right=0;" parent="8hqIu6tpNmQfpGZRK0oC-249" vertex="1">
          <mxGeometry width="30" height="30" as="geometry" />
        </mxCell>
        <mxCell id="8hqIu6tpNmQfpGZRK0oC-251" value="case_no String NOT NULL" style="shape=partialRectangle;overflow=hidden;connectable=0;fillColor=none;top=0;left=0;bottom=0;right=0;align=left;spacingLeft=6;" parent="8hqIu6tpNmQfpGZRK0oC-249" vertex="1">
          <mxGeometry x="30" width="220" height="30" as="geometry" />
        </mxCell>
        <mxCell id="8hqIu6tpNmQfpGZRK0oC-252" value="" style="shape=partialRectangle;collapsible=0;dropTarget=0;pointerEvents=0;fillColor=none;points=[[0,0.5],[1,0.5]];portConstraint=eastwest;top=0;left=0;right=0;bottom=0;" parent="8hqIu6tpNmQfpGZRK0oC-245" vertex="1" treatAsSingle="0">
          <mxGeometry y="90" width="250" height="30" as="geometry" />
        </mxCell>
        <mxCell id="8hqIu6tpNmQfpGZRK0oC-253" value="" style="shape=partialRectangle;overflow=hidden;connectable=0;fillColor=none;top=0;left=0;bottom=0;right=0;" parent="8hqIu6tpNmQfpGZRK0oC-252" vertex="1">
          <mxGeometry width="30" height="30" as="geometry" />
        </mxCell>
        <mxCell id="8hqIu6tpNmQfpGZRK0oC-254" value="applicant String NOT NULL" style="shape=partialRectangle;overflow=hidden;connectable=0;fillColor=none;top=0;left=0;bottom=0;right=0;align=left;spacingLeft=6;" parent="8hqIu6tpNmQfpGZRK0oC-252" vertex="1">
          <mxGeometry x="30" width="220" height="30" as="geometry" />
        </mxCell>
        <mxCell id="8hqIu6tpNmQfpGZRK0oC-255" value="" style="shape=partialRectangle;collapsible=0;dropTarget=0;pointerEvents=0;fillColor=none;points=[[0,0.5],[1,0.5]];portConstraint=eastwest;top=0;left=0;right=0;bottom=0;" parent="8hqIu6tpNmQfpGZRK0oC-245" vertex="1" treatAsSingle="0">
          <mxGeometry y="120" width="250" height="30" as="geometry" />
        </mxCell>
        <mxCell id="8hqIu6tpNmQfpGZRK0oC-256" value="" style="shape=partialRectangle;overflow=hidden;connectable=0;fillColor=none;top=0;left=0;bottom=0;right=0;" parent="8hqIu6tpNmQfpGZRK0oC-255" vertex="1">
          <mxGeometry width="30" height="30" as="geometry" />
        </mxCell>
        <mxCell id="8hqIu6tpNmQfpGZRK0oC-257" value="status String NOT NULL" style="shape=partialRectangle;overflow=hidden;connectable=0;fillColor=none;top=0;left=0;bottom=0;right=0;align=left;spacingLeft=6;" parent="8hqIu6tpNmQfpGZRK0oC-255" vertex="1">
          <mxGeometry x="30" width="220" height="30" as="geometry" />
        </mxCell>
        <mxCell id="8hqIu6tpNmQfpGZRK0oC-258" style="shape=partialRectangle;collapsible=0;dropTarget=0;pointerEvents=0;fillColor=none;points=[[0,0.5],[1,0.5]];portConstraint=eastwest;top=0;left=0;right=0;bottom=0;" parent="8hqIu6tpNmQfpGZRK0oC-245" vertex="1" treatAsSingle="0">
          <mxGeometry y="150" width="250" height="30" as="geometry" />
        </mxCell>
        <mxCell id="8hqIu6tpNmQfpGZRK0oC-259" style="shape=partialRectangle;overflow=hidden;connectable=0;fillColor=none;top=0;left=0;bottom=0;right=0;" parent="8hqIu6tpNmQfpGZRK0oC-258" vertex="1">
          <mxGeometry width="30" height="30" as="geometry" />
        </mxCell>
        <mxCell id="8hqIu6tpNmQfpGZRK0oC-260" value="product_id String NOT NULL" style="shape=partialRectangle;overflow=hidden;connectable=0;fillColor=none;top=0;left=0;bottom=0;right=0;align=left;spacingLeft=6;" parent="8hqIu6tpNmQfpGZRK0oC-258" vertex="1">
          <mxGeometry x="30" width="220" height="30" as="geometry" />
        </mxCell>
        <mxCell id="8hqIu6tpNmQfpGZRK0oC-261" style="shape=partialRectangle;collapsible=0;dropTarget=0;pointerEvents=0;fillColor=none;points=[[0,0.5],[1,0.5]];portConstraint=eastwest;top=0;left=0;right=0;bottom=0;" parent="8hqIu6tpNmQfpGZRK0oC-245" vertex="1" treatAsSingle="0">
          <mxGeometry y="180" width="250" height="30" as="geometry" />
        </mxCell>
        <mxCell id="8hqIu6tpNmQfpGZRK0oC-262" style="shape=partialRectangle;overflow=hidden;connectable=0;fillColor=none;top=0;left=0;bottom=0;right=0;" parent="8hqIu6tpNmQfpGZRK0oC-261" vertex="1">
          <mxGeometry width="30" height="30" as="geometry" />
        </mxCell>
        <mxCell id="8hqIu6tpNmQfpGZRK0oC-263" value="plan_id String NOT NULL" style="shape=partialRectangle;overflow=hidden;connectable=0;fillColor=none;top=0;left=0;bottom=0;right=0;align=left;spacingLeft=6;" parent="8hqIu6tpNmQfpGZRK0oC-261" vertex="1">
          <mxGeometry x="30" width="220" height="30" as="geometry" />
        </mxCell>
        <mxCell id="8hqIu6tpNmQfpGZRK0oC-264" style="shape=partialRectangle;collapsible=0;dropTarget=0;pointerEvents=0;fillColor=none;points=[[0,0.5],[1,0.5]];portConstraint=eastwest;top=0;left=0;right=0;bottom=0;" parent="8hqIu6tpNmQfpGZRK0oC-245" vertex="1" treatAsSingle="0">
          <mxGeometry y="210" width="250" height="30" as="geometry" />
        </mxCell>
        <mxCell id="8hqIu6tpNmQfpGZRK0oC-265" style="shape=partialRectangle;overflow=hidden;connectable=0;fillColor=none;top=0;left=0;bottom=0;right=0;" parent="8hqIu6tpNmQfpGZRK0oC-264" vertex="1">
          <mxGeometry width="30" height="30" as="geometry" />
        </mxCell>
        <mxCell id="8hqIu6tpNmQfpGZRK0oC-266" value="create_date Timestamp NOT NULL" style="shape=partialRectangle;overflow=hidden;connectable=0;fillColor=none;top=0;left=0;bottom=0;right=0;align=left;spacingLeft=6;" parent="8hqIu6tpNmQfpGZRK0oC-264" vertex="1">
          <mxGeometry x="30" width="220" height="30" as="geometry" />
        </mxCell>
        <mxCell id="8hqIu6tpNmQfpGZRK0oC-267" style="shape=partialRectangle;collapsible=0;dropTarget=0;pointerEvents=0;fillColor=none;points=[[0,0.5],[1,0.5]];portConstraint=eastwest;top=0;left=0;right=0;bottom=0;" parent="8hqIu6tpNmQfpGZRK0oC-245" vertex="1" treatAsSingle="0">
          <mxGeometry y="240" width="250" height="30" as="geometry" />
        </mxCell>
        <mxCell id="8hqIu6tpNmQfpGZRK0oC-268" style="shape=partialRectangle;overflow=hidden;connectable=0;fillColor=none;top=0;left=0;bottom=0;right=0;" parent="8hqIu6tpNmQfpGZRK0oC-267" vertex="1">
          <mxGeometry width="30" height="30" as="geometry" />
        </mxCell>
        <mxCell id="8hqIu6tpNmQfpGZRK0oC-269" value="title String NOT NULL" style="shape=partialRectangle;overflow=hidden;connectable=0;fillColor=none;top=0;left=0;bottom=0;right=0;align=left;spacingLeft=6;" parent="8hqIu6tpNmQfpGZRK0oC-267" vertex="1">
          <mxGeometry x="30" width="220" height="30" as="geometry" />
        </mxCell>
        <mxCell id="8hqIu6tpNmQfpGZRK0oC-270" style="shape=partialRectangle;collapsible=0;dropTarget=0;pointerEvents=0;fillColor=none;points=[[0,0.5],[1,0.5]];portConstraint=eastwest;top=0;left=0;right=0;bottom=0;" parent="8hqIu6tpNmQfpGZRK0oC-245" vertex="1" treatAsSingle="0">
          <mxGeometry y="270" width="250" height="30" as="geometry" />
        </mxCell>
        <mxCell id="8hqIu6tpNmQfpGZRK0oC-271" style="shape=partialRectangle;overflow=hidden;connectable=0;fillColor=none;top=0;left=0;bottom=0;right=0;" parent="8hqIu6tpNmQfpGZRK0oC-270" vertex="1">
          <mxGeometry width="30" height="30" as="geometry" />
        </mxCell>
        <mxCell id="8hqIu6tpNmQfpGZRK0oC-272" value="company String NOT NULL" style="shape=partialRectangle;overflow=hidden;connectable=0;fillColor=none;top=0;left=0;bottom=0;right=0;align=left;spacingLeft=6;" parent="8hqIu6tpNmQfpGZRK0oC-270" vertex="1">
          <mxGeometry x="30" width="220" height="30" as="geometry" />
        </mxCell>
        <mxCell id="8hqIu6tpNmQfpGZRK0oC-273" style="shape=partialRectangle;collapsible=0;dropTarget=0;pointerEvents=0;fillColor=none;points=[[0,0.5],[1,0.5]];portConstraint=eastwest;top=0;left=0;right=0;bottom=0;" parent="8hqIu6tpNmQfpGZRK0oC-245" vertex="1" treatAsSingle="0">
          <mxGeometry y="300" width="250" height="30" as="geometry" />
        </mxCell>
        <mxCell id="8hqIu6tpNmQfpGZRK0oC-274" style="shape=partialRectangle;overflow=hidden;connectable=0;fillColor=none;top=0;left=0;bottom=0;right=0;" parent="8hqIu6tpNmQfpGZRK0oC-273" vertex="1">
          <mxGeometry width="30" height="30" as="geometry" />
        </mxCell>
        <mxCell id="8hqIu6tpNmQfpGZRK0oC-275" value="user_area String NOT NULL" style="shape=partialRectangle;overflow=hidden;connectable=0;fillColor=none;top=0;left=0;bottom=0;right=0;align=left;spacingLeft=6;" parent="8hqIu6tpNmQfpGZRK0oC-273" vertex="1">
          <mxGeometry x="30" width="220" height="30" as="geometry" />
        </mxCell>
        <mxCell id="6iO6S8B7v-MfsSudBkjt-1" style="shape=partialRectangle;collapsible=0;dropTarget=0;pointerEvents=0;fillColor=none;points=[[0,0.5],[1,0.5]];portConstraint=eastwest;top=0;left=0;right=0;bottom=0;" parent="8hqIu6tpNmQfpGZRK0oC-245" vertex="1" treatAsSingle="0">
          <mxGeometry y="330" width="250" height="30" as="geometry" />
        </mxCell>
        <mxCell id="6iO6S8B7v-MfsSudBkjt-2" style="shape=partialRectangle;overflow=hidden;connectable=0;fillColor=none;top=0;left=0;bottom=0;right=0;" parent="6iO6S8B7v-MfsSudBkjt-1" vertex="1">
          <mxGeometry width="30" height="30" as="geometry" />
        </mxCell>
        <mxCell id="6iO6S8B7v-MfsSudBkjt-3" style="shape=partialRectangle;overflow=hidden;connectable=0;fillColor=none;top=0;left=0;bottom=0;right=0;align=left;spacingLeft=6;" parent="6iO6S8B7v-MfsSudBkjt-1" vertex="1">
          <mxGeometry x="30" width="220" height="30" as="geometry" />
        </mxCell>
        <mxCell id="8hqIu6tpNmQfpGZRK0oC-276" value="EWR_EXPERIMENT_STEP_RANGE" style="shape=table;startSize=30;container=1;collapsible=1;childLayout=tableLayout;fixedRows=1;rowLines=0;fontStyle=1;align=center;resizeLast=1;" parent="1" vertex="1" treatAsSingle="0">
          <mxGeometry x="750" y="730" width="310" height="340" as="geometry">
            <mxRectangle x="440" y="760" width="240" height="30" as="alternateBounds" />
          </mxGeometry>
        </mxCell>
        <mxCell id="8hqIu6tpNmQfpGZRK0oC-277" value="" style="shape=partialRectangle;collapsible=0;dropTarget=0;pointerEvents=0;fillColor=none;points=[[0,0.5],[1,0.5]];portConstraint=eastwest;top=0;left=0;right=0;bottom=1;" parent="8hqIu6tpNmQfpGZRK0oC-276" vertex="1" treatAsSingle="0">
          <mxGeometry y="30" width="310" height="30" as="geometry" />
        </mxCell>
        <mxCell id="8hqIu6tpNmQfpGZRK0oC-278" value="PK" style="shape=partialRectangle;overflow=hidden;connectable=0;fillColor=none;top=0;left=0;bottom=0;right=0;fontStyle=1;" parent="8hqIu6tpNmQfpGZRK0oC-277" vertex="1">
          <mxGeometry width="30" height="30" as="geometry" />
        </mxCell>
        <mxCell id="8hqIu6tpNmQfpGZRK0oC-279" value="id String NOT NULL" style="shape=partialRectangle;overflow=hidden;connectable=0;fillColor=none;top=0;left=0;bottom=0;right=0;align=left;spacingLeft=6;fontStyle=5;" parent="8hqIu6tpNmQfpGZRK0oC-277" vertex="1">
          <mxGeometry x="30" width="280" height="30" as="geometry" />
        </mxCell>
        <mxCell id="8hqIu6tpNmQfpGZRK0oC-280" value="" style="shape=partialRectangle;collapsible=0;dropTarget=0;pointerEvents=0;fillColor=none;points=[[0,0.5],[1,0.5]];portConstraint=eastwest;top=0;left=0;right=0;bottom=0;" parent="8hqIu6tpNmQfpGZRK0oC-276" vertex="1" treatAsSingle="0">
          <mxGeometry y="60" width="310" height="30" as="geometry" />
        </mxCell>
        <mxCell id="8hqIu6tpNmQfpGZRK0oC-281" value="" style="shape=partialRectangle;overflow=hidden;connectable=0;fillColor=none;top=0;left=0;bottom=0;right=0;" parent="8hqIu6tpNmQfpGZRK0oC-280" vertex="1">
          <mxGeometry width="30" height="30" as="geometry" />
        </mxCell>
        <mxCell id="8hqIu6tpNmQfpGZRK0oC-282" value="ewr_experiment_id String NOT NULL" style="shape=partialRectangle;overflow=hidden;connectable=0;fillColor=none;top=0;left=0;bottom=0;right=0;align=left;spacingLeft=6;" parent="8hqIu6tpNmQfpGZRK0oC-280" vertex="1">
          <mxGeometry x="30" width="280" height="30" as="geometry" />
        </mxCell>
        <mxCell id="8hqIu6tpNmQfpGZRK0oC-283" value="" style="shape=partialRectangle;collapsible=0;dropTarget=0;pointerEvents=0;fillColor=none;points=[[0,0.5],[1,0.5]];portConstraint=eastwest;top=0;left=0;right=0;bottom=0;" parent="8hqIu6tpNmQfpGZRK0oC-276" vertex="1" treatAsSingle="0">
          <mxGeometry y="90" width="310" height="30" as="geometry" />
        </mxCell>
        <mxCell id="8hqIu6tpNmQfpGZRK0oC-284" value="" style="shape=partialRectangle;overflow=hidden;connectable=0;fillColor=none;top=0;left=0;bottom=0;right=0;" parent="8hqIu6tpNmQfpGZRK0oC-283" vertex="1">
          <mxGeometry width="30" height="30" as="geometry" />
        </mxCell>
        <mxCell id="8hqIu6tpNmQfpGZRK0oC-285" value="start_step String NOT NULL" style="shape=partialRectangle;overflow=hidden;connectable=0;fillColor=none;top=0;left=0;bottom=0;right=0;align=left;spacingLeft=6;" parent="8hqIu6tpNmQfpGZRK0oC-283" vertex="1">
          <mxGeometry x="30" width="280" height="30" as="geometry" />
        </mxCell>
        <mxCell id="8hqIu6tpNmQfpGZRK0oC-286" style="shape=partialRectangle;collapsible=0;dropTarget=0;pointerEvents=0;fillColor=none;points=[[0,0.5],[1,0.5]];portConstraint=eastwest;top=0;left=0;right=0;bottom=0;" parent="8hqIu6tpNmQfpGZRK0oC-276" vertex="1" treatAsSingle="0">
          <mxGeometry y="120" width="310" height="30" as="geometry" />
        </mxCell>
        <mxCell id="8hqIu6tpNmQfpGZRK0oC-287" style="shape=partialRectangle;overflow=hidden;connectable=0;fillColor=none;top=0;left=0;bottom=0;right=0;" parent="8hqIu6tpNmQfpGZRK0oC-286" vertex="1">
          <mxGeometry width="30" height="30" as="geometry" />
        </mxCell>
        <mxCell id="8hqIu6tpNmQfpGZRK0oC-288" value="end_step String NOT NULL" style="shape=partialRectangle;overflow=hidden;connectable=0;fillColor=none;top=0;left=0;bottom=0;right=0;align=left;spacingLeft=6;" parent="8hqIu6tpNmQfpGZRK0oC-286" vertex="1">
          <mxGeometry x="30" width="280" height="30" as="geometry" />
        </mxCell>
        <mxCell id="8hqIu6tpNmQfpGZRK0oC-289" style="shape=partialRectangle;collapsible=0;dropTarget=0;pointerEvents=0;fillColor=none;points=[[0,0.5],[1,0.5]];portConstraint=eastwest;top=0;left=0;right=0;bottom=0;" parent="8hqIu6tpNmQfpGZRK0oC-276" vertex="1" treatAsSingle="0">
          <mxGeometry y="150" width="310" height="30" as="geometry" />
        </mxCell>
        <mxCell id="8hqIu6tpNmQfpGZRK0oC-290" style="shape=partialRectangle;overflow=hidden;connectable=0;fillColor=none;top=0;left=0;bottom=0;right=0;" parent="8hqIu6tpNmQfpGZRK0oC-289" vertex="1">
          <mxGeometry width="30" height="30" as="geometry" />
        </mxCell>
        <mxCell id="8hqIu6tpNmQfpGZRK0oC-291" value="lot_id_str String NOT NULL" style="shape=partialRectangle;overflow=hidden;connectable=0;fillColor=none;top=0;left=0;bottom=0;right=0;align=left;spacingLeft=6;" parent="8hqIu6tpNmQfpGZRK0oC-289" vertex="1">
          <mxGeometry x="30" width="280" height="30" as="geometry" />
        </mxCell>
        <mxCell id="8hqIu6tpNmQfpGZRK0oC-292" style="shape=partialRectangle;collapsible=0;dropTarget=0;pointerEvents=0;fillColor=none;points=[[0,0.5],[1,0.5]];portConstraint=eastwest;top=0;left=0;right=0;bottom=0;" parent="8hqIu6tpNmQfpGZRK0oC-276" vertex="1" treatAsSingle="0">
          <mxGeometry y="180" width="310" height="30" as="geometry" />
        </mxCell>
        <mxCell id="8hqIu6tpNmQfpGZRK0oC-293" style="shape=partialRectangle;overflow=hidden;connectable=0;fillColor=none;top=0;left=0;bottom=0;right=0;" parent="8hqIu6tpNmQfpGZRK0oC-292" vertex="1">
          <mxGeometry width="30" height="30" as="geometry" />
        </mxCell>
        <mxCell id="8hqIu6tpNmQfpGZRK0oC-294" value="case_no String NOT NULL" style="shape=partialRectangle;overflow=hidden;connectable=0;fillColor=none;top=0;left=0;bottom=0;right=0;align=left;spacingLeft=6;" parent="8hqIu6tpNmQfpGZRK0oC-292" vertex="1">
          <mxGeometry x="30" width="280" height="30" as="geometry" />
        </mxCell>
        <mxCell id="8hqIu6tpNmQfpGZRK0oC-295" style="shape=partialRectangle;collapsible=0;dropTarget=0;pointerEvents=0;fillColor=none;points=[[0,0.5],[1,0.5]];portConstraint=eastwest;top=0;left=0;right=0;bottom=0;" parent="8hqIu6tpNmQfpGZRK0oC-276" vertex="1" treatAsSingle="0">
          <mxGeometry y="210" width="310" height="30" as="geometry" />
        </mxCell>
        <mxCell id="8hqIu6tpNmQfpGZRK0oC-296" style="shape=partialRectangle;overflow=hidden;connectable=0;fillColor=none;top=0;left=0;bottom=0;right=0;" parent="8hqIu6tpNmQfpGZRK0oC-295" vertex="1">
          <mxGeometry width="30" height="30" as="geometry" />
        </mxCell>
        <mxCell id="8hqIu6tpNmQfpGZRK0oC-297" value="PROCESS_LOCATION String NOT NULL" style="shape=partialRectangle;overflow=hidden;connectable=0;fillColor=none;top=0;left=0;bottom=0;right=0;align=left;spacingLeft=6;" parent="8hqIu6tpNmQfpGZRK0oC-295" vertex="1">
          <mxGeometry x="30" width="280" height="30" as="geometry" />
        </mxCell>
        <mxCell id="8hqIu6tpNmQfpGZRK0oC-298" style="shape=partialRectangle;collapsible=0;dropTarget=0;pointerEvents=0;fillColor=none;points=[[0,0.5],[1,0.5]];portConstraint=eastwest;top=0;left=0;right=0;bottom=0;" parent="8hqIu6tpNmQfpGZRK0oC-276" vertex="1" treatAsSingle="0">
          <mxGeometry y="240" width="310" height="30" as="geometry" />
        </mxCell>
        <mxCell id="8hqIu6tpNmQfpGZRK0oC-299" style="shape=partialRectangle;overflow=hidden;connectable=0;fillColor=none;top=0;left=0;bottom=0;right=0;" parent="8hqIu6tpNmQfpGZRK0oC-298" vertex="1">
          <mxGeometry width="30" height="30" as="geometry" />
        </mxCell>
        <mxCell id="8hqIu6tpNmQfpGZRK0oC-300" value="STEP_DESC String" style="shape=partialRectangle;overflow=hidden;connectable=0;fillColor=none;top=0;left=0;bottom=0;right=0;align=left;spacingLeft=6;" parent="8hqIu6tpNmQfpGZRK0oC-298" vertex="1">
          <mxGeometry x="30" width="280" height="30" as="geometry" />
        </mxCell>
        <mxCell id="8hqIu6tpNmQfpGZRK0oC-301" style="shape=partialRectangle;collapsible=0;dropTarget=0;pointerEvents=0;fillColor=none;points=[[0,0.5],[1,0.5]];portConstraint=eastwest;top=0;left=0;right=0;bottom=0;" parent="8hqIu6tpNmQfpGZRK0oC-276" vertex="1" treatAsSingle="0">
          <mxGeometry y="270" width="310" height="30" as="geometry" />
        </mxCell>
        <mxCell id="8hqIu6tpNmQfpGZRK0oC-302" style="shape=partialRectangle;overflow=hidden;connectable=0;fillColor=none;top=0;left=0;bottom=0;right=0;" parent="8hqIu6tpNmQfpGZRK0oC-301" vertex="1">
          <mxGeometry width="30" height="30" as="geometry" />
        </mxCell>
        <mxCell id="8hqIu6tpNmQfpGZRK0oC-303" value="END_STEP_DESC String" style="shape=partialRectangle;overflow=hidden;connectable=0;fillColor=none;top=0;left=0;bottom=0;right=0;align=left;spacingLeft=6;" parent="8hqIu6tpNmQfpGZRK0oC-301" vertex="1">
          <mxGeometry x="30" width="280" height="30" as="geometry" />
        </mxCell>
        <mxCell id="HYympp35xAa7EPD4HPgj-16" style="shape=partialRectangle;collapsible=0;dropTarget=0;pointerEvents=0;fillColor=none;points=[[0,0.5],[1,0.5]];portConstraint=eastwest;top=0;left=0;right=0;bottom=0;" vertex="1" treatAsSingle="0" parent="8hqIu6tpNmQfpGZRK0oC-276">
          <mxGeometry y="300" width="310" height="30" as="geometry" />
        </mxCell>
        <mxCell id="HYympp35xAa7EPD4HPgj-17" style="shape=partialRectangle;overflow=hidden;connectable=0;fillColor=none;top=0;left=0;bottom=0;right=0;" vertex="1" parent="HYympp35xAa7EPD4HPgj-16">
          <mxGeometry width="30" height="30" as="geometry" />
        </mxCell>
        <mxCell id="HYympp35xAa7EPD4HPgj-18" value="REF_LOT String" style="shape=partialRectangle;overflow=hidden;connectable=0;fillColor=none;top=0;left=0;bottom=0;right=0;align=left;spacingLeft=6;" vertex="1" parent="HYympp35xAa7EPD4HPgj-16">
          <mxGeometry x="30" width="280" height="30" as="geometry" />
        </mxCell>
        <mxCell id="8hqIu6tpNmQfpGZRK0oC-304" value="EWR_EXPERIMENT_SIGN_OFF" style="shape=table;startSize=30;container=1;collapsible=1;childLayout=tableLayout;fixedRows=1;rowLines=0;fontStyle=1;align=center;resizeLast=1;" parent="1" vertex="1" treatAsSingle="0">
          <mxGeometry x="760" y="1370" width="280" height="340" as="geometry" />
        </mxCell>
        <mxCell id="8hqIu6tpNmQfpGZRK0oC-305" value="" style="shape=partialRectangle;collapsible=0;dropTarget=0;pointerEvents=0;fillColor=none;top=0;left=0;bottom=1;right=0;points=[[0,0.5],[1,0.5]];portConstraint=eastwest;" parent="8hqIu6tpNmQfpGZRK0oC-304" vertex="1" treatAsSingle="0">
          <mxGeometry y="30" width="280" height="30" as="geometry" />
        </mxCell>
        <mxCell id="8hqIu6tpNmQfpGZRK0oC-306" value="PK" style="shape=partialRectangle;connectable=0;fillColor=none;top=0;left=0;bottom=0;right=0;fontStyle=1;overflow=hidden;" parent="8hqIu6tpNmQfpGZRK0oC-305" vertex="1">
          <mxGeometry width="30" height="30" as="geometry" />
        </mxCell>
        <mxCell id="8hqIu6tpNmQfpGZRK0oC-307" value="id String NOT NULL" style="shape=partialRectangle;connectable=0;fillColor=none;top=0;left=0;bottom=0;right=0;align=left;spacingLeft=6;fontStyle=5;overflow=hidden;" parent="8hqIu6tpNmQfpGZRK0oC-305" vertex="1">
          <mxGeometry x="30" width="250" height="30" as="geometry" />
        </mxCell>
        <mxCell id="8hqIu6tpNmQfpGZRK0oC-308" value="" style="shape=partialRectangle;collapsible=0;dropTarget=0;pointerEvents=0;fillColor=none;top=0;left=0;bottom=0;right=0;points=[[0,0.5],[1,0.5]];portConstraint=eastwest;" parent="8hqIu6tpNmQfpGZRK0oC-304" vertex="1" treatAsSingle="0">
          <mxGeometry y="60" width="280" height="30" as="geometry" />
        </mxCell>
        <mxCell id="8hqIu6tpNmQfpGZRK0oC-309" value="" style="shape=partialRectangle;connectable=0;fillColor=none;top=0;left=0;bottom=0;right=0;editable=1;overflow=hidden;" parent="8hqIu6tpNmQfpGZRK0oC-308" vertex="1">
          <mxGeometry width="30" height="30" as="geometry" />
        </mxCell>
        <mxCell id="8hqIu6tpNmQfpGZRK0oC-310" value="ewr_experiment_id String NOT NULL" style="shape=partialRectangle;connectable=0;fillColor=none;top=0;left=0;bottom=0;right=0;align=left;spacingLeft=6;overflow=hidden;" parent="8hqIu6tpNmQfpGZRK0oC-308" vertex="1">
          <mxGeometry x="30" width="250" height="30" as="geometry" />
        </mxCell>
        <mxCell id="8hqIu6tpNmQfpGZRK0oC-311" value="" style="shape=partialRectangle;collapsible=0;dropTarget=0;pointerEvents=0;fillColor=none;top=0;left=0;bottom=0;right=0;points=[[0,0.5],[1,0.5]];portConstraint=eastwest;" parent="8hqIu6tpNmQfpGZRK0oC-304" vertex="1" treatAsSingle="0">
          <mxGeometry y="90" width="280" height="30" as="geometry" />
        </mxCell>
        <mxCell id="8hqIu6tpNmQfpGZRK0oC-312" value="" style="shape=partialRectangle;connectable=0;fillColor=none;top=0;left=0;bottom=0;right=0;editable=1;overflow=hidden;" parent="8hqIu6tpNmQfpGZRK0oC-311" vertex="1">
          <mxGeometry width="30" height="30" as="geometry" />
        </mxCell>
        <mxCell id="8hqIu6tpNmQfpGZRK0oC-313" value="case_no String NOT NULL" style="shape=partialRectangle;connectable=0;fillColor=none;top=0;left=0;bottom=0;right=0;align=left;spacingLeft=6;overflow=hidden;" parent="8hqIu6tpNmQfpGZRK0oC-311" vertex="1">
          <mxGeometry x="30" width="250" height="30" as="geometry" />
        </mxCell>
        <mxCell id="8hqIu6tpNmQfpGZRK0oC-314" value="" style="shape=partialRectangle;collapsible=0;dropTarget=0;pointerEvents=0;fillColor=none;top=0;left=0;bottom=0;right=0;points=[[0,0.5],[1,0.5]];portConstraint=eastwest;" parent="8hqIu6tpNmQfpGZRK0oC-304" vertex="1" treatAsSingle="0">
          <mxGeometry y="120" width="280" height="30" as="geometry" />
        </mxCell>
        <mxCell id="8hqIu6tpNmQfpGZRK0oC-315" value="" style="shape=partialRectangle;connectable=0;fillColor=none;top=0;left=0;bottom=0;right=0;editable=1;overflow=hidden;" parent="8hqIu6tpNmQfpGZRK0oC-314" vertex="1">
          <mxGeometry width="30" height="30" as="geometry" />
        </mxCell>
        <mxCell id="8hqIu6tpNmQfpGZRK0oC-316" value="PROCESSINST_ID String" style="shape=partialRectangle;connectable=0;fillColor=none;top=0;left=0;bottom=0;right=0;align=left;spacingLeft=6;overflow=hidden;" parent="8hqIu6tpNmQfpGZRK0oC-314" vertex="1">
          <mxGeometry x="30" width="250" height="30" as="geometry" />
        </mxCell>
        <mxCell id="8hqIu6tpNmQfpGZRK0oC-317" style="shape=partialRectangle;collapsible=0;dropTarget=0;pointerEvents=0;fillColor=none;top=0;left=0;bottom=0;right=0;points=[[0,0.5],[1,0.5]];portConstraint=eastwest;" parent="8hqIu6tpNmQfpGZRK0oC-304" vertex="1" treatAsSingle="0">
          <mxGeometry y="150" width="280" height="30" as="geometry" />
        </mxCell>
        <mxCell id="8hqIu6tpNmQfpGZRK0oC-318" style="shape=partialRectangle;connectable=0;fillColor=none;top=0;left=0;bottom=0;right=0;editable=1;overflow=hidden;" parent="8hqIu6tpNmQfpGZRK0oC-317" vertex="1">
          <mxGeometry width="30" height="30" as="geometry" />
        </mxCell>
        <mxCell id="8hqIu6tpNmQfpGZRK0oC-319" value="STATUS String" style="shape=partialRectangle;connectable=0;fillColor=none;top=0;left=0;bottom=0;right=0;align=left;spacingLeft=6;overflow=hidden;" parent="8hqIu6tpNmQfpGZRK0oC-317" vertex="1">
          <mxGeometry x="30" width="250" height="30" as="geometry" />
        </mxCell>
        <mxCell id="8hqIu6tpNmQfpGZRK0oC-320" style="shape=partialRectangle;collapsible=0;dropTarget=0;pointerEvents=0;fillColor=none;top=0;left=0;bottom=0;right=0;points=[[0,0.5],[1,0.5]];portConstraint=eastwest;" parent="8hqIu6tpNmQfpGZRK0oC-304" vertex="1" treatAsSingle="0">
          <mxGeometry y="180" width="280" height="30" as="geometry" />
        </mxCell>
        <mxCell id="8hqIu6tpNmQfpGZRK0oC-321" style="shape=partialRectangle;connectable=0;fillColor=none;top=0;left=0;bottom=0;right=0;editable=1;overflow=hidden;" parent="8hqIu6tpNmQfpGZRK0oC-320" vertex="1">
          <mxGeometry width="30" height="30" as="geometry" />
        </mxCell>
        <mxCell id="8hqIu6tpNmQfpGZRK0oC-322" value="APPLICANT String" style="shape=partialRectangle;connectable=0;fillColor=none;top=0;left=0;bottom=0;right=0;align=left;spacingLeft=6;overflow=hidden;" parent="8hqIu6tpNmQfpGZRK0oC-320" vertex="1">
          <mxGeometry x="30" width="250" height="30" as="geometry" />
        </mxCell>
        <mxCell id="8hqIu6tpNmQfpGZRK0oC-323" style="shape=partialRectangle;collapsible=0;dropTarget=0;pointerEvents=0;fillColor=none;top=0;left=0;bottom=0;right=0;points=[[0,0.5],[1,0.5]];portConstraint=eastwest;" parent="8hqIu6tpNmQfpGZRK0oC-304" vertex="1" treatAsSingle="0">
          <mxGeometry y="210" width="280" height="30" as="geometry" />
        </mxCell>
        <mxCell id="8hqIu6tpNmQfpGZRK0oC-324" style="shape=partialRectangle;connectable=0;fillColor=none;top=0;left=0;bottom=0;right=0;editable=1;overflow=hidden;" parent="8hqIu6tpNmQfpGZRK0oC-323" vertex="1">
          <mxGeometry width="30" height="30" as="geometry" />
        </mxCell>
        <mxCell id="8hqIu6tpNmQfpGZRK0oC-325" value="USER_MGR String" style="shape=partialRectangle;connectable=0;fillColor=none;top=0;left=0;bottom=0;right=0;align=left;spacingLeft=6;overflow=hidden;" parent="8hqIu6tpNmQfpGZRK0oC-323" vertex="1">
          <mxGeometry x="30" width="250" height="30" as="geometry" />
        </mxCell>
        <mxCell id="8hqIu6tpNmQfpGZRK0oC-326" style="shape=partialRectangle;collapsible=0;dropTarget=0;pointerEvents=0;fillColor=none;top=0;left=0;bottom=0;right=0;points=[[0,0.5],[1,0.5]];portConstraint=eastwest;" parent="8hqIu6tpNmQfpGZRK0oC-304" vertex="1" treatAsSingle="0">
          <mxGeometry y="240" width="280" height="30" as="geometry" />
        </mxCell>
        <mxCell id="8hqIu6tpNmQfpGZRK0oC-327" style="shape=partialRectangle;connectable=0;fillColor=none;top=0;left=0;bottom=0;right=0;editable=1;overflow=hidden;" parent="8hqIu6tpNmQfpGZRK0oC-326" vertex="1">
          <mxGeometry width="30" height="30" as="geometry" />
        </mxCell>
        <mxCell id="8hqIu6tpNmQfpGZRK0oC-328" value="RELATED_MODULE String" style="shape=partialRectangle;connectable=0;fillColor=none;top=0;left=0;bottom=0;right=0;align=left;spacingLeft=6;overflow=hidden;" parent="8hqIu6tpNmQfpGZRK0oC-326" vertex="1">
          <mxGeometry x="30" width="250" height="30" as="geometry" />
        </mxCell>
        <mxCell id="8hqIu6tpNmQfpGZRK0oC-329" style="shape=partialRectangle;collapsible=0;dropTarget=0;pointerEvents=0;fillColor=none;top=0;left=0;bottom=0;right=0;points=[[0,0.5],[1,0.5]];portConstraint=eastwest;" parent="8hqIu6tpNmQfpGZRK0oC-304" vertex="1" treatAsSingle="0">
          <mxGeometry y="270" width="280" height="30" as="geometry" />
        </mxCell>
        <mxCell id="8hqIu6tpNmQfpGZRK0oC-330" style="shape=partialRectangle;connectable=0;fillColor=none;top=0;left=0;bottom=0;right=0;editable=1;overflow=hidden;" parent="8hqIu6tpNmQfpGZRK0oC-329" vertex="1">
          <mxGeometry width="30" height="30" as="geometry" />
        </mxCell>
        <mxCell id="8hqIu6tpNmQfpGZRK0oC-331" value="PIE_MGR String" style="shape=partialRectangle;connectable=0;fillColor=none;top=0;left=0;bottom=0;right=0;align=left;spacingLeft=6;overflow=hidden;" parent="8hqIu6tpNmQfpGZRK0oC-329" vertex="1">
          <mxGeometry x="30" width="250" height="30" as="geometry" />
        </mxCell>
        <mxCell id="8hqIu6tpNmQfpGZRK0oC-332" style="shape=partialRectangle;collapsible=0;dropTarget=0;pointerEvents=0;fillColor=none;top=0;left=0;bottom=0;right=0;points=[[0,0.5],[1,0.5]];portConstraint=eastwest;" parent="8hqIu6tpNmQfpGZRK0oC-304" vertex="1" treatAsSingle="0">
          <mxGeometry y="300" width="280" height="30" as="geometry" />
        </mxCell>
        <mxCell id="8hqIu6tpNmQfpGZRK0oC-333" style="shape=partialRectangle;connectable=0;fillColor=none;top=0;left=0;bottom=0;right=0;editable=1;overflow=hidden;" parent="8hqIu6tpNmQfpGZRK0oC-332" vertex="1">
          <mxGeometry width="30" height="30" as="geometry" />
        </mxCell>
        <mxCell id="8hqIu6tpNmQfpGZRK0oC-334" value="MFG_MGR String" style="shape=partialRectangle;connectable=0;fillColor=none;top=0;left=0;bottom=0;right=0;align=left;spacingLeft=6;overflow=hidden;" parent="8hqIu6tpNmQfpGZRK0oC-332" vertex="1">
          <mxGeometry x="30" width="250" height="30" as="geometry" />
        </mxCell>
        <mxCell id="8hqIu6tpNmQfpGZRK0oC-335" value="EWR_EXPERIMENT_STEP_MEASURE" style="shape=table;startSize=30;container=1;collapsible=1;childLayout=tableLayout;fixedRows=1;rowLines=0;fontStyle=1;align=center;resizeLast=1;" parent="1" vertex="1" treatAsSingle="0">
          <mxGeometry x="1690" y="1030" width="290" height="370" as="geometry">
            <mxRectangle x="1590" y="450" width="250" height="30" as="alternateBounds" />
          </mxGeometry>
        </mxCell>
        <mxCell id="8hqIu6tpNmQfpGZRK0oC-336" value="" style="shape=partialRectangle;collapsible=0;dropTarget=0;pointerEvents=0;fillColor=none;top=0;left=0;bottom=1;right=0;points=[[0,0.5],[1,0.5]];portConstraint=eastwest;" parent="8hqIu6tpNmQfpGZRK0oC-335" vertex="1" treatAsSingle="0">
          <mxGeometry y="30" width="290" height="30" as="geometry" />
        </mxCell>
        <mxCell id="8hqIu6tpNmQfpGZRK0oC-337" value="PK" style="shape=partialRectangle;connectable=0;fillColor=none;top=0;left=0;bottom=0;right=0;fontStyle=1;overflow=hidden;" parent="8hqIu6tpNmQfpGZRK0oC-336" vertex="1">
          <mxGeometry width="30" height="30" as="geometry" />
        </mxCell>
        <mxCell id="8hqIu6tpNmQfpGZRK0oC-338" value="id String NOT NULL" style="shape=partialRectangle;connectable=0;fillColor=none;top=0;left=0;bottom=0;right=0;align=left;spacingLeft=6;fontStyle=5;overflow=hidden;" parent="8hqIu6tpNmQfpGZRK0oC-336" vertex="1">
          <mxGeometry x="30" width="260" height="30" as="geometry" />
        </mxCell>
        <mxCell id="8hqIu6tpNmQfpGZRK0oC-339" value="" style="shape=partialRectangle;collapsible=0;dropTarget=0;pointerEvents=0;fillColor=none;top=0;left=0;bottom=0;right=0;points=[[0,0.5],[1,0.5]];portConstraint=eastwest;" parent="8hqIu6tpNmQfpGZRK0oC-335" vertex="1" treatAsSingle="0">
          <mxGeometry y="60" width="290" height="30" as="geometry" />
        </mxCell>
        <mxCell id="8hqIu6tpNmQfpGZRK0oC-340" value="" style="shape=partialRectangle;connectable=0;fillColor=none;top=0;left=0;bottom=0;right=0;editable=1;overflow=hidden;" parent="8hqIu6tpNmQfpGZRK0oC-339" vertex="1">
          <mxGeometry width="30" height="30" as="geometry" />
        </mxCell>
        <mxCell id="8hqIu6tpNmQfpGZRK0oC-341" value="ewr_exp_step_id String NOT NULL" style="shape=partialRectangle;connectable=0;fillColor=none;top=0;left=0;bottom=0;right=0;align=left;spacingLeft=6;overflow=hidden;" parent="8hqIu6tpNmQfpGZRK0oC-339" vertex="1">
          <mxGeometry x="30" width="260" height="30" as="geometry" />
        </mxCell>
        <mxCell id="8hqIu6tpNmQfpGZRK0oC-342" value="" style="shape=partialRectangle;collapsible=0;dropTarget=0;pointerEvents=0;fillColor=none;top=0;left=0;bottom=0;right=0;points=[[0,0.5],[1,0.5]];portConstraint=eastwest;" parent="8hqIu6tpNmQfpGZRK0oC-335" vertex="1" treatAsSingle="0">
          <mxGeometry y="90" width="290" height="30" as="geometry" />
        </mxCell>
        <mxCell id="8hqIu6tpNmQfpGZRK0oC-343" value="" style="shape=partialRectangle;connectable=0;fillColor=none;top=0;left=0;bottom=0;right=0;editable=1;overflow=hidden;" parent="8hqIu6tpNmQfpGZRK0oC-342" vertex="1">
          <mxGeometry width="30" height="30" as="geometry" />
        </mxCell>
        <mxCell id="8hqIu6tpNmQfpGZRK0oC-344" value="edc_name String NOT NULL" style="shape=partialRectangle;connectable=0;fillColor=none;top=0;left=0;bottom=0;right=0;align=left;spacingLeft=6;overflow=hidden;" parent="8hqIu6tpNmQfpGZRK0oC-342" vertex="1">
          <mxGeometry x="30" width="260" height="30" as="geometry" />
        </mxCell>
        <mxCell id="8hqIu6tpNmQfpGZRK0oC-345" value="" style="shape=partialRectangle;collapsible=0;dropTarget=0;pointerEvents=0;fillColor=none;top=0;left=0;bottom=0;right=0;points=[[0,0.5],[1,0.5]];portConstraint=eastwest;" parent="8hqIu6tpNmQfpGZRK0oC-335" vertex="1" treatAsSingle="0">
          <mxGeometry y="120" width="290" height="30" as="geometry" />
        </mxCell>
        <mxCell id="8hqIu6tpNmQfpGZRK0oC-346" value="" style="shape=partialRectangle;connectable=0;fillColor=none;top=0;left=0;bottom=0;right=0;editable=1;overflow=hidden;" parent="8hqIu6tpNmQfpGZRK0oC-345" vertex="1">
          <mxGeometry width="30" height="30" as="geometry" />
        </mxCell>
        <mxCell id="8hqIu6tpNmQfpGZRK0oC-347" value="meas_spec String NOT NULL" style="shape=partialRectangle;connectable=0;fillColor=none;top=0;left=0;bottom=0;right=0;align=left;spacingLeft=6;overflow=hidden;" parent="8hqIu6tpNmQfpGZRK0oC-345" vertex="1">
          <mxGeometry x="30" width="260" height="30" as="geometry" />
        </mxCell>
        <mxCell id="8hqIu6tpNmQfpGZRK0oC-348" style="shape=partialRectangle;collapsible=0;dropTarget=0;pointerEvents=0;fillColor=none;top=0;left=0;bottom=0;right=0;points=[[0,0.5],[1,0.5]];portConstraint=eastwest;" parent="8hqIu6tpNmQfpGZRK0oC-335" vertex="1" treatAsSingle="0">
          <mxGeometry y="150" width="290" height="30" as="geometry" />
        </mxCell>
        <mxCell id="8hqIu6tpNmQfpGZRK0oC-349" style="shape=partialRectangle;connectable=0;fillColor=none;top=0;left=0;bottom=0;right=0;editable=1;overflow=hidden;" parent="8hqIu6tpNmQfpGZRK0oC-348" vertex="1">
          <mxGeometry width="30" height="30" as="geometry" />
        </mxCell>
        <mxCell id="8hqIu6tpNmQfpGZRK0oC-350" value="meas_type String NOT NULL" style="shape=partialRectangle;connectable=0;fillColor=none;top=0;left=0;bottom=0;right=0;align=left;spacingLeft=6;overflow=hidden;" parent="8hqIu6tpNmQfpGZRK0oC-348" vertex="1">
          <mxGeometry x="30" width="260" height="30" as="geometry" />
        </mxCell>
        <mxCell id="8hqIu6tpNmQfpGZRK0oC-351" style="shape=partialRectangle;collapsible=0;dropTarget=0;pointerEvents=0;fillColor=none;top=0;left=0;bottom=0;right=0;points=[[0,0.5],[1,0.5]];portConstraint=eastwest;" parent="8hqIu6tpNmQfpGZRK0oC-335" vertex="1" treatAsSingle="0">
          <mxGeometry y="180" width="290" height="30" as="geometry" />
        </mxCell>
        <mxCell id="8hqIu6tpNmQfpGZRK0oC-352" style="shape=partialRectangle;connectable=0;fillColor=none;top=0;left=0;bottom=0;right=0;editable=1;overflow=hidden;" parent="8hqIu6tpNmQfpGZRK0oC-351" vertex="1">
          <mxGeometry width="30" height="30" as="geometry" />
        </mxCell>
        <mxCell id="8hqIu6tpNmQfpGZRK0oC-353" value="upper_limit String " style="shape=partialRectangle;connectable=0;fillColor=none;top=0;left=0;bottom=0;right=0;align=left;spacingLeft=6;overflow=hidden;" parent="8hqIu6tpNmQfpGZRK0oC-351" vertex="1">
          <mxGeometry x="30" width="260" height="30" as="geometry" />
        </mxCell>
        <mxCell id="8hqIu6tpNmQfpGZRK0oC-354" style="shape=partialRectangle;collapsible=0;dropTarget=0;pointerEvents=0;fillColor=none;top=0;left=0;bottom=0;right=0;points=[[0,0.5],[1,0.5]];portConstraint=eastwest;" parent="8hqIu6tpNmQfpGZRK0oC-335" vertex="1" treatAsSingle="0">
          <mxGeometry y="210" width="290" height="30" as="geometry" />
        </mxCell>
        <mxCell id="8hqIu6tpNmQfpGZRK0oC-355" style="shape=partialRectangle;connectable=0;fillColor=none;top=0;left=0;bottom=0;right=0;editable=1;overflow=hidden;" parent="8hqIu6tpNmQfpGZRK0oC-354" vertex="1">
          <mxGeometry width="30" height="30" as="geometry" />
        </mxCell>
        <mxCell id="8hqIu6tpNmQfpGZRK0oC-356" value="lower_limit String" style="shape=partialRectangle;connectable=0;fillColor=none;top=0;left=0;bottom=0;right=0;align=left;spacingLeft=6;overflow=hidden;" parent="8hqIu6tpNmQfpGZRK0oC-354" vertex="1">
          <mxGeometry x="30" width="260" height="30" as="geometry" />
        </mxCell>
        <mxCell id="8hqIu6tpNmQfpGZRK0oC-357" style="shape=partialRectangle;collapsible=0;dropTarget=0;pointerEvents=0;fillColor=none;top=0;left=0;bottom=0;right=0;points=[[0,0.5],[1,0.5]];portConstraint=eastwest;" parent="8hqIu6tpNmQfpGZRK0oC-335" vertex="1" treatAsSingle="0">
          <mxGeometry y="240" width="290" height="30" as="geometry" />
        </mxCell>
        <mxCell id="8hqIu6tpNmQfpGZRK0oC-358" style="shape=partialRectangle;connectable=0;fillColor=none;top=0;left=0;bottom=0;right=0;editable=1;overflow=hidden;" parent="8hqIu6tpNmQfpGZRK0oC-357" vertex="1">
          <mxGeometry width="30" height="30" as="geometry" />
        </mxCell>
        <mxCell id="8hqIu6tpNmQfpGZRK0oC-359" value="unit_count int" style="shape=partialRectangle;connectable=0;fillColor=none;top=0;left=0;bottom=0;right=0;align=left;spacingLeft=6;overflow=hidden;" parent="8hqIu6tpNmQfpGZRK0oC-357" vertex="1">
          <mxGeometry x="30" width="260" height="30" as="geometry" />
        </mxCell>
        <mxCell id="8hqIu6tpNmQfpGZRK0oC-360" style="shape=partialRectangle;collapsible=0;dropTarget=0;pointerEvents=0;fillColor=none;top=0;left=0;bottom=0;right=0;points=[[0,0.5],[1,0.5]];portConstraint=eastwest;" parent="8hqIu6tpNmQfpGZRK0oC-335" vertex="1" treatAsSingle="0">
          <mxGeometry y="270" width="290" height="30" as="geometry" />
        </mxCell>
        <mxCell id="8hqIu6tpNmQfpGZRK0oC-361" style="shape=partialRectangle;connectable=0;fillColor=none;top=0;left=0;bottom=0;right=0;editable=1;overflow=hidden;" parent="8hqIu6tpNmQfpGZRK0oC-360" vertex="1">
          <mxGeometry width="30" height="30" as="geometry" />
        </mxCell>
        <mxCell id="8hqIu6tpNmQfpGZRK0oC-362" value="site_count int" style="shape=partialRectangle;connectable=0;fillColor=none;top=0;left=0;bottom=0;right=0;align=left;spacingLeft=6;overflow=hidden;" parent="8hqIu6tpNmQfpGZRK0oC-360" vertex="1">
          <mxGeometry x="30" width="260" height="30" as="geometry" />
        </mxCell>
        <mxCell id="8hqIu6tpNmQfpGZRK0oC-363" style="shape=partialRectangle;collapsible=0;dropTarget=0;pointerEvents=0;fillColor=none;top=0;left=0;bottom=0;right=0;points=[[0,0.5],[1,0.5]];portConstraint=eastwest;" parent="8hqIu6tpNmQfpGZRK0oC-335" vertex="1" treatAsSingle="0">
          <mxGeometry y="300" width="290" height="30" as="geometry" />
        </mxCell>
        <mxCell id="8hqIu6tpNmQfpGZRK0oC-364" style="shape=partialRectangle;connectable=0;fillColor=none;top=0;left=0;bottom=0;right=0;editable=1;overflow=hidden;" parent="8hqIu6tpNmQfpGZRK0oC-363" vertex="1">
          <mxGeometry width="30" height="30" as="geometry" />
        </mxCell>
        <mxCell id="8hqIu6tpNmQfpGZRK0oC-365" value="attachment String NOT NULL" style="shape=partialRectangle;connectable=0;fillColor=none;top=0;left=0;bottom=0;right=0;align=left;spacingLeft=6;overflow=hidden;" parent="8hqIu6tpNmQfpGZRK0oC-363" vertex="1">
          <mxGeometry x="30" width="260" height="30" as="geometry" />
        </mxCell>
        <mxCell id="8hqIu6tpNmQfpGZRK0oC-366" style="shape=partialRectangle;collapsible=0;dropTarget=0;pointerEvents=0;fillColor=none;top=0;left=0;bottom=0;right=0;points=[[0,0.5],[1,0.5]];portConstraint=eastwest;" parent="8hqIu6tpNmQfpGZRK0oC-335" vertex="1" treatAsSingle="0">
          <mxGeometry y="330" width="290" height="30" as="geometry" />
        </mxCell>
        <mxCell id="8hqIu6tpNmQfpGZRK0oC-367" style="shape=partialRectangle;connectable=0;fillColor=none;top=0;left=0;bottom=0;right=0;editable=1;overflow=hidden;" parent="8hqIu6tpNmQfpGZRK0oC-366" vertex="1">
          <mxGeometry width="30" height="30" as="geometry" />
        </mxCell>
        <mxCell id="8hqIu6tpNmQfpGZRK0oC-368" value="case_no String NOT NULL" style="shape=partialRectangle;connectable=0;fillColor=none;top=0;left=0;bottom=0;right=0;align=left;spacingLeft=6;overflow=hidden;" parent="8hqIu6tpNmQfpGZRK0oC-366" vertex="1">
          <mxGeometry x="30" width="260" height="30" as="geometry" />
        </mxCell>
        <mxCell id="8hqIu6tpNmQfpGZRK0oC-369" value="EWR_EXP_STEP_END_QTIME&#xa;(EPM_SRC_REQ_EQT)" style="shape=table;startSize=30;container=1;collapsible=1;childLayout=tableLayout;fixedRows=1;rowLines=0;fontStyle=1;align=center;resizeLast=1;" parent="1" vertex="1" treatAsSingle="0">
          <mxGeometry x="1690" y="1450" width="290" height="360" as="geometry">
            <mxRectangle x="1590" y="860" width="210" height="30" as="alternateBounds" />
          </mxGeometry>
        </mxCell>
        <mxCell id="8hqIu6tpNmQfpGZRK0oC-370" value="" style="shape=partialRectangle;collapsible=0;dropTarget=0;pointerEvents=0;fillColor=none;top=0;left=0;bottom=1;right=0;points=[[0,0.5],[1,0.5]];portConstraint=eastwest;" parent="8hqIu6tpNmQfpGZRK0oC-369" vertex="1" treatAsSingle="0">
          <mxGeometry y="30" width="290" height="30" as="geometry" />
        </mxCell>
        <mxCell id="8hqIu6tpNmQfpGZRK0oC-371" value="PK" style="shape=partialRectangle;connectable=0;fillColor=none;top=0;left=0;bottom=0;right=0;fontStyle=1;overflow=hidden;" parent="8hqIu6tpNmQfpGZRK0oC-370" vertex="1">
          <mxGeometry width="30" height="30" as="geometry" />
        </mxCell>
        <mxCell id="8hqIu6tpNmQfpGZRK0oC-372" value="id String NOT NULL" style="shape=partialRectangle;connectable=0;fillColor=none;top=0;left=0;bottom=0;right=0;align=left;spacingLeft=6;fontStyle=5;overflow=hidden;" parent="8hqIu6tpNmQfpGZRK0oC-370" vertex="1">
          <mxGeometry x="30" width="260" height="30" as="geometry" />
        </mxCell>
        <mxCell id="8hqIu6tpNmQfpGZRK0oC-373" value="" style="shape=partialRectangle;collapsible=0;dropTarget=0;pointerEvents=0;fillColor=none;top=0;left=0;bottom=0;right=0;points=[[0,0.5],[1,0.5]];portConstraint=eastwest;" parent="8hqIu6tpNmQfpGZRK0oC-369" vertex="1" treatAsSingle="0">
          <mxGeometry y="60" width="290" height="30" as="geometry" />
        </mxCell>
        <mxCell id="8hqIu6tpNmQfpGZRK0oC-374" value="" style="shape=partialRectangle;connectable=0;fillColor=none;top=0;left=0;bottom=0;right=0;editable=1;overflow=hidden;" parent="8hqIu6tpNmQfpGZRK0oC-373" vertex="1">
          <mxGeometry width="30" height="30" as="geometry" />
        </mxCell>
        <mxCell id="8hqIu6tpNmQfpGZRK0oC-375" value="ewr_exp_step_id String NOT NULL" style="shape=partialRectangle;connectable=0;fillColor=none;top=0;left=0;bottom=0;right=0;align=left;spacingLeft=6;overflow=hidden;" parent="8hqIu6tpNmQfpGZRK0oC-373" vertex="1">
          <mxGeometry x="30" width="260" height="30" as="geometry" />
        </mxCell>
        <mxCell id="8hqIu6tpNmQfpGZRK0oC-376" value="" style="shape=partialRectangle;collapsible=0;dropTarget=0;pointerEvents=0;fillColor=none;top=0;left=0;bottom=0;right=0;points=[[0,0.5],[1,0.5]];portConstraint=eastwest;" parent="8hqIu6tpNmQfpGZRK0oC-369" vertex="1" treatAsSingle="0">
          <mxGeometry y="90" width="290" height="30" as="geometry" />
        </mxCell>
        <mxCell id="8hqIu6tpNmQfpGZRK0oC-377" value="" style="shape=partialRectangle;connectable=0;fillColor=none;top=0;left=0;bottom=0;right=0;editable=1;overflow=hidden;" parent="8hqIu6tpNmQfpGZRK0oC-376" vertex="1">
          <mxGeometry width="30" height="30" as="geometry" />
        </mxCell>
        <mxCell id="8hqIu6tpNmQfpGZRK0oC-378" value="case_no String NOT NULL" style="shape=partialRectangle;connectable=0;fillColor=none;top=0;left=0;bottom=0;right=0;align=left;spacingLeft=6;overflow=hidden;" parent="8hqIu6tpNmQfpGZRK0oC-376" vertex="1">
          <mxGeometry x="30" width="260" height="30" as="geometry" />
        </mxCell>
        <mxCell id="8hqIu6tpNmQfpGZRK0oC-379" value="" style="shape=partialRectangle;collapsible=0;dropTarget=0;pointerEvents=0;fillColor=none;top=0;left=0;bottom=0;right=0;points=[[0,0.5],[1,0.5]];portConstraint=eastwest;" parent="8hqIu6tpNmQfpGZRK0oC-369" vertex="1" treatAsSingle="0">
          <mxGeometry y="120" width="290" height="30" as="geometry" />
        </mxCell>
        <mxCell id="8hqIu6tpNmQfpGZRK0oC-380" value="" style="shape=partialRectangle;connectable=0;fillColor=none;top=0;left=0;bottom=0;right=0;editable=1;overflow=hidden;" parent="8hqIu6tpNmQfpGZRK0oC-379" vertex="1">
          <mxGeometry width="30" height="30" as="geometry" />
        </mxCell>
        <mxCell id="8hqIu6tpNmQfpGZRK0oC-381" value="qtime_name String NOT NULL" style="shape=partialRectangle;connectable=0;fillColor=none;top=0;left=0;bottom=0;right=0;align=left;spacingLeft=6;overflow=hidden;" parent="8hqIu6tpNmQfpGZRK0oC-379" vertex="1">
          <mxGeometry x="30" width="260" height="30" as="geometry" />
        </mxCell>
        <mxCell id="8hqIu6tpNmQfpGZRK0oC-382" style="shape=partialRectangle;collapsible=0;dropTarget=0;pointerEvents=0;fillColor=none;top=0;left=0;bottom=0;right=0;points=[[0,0.5],[1,0.5]];portConstraint=eastwest;" parent="8hqIu6tpNmQfpGZRK0oC-369" vertex="1" treatAsSingle="0">
          <mxGeometry y="150" width="290" height="30" as="geometry" />
        </mxCell>
        <mxCell id="8hqIu6tpNmQfpGZRK0oC-383" style="shape=partialRectangle;connectable=0;fillColor=none;top=0;left=0;bottom=0;right=0;editable=1;overflow=hidden;" parent="8hqIu6tpNmQfpGZRK0oC-382" vertex="1">
          <mxGeometry width="30" height="30" as="geometry" />
        </mxCell>
        <mxCell id="8hqIu6tpNmQfpGZRK0oC-384" value="plan_name String NOT NULL" style="shape=partialRectangle;connectable=0;fillColor=none;top=0;left=0;bottom=0;right=0;align=left;spacingLeft=6;overflow=hidden;" parent="8hqIu6tpNmQfpGZRK0oC-382" vertex="1">
          <mxGeometry x="30" width="260" height="30" as="geometry" />
        </mxCell>
        <mxCell id="8hqIu6tpNmQfpGZRK0oC-385" style="shape=partialRectangle;collapsible=0;dropTarget=0;pointerEvents=0;fillColor=none;top=0;left=0;bottom=0;right=0;points=[[0,0.5],[1,0.5]];portConstraint=eastwest;" parent="8hqIu6tpNmQfpGZRK0oC-369" vertex="1" treatAsSingle="0">
          <mxGeometry y="180" width="290" height="30" as="geometry" />
        </mxCell>
        <mxCell id="8hqIu6tpNmQfpGZRK0oC-386" style="shape=partialRectangle;connectable=0;fillColor=none;top=0;left=0;bottom=0;right=0;editable=1;overflow=hidden;" parent="8hqIu6tpNmQfpGZRK0oC-385" vertex="1">
          <mxGeometry width="30" height="30" as="geometry" />
        </mxCell>
        <mxCell id="8hqIu6tpNmQfpGZRK0oC-387" value="start_step_seq String NOT NULL" style="shape=partialRectangle;connectable=0;fillColor=none;top=0;left=0;bottom=0;right=0;align=left;spacingLeft=6;overflow=hidden;" parent="8hqIu6tpNmQfpGZRK0oC-385" vertex="1">
          <mxGeometry x="30" width="260" height="30" as="geometry" />
        </mxCell>
        <mxCell id="8hqIu6tpNmQfpGZRK0oC-388" style="shape=partialRectangle;collapsible=0;dropTarget=0;pointerEvents=0;fillColor=none;top=0;left=0;bottom=0;right=0;points=[[0,0.5],[1,0.5]];portConstraint=eastwest;" parent="8hqIu6tpNmQfpGZRK0oC-369" vertex="1" treatAsSingle="0">
          <mxGeometry y="210" width="290" height="30" as="geometry" />
        </mxCell>
        <mxCell id="8hqIu6tpNmQfpGZRK0oC-389" style="shape=partialRectangle;connectable=0;fillColor=none;top=0;left=0;bottom=0;right=0;editable=1;overflow=hidden;" parent="8hqIu6tpNmQfpGZRK0oC-388" vertex="1">
          <mxGeometry width="30" height="30" as="geometry" />
        </mxCell>
        <mxCell id="8hqIu6tpNmQfpGZRK0oC-390" value="end_step_seq String NOT NULL" style="shape=partialRectangle;connectable=0;fillColor=none;top=0;left=0;bottom=0;right=0;align=left;spacingLeft=6;overflow=hidden;" parent="8hqIu6tpNmQfpGZRK0oC-388" vertex="1">
          <mxGeometry x="30" width="260" height="30" as="geometry" />
        </mxCell>
        <mxCell id="8hqIu6tpNmQfpGZRK0oC-391" style="shape=partialRectangle;collapsible=0;dropTarget=0;pointerEvents=0;fillColor=none;top=0;left=0;bottom=0;right=0;points=[[0,0.5],[1,0.5]];portConstraint=eastwest;" parent="8hqIu6tpNmQfpGZRK0oC-369" vertex="1" treatAsSingle="0">
          <mxGeometry y="240" width="290" height="30" as="geometry" />
        </mxCell>
        <mxCell id="8hqIu6tpNmQfpGZRK0oC-392" style="shape=partialRectangle;connectable=0;fillColor=none;top=0;left=0;bottom=0;right=0;editable=1;overflow=hidden;" parent="8hqIu6tpNmQfpGZRK0oC-391" vertex="1">
          <mxGeometry width="30" height="30" as="geometry" />
        </mxCell>
        <mxCell id="8hqIu6tpNmQfpGZRK0oC-393" value="new_interval_time String NOT NULL" style="shape=partialRectangle;connectable=0;fillColor=none;top=0;left=0;bottom=0;right=0;align=left;spacingLeft=6;overflow=hidden;" parent="8hqIu6tpNmQfpGZRK0oC-391" vertex="1">
          <mxGeometry x="30" width="260" height="30" as="geometry" />
        </mxCell>
        <mxCell id="8hqIu6tpNmQfpGZRK0oC-394" style="shape=partialRectangle;collapsible=0;dropTarget=0;pointerEvents=0;fillColor=none;top=0;left=0;bottom=0;right=0;points=[[0,0.5],[1,0.5]];portConstraint=eastwest;" parent="8hqIu6tpNmQfpGZRK0oC-369" vertex="1" treatAsSingle="0">
          <mxGeometry y="270" width="290" height="30" as="geometry" />
        </mxCell>
        <mxCell id="8hqIu6tpNmQfpGZRK0oC-395" style="shape=partialRectangle;connectable=0;fillColor=none;top=0;left=0;bottom=0;right=0;editable=1;overflow=hidden;" parent="8hqIu6tpNmQfpGZRK0oC-394" vertex="1">
          <mxGeometry width="30" height="30" as="geometry" />
        </mxCell>
        <mxCell id="8hqIu6tpNmQfpGZRK0oC-396" value="control_type String NOT NULL" style="shape=partialRectangle;connectable=0;fillColor=none;top=0;left=0;bottom=0;right=0;align=left;spacingLeft=6;overflow=hidden;" parent="8hqIu6tpNmQfpGZRK0oC-394" vertex="1">
          <mxGeometry x="30" width="260" height="30" as="geometry" />
        </mxCell>
        <mxCell id="8hqIu6tpNmQfpGZRK0oC-397" style="shape=partialRectangle;collapsible=0;dropTarget=0;pointerEvents=0;fillColor=none;top=0;left=0;bottom=0;right=0;points=[[0,0.5],[1,0.5]];portConstraint=eastwest;" parent="8hqIu6tpNmQfpGZRK0oC-369" vertex="1" treatAsSingle="0">
          <mxGeometry y="300" width="290" height="30" as="geometry" />
        </mxCell>
        <mxCell id="8hqIu6tpNmQfpGZRK0oC-398" style="shape=partialRectangle;connectable=0;fillColor=none;top=0;left=0;bottom=0;right=0;editable=1;overflow=hidden;" parent="8hqIu6tpNmQfpGZRK0oC-397" vertex="1">
          <mxGeometry width="30" height="30" as="geometry" />
        </mxCell>
        <mxCell id="8hqIu6tpNmQfpGZRK0oC-399" value="plan_version String NOT NULL" style="shape=partialRectangle;connectable=0;fillColor=none;top=0;left=0;bottom=0;right=0;align=left;spacingLeft=6;overflow=hidden;" parent="8hqIu6tpNmQfpGZRK0oC-397" vertex="1">
          <mxGeometry x="30" width="260" height="30" as="geometry" />
        </mxCell>
        <mxCell id="8hqIu6tpNmQfpGZRK0oC-400" style="shape=partialRectangle;collapsible=0;dropTarget=0;pointerEvents=0;fillColor=none;top=0;left=0;bottom=0;right=0;points=[[0,0.5],[1,0.5]];portConstraint=eastwest;" parent="8hqIu6tpNmQfpGZRK0oC-369" vertex="1" treatAsSingle="0">
          <mxGeometry y="330" width="290" height="30" as="geometry" />
        </mxCell>
        <mxCell id="8hqIu6tpNmQfpGZRK0oC-401" style="shape=partialRectangle;connectable=0;fillColor=none;top=0;left=0;bottom=0;right=0;editable=1;overflow=hidden;" parent="8hqIu6tpNmQfpGZRK0oC-400" vertex="1">
          <mxGeometry width="30" height="30" as="geometry" />
        </mxCell>
        <mxCell id="8hqIu6tpNmQfpGZRK0oC-402" style="shape=partialRectangle;connectable=0;fillColor=none;top=0;left=0;bottom=0;right=0;align=left;spacingLeft=6;overflow=hidden;" parent="8hqIu6tpNmQfpGZRK0oC-400" vertex="1">
          <mxGeometry x="30" width="260" height="30" as="geometry" />
        </mxCell>
        <mxCell id="8hqIu6tpNmQfpGZRK0oC-403" value="EWR_EXP_STEP_LITHO_PARA&#xa;(EPM_SRC_REQ_LITHO_IMAGE)" style="shape=table;startSize=30;container=1;collapsible=1;childLayout=tableLayout;fixedRows=1;rowLines=0;fontStyle=1;align=center;resizeLast=1;" parent="1" vertex="1" treatAsSingle="0">
          <mxGeometry x="1690" y="1860" width="290" height="360" as="geometry">
            <mxRectangle x="1590" y="860" width="210" height="30" as="alternateBounds" />
          </mxGeometry>
        </mxCell>
        <mxCell id="8hqIu6tpNmQfpGZRK0oC-404" value="" style="shape=partialRectangle;collapsible=0;dropTarget=0;pointerEvents=0;fillColor=none;top=0;left=0;bottom=1;right=0;points=[[0,0.5],[1,0.5]];portConstraint=eastwest;" parent="8hqIu6tpNmQfpGZRK0oC-403" vertex="1" treatAsSingle="0">
          <mxGeometry y="30" width="290" height="30" as="geometry" />
        </mxCell>
        <mxCell id="8hqIu6tpNmQfpGZRK0oC-405" value="PK" style="shape=partialRectangle;connectable=0;fillColor=none;top=0;left=0;bottom=0;right=0;fontStyle=1;overflow=hidden;" parent="8hqIu6tpNmQfpGZRK0oC-404" vertex="1">
          <mxGeometry width="30" height="30" as="geometry" />
        </mxCell>
        <mxCell id="8hqIu6tpNmQfpGZRK0oC-406" value="id String NOT NULL" style="shape=partialRectangle;connectable=0;fillColor=none;top=0;left=0;bottom=0;right=0;align=left;spacingLeft=6;fontStyle=5;overflow=hidden;" parent="8hqIu6tpNmQfpGZRK0oC-404" vertex="1">
          <mxGeometry x="30" width="260" height="30" as="geometry" />
        </mxCell>
        <mxCell id="8hqIu6tpNmQfpGZRK0oC-407" value="" style="shape=partialRectangle;collapsible=0;dropTarget=0;pointerEvents=0;fillColor=none;top=0;left=0;bottom=0;right=0;points=[[0,0.5],[1,0.5]];portConstraint=eastwest;" parent="8hqIu6tpNmQfpGZRK0oC-403" vertex="1" treatAsSingle="0">
          <mxGeometry y="60" width="290" height="30" as="geometry" />
        </mxCell>
        <mxCell id="8hqIu6tpNmQfpGZRK0oC-408" value="" style="shape=partialRectangle;connectable=0;fillColor=none;top=0;left=0;bottom=0;right=0;editable=1;overflow=hidden;" parent="8hqIu6tpNmQfpGZRK0oC-407" vertex="1">
          <mxGeometry width="30" height="30" as="geometry" />
        </mxCell>
        <mxCell id="8hqIu6tpNmQfpGZRK0oC-409" value="ewr_exp_step_id String NOT NULL" style="shape=partialRectangle;connectable=0;fillColor=none;top=0;left=0;bottom=0;right=0;align=left;spacingLeft=6;overflow=hidden;" parent="8hqIu6tpNmQfpGZRK0oC-407" vertex="1">
          <mxGeometry x="30" width="260" height="30" as="geometry" />
        </mxCell>
        <mxCell id="8hqIu6tpNmQfpGZRK0oC-410" value="" style="shape=partialRectangle;collapsible=0;dropTarget=0;pointerEvents=0;fillColor=none;top=0;left=0;bottom=0;right=0;points=[[0,0.5],[1,0.5]];portConstraint=eastwest;" parent="8hqIu6tpNmQfpGZRK0oC-403" vertex="1" treatAsSingle="0">
          <mxGeometry y="90" width="290" height="30" as="geometry" />
        </mxCell>
        <mxCell id="8hqIu6tpNmQfpGZRK0oC-411" value="" style="shape=partialRectangle;connectable=0;fillColor=none;top=0;left=0;bottom=0;right=0;editable=1;overflow=hidden;" parent="8hqIu6tpNmQfpGZRK0oC-410" vertex="1">
          <mxGeometry width="30" height="30" as="geometry" />
        </mxCell>
        <mxCell id="8hqIu6tpNmQfpGZRK0oC-412" value="case_no String NOT NULL" style="shape=partialRectangle;connectable=0;fillColor=none;top=0;left=0;bottom=0;right=0;align=left;spacingLeft=6;overflow=hidden;" parent="8hqIu6tpNmQfpGZRK0oC-410" vertex="1">
          <mxGeometry x="30" width="260" height="30" as="geometry" />
        </mxCell>
        <mxCell id="8hqIu6tpNmQfpGZRK0oC-413" value="" style="shape=partialRectangle;collapsible=0;dropTarget=0;pointerEvents=0;fillColor=none;top=0;left=0;bottom=0;right=0;points=[[0,0.5],[1,0.5]];portConstraint=eastwest;" parent="8hqIu6tpNmQfpGZRK0oC-403" vertex="1" treatAsSingle="0">
          <mxGeometry y="120" width="290" height="30" as="geometry" />
        </mxCell>
        <mxCell id="8hqIu6tpNmQfpGZRK0oC-414" value="" style="shape=partialRectangle;connectable=0;fillColor=none;top=0;left=0;bottom=0;right=0;editable=1;overflow=hidden;" parent="8hqIu6tpNmQfpGZRK0oC-413" vertex="1">
          <mxGeometry width="30" height="30" as="geometry" />
        </mxCell>
        <mxCell id="8hqIu6tpNmQfpGZRK0oC-415" value="RETICLE_ID String" style="shape=partialRectangle;connectable=0;fillColor=none;top=0;left=0;bottom=0;right=0;align=left;spacingLeft=6;overflow=hidden;" parent="8hqIu6tpNmQfpGZRK0oC-413" vertex="1">
          <mxGeometry x="30" width="260" height="30" as="geometry" />
        </mxCell>
        <mxCell id="8hqIu6tpNmQfpGZRK0oC-416" style="shape=partialRectangle;collapsible=0;dropTarget=0;pointerEvents=0;fillColor=none;top=0;left=0;bottom=0;right=0;points=[[0,0.5],[1,0.5]];portConstraint=eastwest;" parent="8hqIu6tpNmQfpGZRK0oC-403" vertex="1" treatAsSingle="0">
          <mxGeometry y="150" width="290" height="30" as="geometry" />
        </mxCell>
        <mxCell id="8hqIu6tpNmQfpGZRK0oC-417" style="shape=partialRectangle;connectable=0;fillColor=none;top=0;left=0;bottom=0;right=0;editable=1;overflow=hidden;" parent="8hqIu6tpNmQfpGZRK0oC-416" vertex="1">
          <mxGeometry width="30" height="30" as="geometry" />
        </mxCell>
        <mxCell id="8hqIu6tpNmQfpGZRK0oC-418" value="ENERGY String" style="shape=partialRectangle;connectable=0;fillColor=none;top=0;left=0;bottom=0;right=0;align=left;spacingLeft=6;overflow=hidden;" parent="8hqIu6tpNmQfpGZRK0oC-416" vertex="1">
          <mxGeometry x="30" width="260" height="30" as="geometry" />
        </mxCell>
        <mxCell id="8hqIu6tpNmQfpGZRK0oC-419" style="shape=partialRectangle;collapsible=0;dropTarget=0;pointerEvents=0;fillColor=none;top=0;left=0;bottom=0;right=0;points=[[0,0.5],[1,0.5]];portConstraint=eastwest;" parent="8hqIu6tpNmQfpGZRK0oC-403" vertex="1" treatAsSingle="0">
          <mxGeometry y="180" width="290" height="30" as="geometry" />
        </mxCell>
        <mxCell id="8hqIu6tpNmQfpGZRK0oC-420" style="shape=partialRectangle;connectable=0;fillColor=none;top=0;left=0;bottom=0;right=0;editable=1;overflow=hidden;" parent="8hqIu6tpNmQfpGZRK0oC-419" vertex="1">
          <mxGeometry width="30" height="30" as="geometry" />
        </mxCell>
        <mxCell id="8hqIu6tpNmQfpGZRK0oC-421" value="ENERGY_STEP String" style="shape=partialRectangle;connectable=0;fillColor=none;top=0;left=0;bottom=0;right=0;align=left;spacingLeft=6;overflow=hidden;" parent="8hqIu6tpNmQfpGZRK0oC-419" vertex="1">
          <mxGeometry x="30" width="260" height="30" as="geometry" />
        </mxCell>
        <mxCell id="8hqIu6tpNmQfpGZRK0oC-422" style="shape=partialRectangle;collapsible=0;dropTarget=0;pointerEvents=0;fillColor=none;top=0;left=0;bottom=0;right=0;points=[[0,0.5],[1,0.5]];portConstraint=eastwest;" parent="8hqIu6tpNmQfpGZRK0oC-403" vertex="1" treatAsSingle="0">
          <mxGeometry y="210" width="290" height="30" as="geometry" />
        </mxCell>
        <mxCell id="8hqIu6tpNmQfpGZRK0oC-423" style="shape=partialRectangle;connectable=0;fillColor=none;top=0;left=0;bottom=0;right=0;editable=1;overflow=hidden;" parent="8hqIu6tpNmQfpGZRK0oC-422" vertex="1">
          <mxGeometry width="30" height="30" as="geometry" />
        </mxCell>
        <mxCell id="8hqIu6tpNmQfpGZRK0oC-424" value="FOCUS String" style="shape=partialRectangle;connectable=0;fillColor=none;top=0;left=0;bottom=0;right=0;align=left;spacingLeft=6;overflow=hidden;" parent="8hqIu6tpNmQfpGZRK0oC-422" vertex="1">
          <mxGeometry x="30" width="260" height="30" as="geometry" />
        </mxCell>
        <mxCell id="8hqIu6tpNmQfpGZRK0oC-425" style="shape=partialRectangle;collapsible=0;dropTarget=0;pointerEvents=0;fillColor=none;top=0;left=0;bottom=0;right=0;points=[[0,0.5],[1,0.5]];portConstraint=eastwest;" parent="8hqIu6tpNmQfpGZRK0oC-403" vertex="1" treatAsSingle="0">
          <mxGeometry y="240" width="290" height="30" as="geometry" />
        </mxCell>
        <mxCell id="8hqIu6tpNmQfpGZRK0oC-426" style="shape=partialRectangle;connectable=0;fillColor=none;top=0;left=0;bottom=0;right=0;editable=1;overflow=hidden;" parent="8hqIu6tpNmQfpGZRK0oC-425" vertex="1">
          <mxGeometry width="30" height="30" as="geometry" />
        </mxCell>
        <mxCell id="8hqIu6tpNmQfpGZRK0oC-427" value="FOCUS_STEP String" style="shape=partialRectangle;connectable=0;fillColor=none;top=0;left=0;bottom=0;right=0;align=left;spacingLeft=6;overflow=hidden;" parent="8hqIu6tpNmQfpGZRK0oC-425" vertex="1">
          <mxGeometry x="30" width="260" height="30" as="geometry" />
        </mxCell>
        <mxCell id="8hqIu6tpNmQfpGZRK0oC-428" style="shape=partialRectangle;collapsible=0;dropTarget=0;pointerEvents=0;fillColor=none;top=0;left=0;bottom=0;right=0;points=[[0,0.5],[1,0.5]];portConstraint=eastwest;" parent="8hqIu6tpNmQfpGZRK0oC-403" vertex="1" treatAsSingle="0">
          <mxGeometry y="270" width="290" height="30" as="geometry" />
        </mxCell>
        <mxCell id="8hqIu6tpNmQfpGZRK0oC-429" style="shape=partialRectangle;connectable=0;fillColor=none;top=0;left=0;bottom=0;right=0;editable=1;overflow=hidden;" parent="8hqIu6tpNmQfpGZRK0oC-428" vertex="1">
          <mxGeometry width="30" height="30" as="geometry" />
        </mxCell>
        <mxCell id="8hqIu6tpNmQfpGZRK0oC-430" value="OVERLAYCOM String" style="shape=partialRectangle;connectable=0;fillColor=none;top=0;left=0;bottom=0;right=0;align=left;spacingLeft=6;overflow=hidden;" parent="8hqIu6tpNmQfpGZRK0oC-428" vertex="1">
          <mxGeometry x="30" width="260" height="30" as="geometry" />
        </mxCell>
        <mxCell id="8hqIu6tpNmQfpGZRK0oC-431" style="shape=partialRectangle;collapsible=0;dropTarget=0;pointerEvents=0;fillColor=none;top=0;left=0;bottom=0;right=0;points=[[0,0.5],[1,0.5]];portConstraint=eastwest;" parent="8hqIu6tpNmQfpGZRK0oC-403" vertex="1" treatAsSingle="0">
          <mxGeometry y="300" width="290" height="30" as="geometry" />
        </mxCell>
        <mxCell id="8hqIu6tpNmQfpGZRK0oC-432" style="shape=partialRectangle;connectable=0;fillColor=none;top=0;left=0;bottom=0;right=0;editable=1;overflow=hidden;" parent="8hqIu6tpNmQfpGZRK0oC-431" vertex="1">
          <mxGeometry width="30" height="30" as="geometry" />
        </mxCell>
        <mxCell id="8hqIu6tpNmQfpGZRK0oC-433" value="LAYER_ID String" style="shape=partialRectangle;connectable=0;fillColor=none;top=0;left=0;bottom=0;right=0;align=left;spacingLeft=6;overflow=hidden;" parent="8hqIu6tpNmQfpGZRK0oC-431" vertex="1">
          <mxGeometry x="30" width="260" height="30" as="geometry" />
        </mxCell>
        <mxCell id="8hqIu6tpNmQfpGZRK0oC-434" style="shape=partialRectangle;collapsible=0;dropTarget=0;pointerEvents=0;fillColor=none;top=0;left=0;bottom=0;right=0;points=[[0,0.5],[1,0.5]];portConstraint=eastwest;" parent="8hqIu6tpNmQfpGZRK0oC-403" vertex="1" treatAsSingle="0">
          <mxGeometry y="330" width="290" height="30" as="geometry" />
        </mxCell>
        <mxCell id="8hqIu6tpNmQfpGZRK0oC-435" style="shape=partialRectangle;connectable=0;fillColor=none;top=0;left=0;bottom=0;right=0;editable=1;overflow=hidden;" parent="8hqIu6tpNmQfpGZRK0oC-434" vertex="1">
          <mxGeometry width="30" height="30" as="geometry" />
        </mxCell>
        <mxCell id="8hqIu6tpNmQfpGZRK0oC-436" style="shape=partialRectangle;connectable=0;fillColor=none;top=0;left=0;bottom=0;right=0;align=left;spacingLeft=6;overflow=hidden;" parent="8hqIu6tpNmQfpGZRK0oC-434" vertex="1">
          <mxGeometry x="30" width="260" height="30" as="geometry" />
        </mxCell>
        <mxCell id="8hqIu6tpNmQfpGZRK0oC-5" value="EWR_EXPERIMENT_STEP&#xa;(EPM_SRC_REQ_STEP)" style="shape=table;startSize=30;container=1;collapsible=1;childLayout=tableLayout;fixedRows=1;rowLines=0;fontStyle=1;align=center;resizeLast=1;" parent="1" vertex="1" treatAsSingle="0">
          <mxGeometry x="1200" y="1390" width="280" height="520" as="geometry">
            <mxRectangle x="1210" y="450" width="180" height="30" as="alternateBounds" />
          </mxGeometry>
        </mxCell>
        <mxCell id="8hqIu6tpNmQfpGZRK0oC-6" value="" style="shape=partialRectangle;collapsible=0;dropTarget=0;pointerEvents=0;fillColor=none;top=0;left=0;bottom=1;right=0;points=[[0,0.5],[1,0.5]];portConstraint=eastwest;" parent="8hqIu6tpNmQfpGZRK0oC-5" vertex="1" treatAsSingle="0">
          <mxGeometry y="30" width="280" height="30" as="geometry" />
        </mxCell>
        <mxCell id="8hqIu6tpNmQfpGZRK0oC-7" value="PK" style="shape=partialRectangle;connectable=0;fillColor=none;top=0;left=0;bottom=0;right=0;fontStyle=1;overflow=hidden;" parent="8hqIu6tpNmQfpGZRK0oC-6" vertex="1">
          <mxGeometry width="30" height="30" as="geometry" />
        </mxCell>
        <mxCell id="8hqIu6tpNmQfpGZRK0oC-8" value="id String NOT NULL" style="shape=partialRectangle;connectable=0;fillColor=none;top=0;left=0;bottom=0;right=0;align=left;spacingLeft=6;fontStyle=5;overflow=hidden;" parent="8hqIu6tpNmQfpGZRK0oC-6" vertex="1">
          <mxGeometry x="30" width="250" height="30" as="geometry" />
        </mxCell>
        <mxCell id="8hqIu6tpNmQfpGZRK0oC-9" value="" style="shape=partialRectangle;collapsible=0;dropTarget=0;pointerEvents=0;fillColor=none;top=0;left=0;bottom=0;right=0;points=[[0,0.5],[1,0.5]];portConstraint=eastwest;" parent="8hqIu6tpNmQfpGZRK0oC-5" vertex="1" treatAsSingle="0">
          <mxGeometry y="60" width="280" height="30" as="geometry" />
        </mxCell>
        <mxCell id="8hqIu6tpNmQfpGZRK0oC-10" value="" style="shape=partialRectangle;connectable=0;fillColor=none;top=0;left=0;bottom=0;right=0;editable=1;overflow=hidden;" parent="8hqIu6tpNmQfpGZRK0oC-9" vertex="1">
          <mxGeometry width="30" height="30" as="geometry" />
        </mxCell>
        <mxCell id="8hqIu6tpNmQfpGZRK0oC-11" value="ewr_exp_step_range_id String" style="shape=partialRectangle;connectable=0;fillColor=none;top=0;left=0;bottom=0;right=0;align=left;spacingLeft=6;overflow=hidden;" parent="8hqIu6tpNmQfpGZRK0oC-9" vertex="1">
          <mxGeometry x="30" width="250" height="30" as="geometry" />
        </mxCell>
        <mxCell id="8hqIu6tpNmQfpGZRK0oC-12" value="" style="shape=partialRectangle;collapsible=0;dropTarget=0;pointerEvents=0;fillColor=none;top=0;left=0;bottom=0;right=0;points=[[0,0.5],[1,0.5]];portConstraint=eastwest;" parent="8hqIu6tpNmQfpGZRK0oC-5" vertex="1" treatAsSingle="0">
          <mxGeometry y="90" width="280" height="30" as="geometry" />
        </mxCell>
        <mxCell id="8hqIu6tpNmQfpGZRK0oC-13" value="" style="shape=partialRectangle;connectable=0;fillColor=none;top=0;left=0;bottom=0;right=0;editable=1;overflow=hidden;" parent="8hqIu6tpNmQfpGZRK0oC-12" vertex="1">
          <mxGeometry width="30" height="30" as="geometry" />
        </mxCell>
        <mxCell id="8hqIu6tpNmQfpGZRK0oC-14" value="area String NOT NULL" style="shape=partialRectangle;connectable=0;fillColor=none;top=0;left=0;bottom=0;right=0;align=left;spacingLeft=6;overflow=hidden;" parent="8hqIu6tpNmQfpGZRK0oC-12" vertex="1">
          <mxGeometry x="30" width="250" height="30" as="geometry" />
        </mxCell>
        <mxCell id="8hqIu6tpNmQfpGZRK0oC-15" value="" style="shape=partialRectangle;collapsible=0;dropTarget=0;pointerEvents=0;fillColor=none;top=0;left=0;bottom=0;right=0;points=[[0,0.5],[1,0.5]];portConstraint=eastwest;" parent="8hqIu6tpNmQfpGZRK0oC-5" vertex="1" treatAsSingle="0">
          <mxGeometry y="120" width="280" height="30" as="geometry" />
        </mxCell>
        <mxCell id="8hqIu6tpNmQfpGZRK0oC-16" value="" style="shape=partialRectangle;connectable=0;fillColor=none;top=0;left=0;bottom=0;right=0;editable=1;overflow=hidden;" parent="8hqIu6tpNmQfpGZRK0oC-15" vertex="1">
          <mxGeometry width="30" height="30" as="geometry" />
        </mxCell>
        <mxCell id="8hqIu6tpNmQfpGZRK0oC-17" value="process_location String NOT NULL" style="shape=partialRectangle;connectable=0;fillColor=none;top=0;left=0;bottom=0;right=0;align=left;spacingLeft=6;overflow=hidden;" parent="8hqIu6tpNmQfpGZRK0oC-15" vertex="1">
          <mxGeometry x="30" width="250" height="30" as="geometry" />
        </mxCell>
        <mxCell id="8hqIu6tpNmQfpGZRK0oC-18" style="shape=partialRectangle;collapsible=0;dropTarget=0;pointerEvents=0;fillColor=none;top=0;left=0;bottom=0;right=0;points=[[0,0.5],[1,0.5]];portConstraint=eastwest;" parent="8hqIu6tpNmQfpGZRK0oC-5" vertex="1" treatAsSingle="0">
          <mxGeometry y="150" width="280" height="30" as="geometry" />
        </mxCell>
        <mxCell id="8hqIu6tpNmQfpGZRK0oC-19" style="shape=partialRectangle;connectable=0;fillColor=none;top=0;left=0;bottom=0;right=0;editable=1;overflow=hidden;" parent="8hqIu6tpNmQfpGZRK0oC-18" vertex="1">
          <mxGeometry width="30" height="30" as="geometry" />
        </mxCell>
        <mxCell id="8hqIu6tpNmQfpGZRK0oC-20" value="equipment_id String NOT NULL" style="shape=partialRectangle;connectable=0;fillColor=none;top=0;left=0;bottom=0;right=0;align=left;spacingLeft=6;overflow=hidden;" parent="8hqIu6tpNmQfpGZRK0oC-18" vertex="1">
          <mxGeometry x="30" width="250" height="30" as="geometry" />
        </mxCell>
        <mxCell id="8hqIu6tpNmQfpGZRK0oC-21" style="shape=partialRectangle;collapsible=0;dropTarget=0;pointerEvents=0;fillColor=none;top=0;left=0;bottom=0;right=0;points=[[0,0.5],[1,0.5]];portConstraint=eastwest;" parent="8hqIu6tpNmQfpGZRK0oC-5" vertex="1" treatAsSingle="0">
          <mxGeometry y="180" width="280" height="30" as="geometry" />
        </mxCell>
        <mxCell id="8hqIu6tpNmQfpGZRK0oC-22" style="shape=partialRectangle;connectable=0;fillColor=none;top=0;left=0;bottom=0;right=0;editable=1;overflow=hidden;" parent="8hqIu6tpNmQfpGZRK0oC-21" vertex="1">
          <mxGeometry width="30" height="30" as="geometry" />
        </mxCell>
        <mxCell id="8hqIu6tpNmQfpGZRK0oC-23" value="step_no String NOT NULL" style="shape=partialRectangle;connectable=0;fillColor=none;top=0;left=0;bottom=0;right=0;align=left;spacingLeft=6;overflow=hidden;" parent="8hqIu6tpNmQfpGZRK0oC-21" vertex="1">
          <mxGeometry x="30" width="250" height="30" as="geometry" />
        </mxCell>
        <mxCell id="8hqIu6tpNmQfpGZRK0oC-24" style="shape=partialRectangle;collapsible=0;dropTarget=0;pointerEvents=0;fillColor=none;top=0;left=0;bottom=0;right=0;points=[[0,0.5],[1,0.5]];portConstraint=eastwest;" parent="8hqIu6tpNmQfpGZRK0oC-5" vertex="1" treatAsSingle="0">
          <mxGeometry y="210" width="280" height="30" as="geometry" />
        </mxCell>
        <mxCell id="8hqIu6tpNmQfpGZRK0oC-25" style="shape=partialRectangle;connectable=0;fillColor=none;top=0;left=0;bottom=0;right=0;editable=1;overflow=hidden;" parent="8hqIu6tpNmQfpGZRK0oC-24" vertex="1">
          <mxGeometry width="30" height="30" as="geometry" />
        </mxCell>
        <mxCell id="8hqIu6tpNmQfpGZRK0oC-26" value="sn int DEFAULT 1" style="shape=partialRectangle;connectable=0;fillColor=none;top=0;left=0;bottom=0;right=0;align=left;spacingLeft=6;overflow=hidden;" parent="8hqIu6tpNmQfpGZRK0oC-24" vertex="1">
          <mxGeometry x="30" width="250" height="30" as="geometry" />
        </mxCell>
        <mxCell id="8hqIu6tpNmQfpGZRK0oC-27" style="shape=partialRectangle;collapsible=0;dropTarget=0;pointerEvents=0;fillColor=none;top=0;left=0;bottom=0;right=0;points=[[0,0.5],[1,0.5]];portConstraint=eastwest;" parent="8hqIu6tpNmQfpGZRK0oC-5" vertex="1" treatAsSingle="0">
          <mxGeometry y="240" width="280" height="30" as="geometry" />
        </mxCell>
        <mxCell id="8hqIu6tpNmQfpGZRK0oC-28" style="shape=partialRectangle;connectable=0;fillColor=none;top=0;left=0;bottom=0;right=0;editable=1;overflow=hidden;" parent="8hqIu6tpNmQfpGZRK0oC-27" vertex="1">
          <mxGeometry width="30" height="30" as="geometry" />
        </mxCell>
        <mxCell id="8hqIu6tpNmQfpGZRK0oC-29" value="recipe String NOT NULL" style="shape=partialRectangle;connectable=0;fillColor=none;top=0;left=0;bottom=0;right=0;align=left;spacingLeft=6;overflow=hidden;" parent="8hqIu6tpNmQfpGZRK0oC-27" vertex="1">
          <mxGeometry x="30" width="250" height="30" as="geometry" />
        </mxCell>
        <mxCell id="8hqIu6tpNmQfpGZRK0oC-30" style="shape=partialRectangle;collapsible=0;dropTarget=0;pointerEvents=0;fillColor=none;top=0;left=0;bottom=0;right=0;points=[[0,0.5],[1,0.5]];portConstraint=eastwest;" parent="8hqIu6tpNmQfpGZRK0oC-5" vertex="1" treatAsSingle="0">
          <mxGeometry y="270" width="280" height="30" as="geometry" />
        </mxCell>
        <mxCell id="8hqIu6tpNmQfpGZRK0oC-31" style="shape=partialRectangle;connectable=0;fillColor=none;top=0;left=0;bottom=0;right=0;editable=1;overflow=hidden;" parent="8hqIu6tpNmQfpGZRK0oC-30" vertex="1">
          <mxGeometry width="30" height="30" as="geometry" />
        </mxCell>
        <mxCell id="8hqIu6tpNmQfpGZRK0oC-32" value="exposure_type String" style="shape=partialRectangle;connectable=0;fillColor=none;top=0;left=0;bottom=0;right=0;align=left;spacingLeft=6;overflow=hidden;" parent="8hqIu6tpNmQfpGZRK0oC-30" vertex="1">
          <mxGeometry x="30" width="250" height="30" as="geometry" />
        </mxCell>
        <mxCell id="8hqIu6tpNmQfpGZRK0oC-33" style="shape=partialRectangle;collapsible=0;dropTarget=0;pointerEvents=0;fillColor=none;top=0;left=0;bottom=0;right=0;points=[[0,0.5],[1,0.5]];portConstraint=eastwest;" parent="8hqIu6tpNmQfpGZRK0oC-5" vertex="1" treatAsSingle="0">
          <mxGeometry y="300" width="280" height="30" as="geometry" />
        </mxCell>
        <mxCell id="8hqIu6tpNmQfpGZRK0oC-34" style="shape=partialRectangle;connectable=0;fillColor=none;top=0;left=0;bottom=0;right=0;editable=1;overflow=hidden;" parent="8hqIu6tpNmQfpGZRK0oC-33" vertex="1">
          <mxGeometry width="30" height="30" as="geometry" />
        </mxCell>
        <mxCell id="8hqIu6tpNmQfpGZRK0oC-35" value="wafer_id String NOT NULL" style="shape=partialRectangle;connectable=0;fillColor=none;top=0;left=0;bottom=0;right=0;align=left;spacingLeft=6;overflow=hidden;" parent="8hqIu6tpNmQfpGZRK0oC-33" vertex="1">
          <mxGeometry x="30" width="250" height="30" as="geometry" />
        </mxCell>
        <mxCell id="8hqIu6tpNmQfpGZRK0oC-36" style="shape=partialRectangle;collapsible=0;dropTarget=0;pointerEvents=0;fillColor=none;top=0;left=0;bottom=0;right=0;points=[[0,0.5],[1,0.5]];portConstraint=eastwest;" parent="8hqIu6tpNmQfpGZRK0oC-5" vertex="1" treatAsSingle="0">
          <mxGeometry y="330" width="280" height="30" as="geometry" />
        </mxCell>
        <mxCell id="8hqIu6tpNmQfpGZRK0oC-37" style="shape=partialRectangle;connectable=0;fillColor=none;top=0;left=0;bottom=0;right=0;editable=1;overflow=hidden;" parent="8hqIu6tpNmQfpGZRK0oC-36" vertex="1">
          <mxGeometry width="30" height="30" as="geometry" />
        </mxCell>
        <mxCell id="8hqIu6tpNmQfpGZRK0oC-38" value="chamber String" style="shape=partialRectangle;connectable=0;fillColor=none;top=0;left=0;bottom=0;right=0;align=left;spacingLeft=6;overflow=hidden;" parent="8hqIu6tpNmQfpGZRK0oC-36" vertex="1">
          <mxGeometry x="30" width="250" height="30" as="geometry" />
        </mxCell>
        <mxCell id="8hqIu6tpNmQfpGZRK0oC-39" style="shape=partialRectangle;collapsible=0;dropTarget=0;pointerEvents=0;fillColor=none;top=0;left=0;bottom=0;right=0;points=[[0,0.5],[1,0.5]];portConstraint=eastwest;" parent="8hqIu6tpNmQfpGZRK0oC-5" vertex="1" treatAsSingle="0">
          <mxGeometry y="360" width="280" height="30" as="geometry" />
        </mxCell>
        <mxCell id="8hqIu6tpNmQfpGZRK0oC-40" style="shape=partialRectangle;connectable=0;fillColor=none;top=0;left=0;bottom=0;right=0;editable=1;overflow=hidden;" parent="8hqIu6tpNmQfpGZRK0oC-39" vertex="1">
          <mxGeometry width="30" height="30" as="geometry" />
        </mxCell>
        <mxCell id="8hqIu6tpNmQfpGZRK0oC-41" value="equipment_group String NOT NULL" style="shape=partialRectangle;connectable=0;fillColor=none;top=0;left=0;bottom=0;right=0;align=left;spacingLeft=6;overflow=hidden;" parent="8hqIu6tpNmQfpGZRK0oC-39" vertex="1">
          <mxGeometry x="30" width="250" height="30" as="geometry" />
        </mxCell>
        <mxCell id="8hqIu6tpNmQfpGZRK0oC-42" style="shape=partialRectangle;collapsible=0;dropTarget=0;pointerEvents=0;fillColor=none;top=0;left=0;bottom=0;right=0;points=[[0,0.5],[1,0.5]];portConstraint=eastwest;" parent="8hqIu6tpNmQfpGZRK0oC-5" vertex="1" treatAsSingle="0">
          <mxGeometry y="390" width="280" height="30" as="geometry" />
        </mxCell>
        <mxCell id="8hqIu6tpNmQfpGZRK0oC-43" style="shape=partialRectangle;connectable=0;fillColor=none;top=0;left=0;bottom=0;right=0;editable=1;overflow=hidden;" parent="8hqIu6tpNmQfpGZRK0oC-42" vertex="1">
          <mxGeometry width="30" height="30" as="geometry" />
        </mxCell>
        <mxCell id="8hqIu6tpNmQfpGZRK0oC-44" value="contamination_level String NOT NULL" style="shape=partialRectangle;connectable=0;fillColor=none;top=0;left=0;bottom=0;right=0;align=left;spacingLeft=6;overflow=hidden;" parent="8hqIu6tpNmQfpGZRK0oC-42" vertex="1">
          <mxGeometry x="30" width="250" height="30" as="geometry" />
        </mxCell>
        <mxCell id="8hqIu6tpNmQfpGZRK0oC-45" style="shape=partialRectangle;collapsible=0;dropTarget=0;pointerEvents=0;fillColor=none;top=0;left=0;bottom=0;right=0;points=[[0,0.5],[1,0.5]];portConstraint=eastwest;" parent="8hqIu6tpNmQfpGZRK0oC-5" vertex="1" treatAsSingle="0">
          <mxGeometry y="420" width="280" height="30" as="geometry" />
        </mxCell>
        <mxCell id="8hqIu6tpNmQfpGZRK0oC-46" style="shape=partialRectangle;connectable=0;fillColor=none;top=0;left=0;bottom=0;right=0;editable=1;overflow=hidden;" parent="8hqIu6tpNmQfpGZRK0oC-45" vertex="1">
          <mxGeometry width="30" height="30" as="geometry" />
        </mxCell>
        <mxCell id="8hqIu6tpNmQfpGZRK0oC-47" value="litho_apc String" style="shape=partialRectangle;connectable=0;fillColor=none;top=0;left=0;bottom=0;right=0;align=left;spacingLeft=6;overflow=hidden;" parent="8hqIu6tpNmQfpGZRK0oC-45" vertex="1">
          <mxGeometry x="30" width="250" height="30" as="geometry" />
        </mxCell>
        <mxCell id="8hqIu6tpNmQfpGZRK0oC-48" style="shape=partialRectangle;collapsible=0;dropTarget=0;pointerEvents=0;fillColor=none;top=0;left=0;bottom=0;right=0;points=[[0,0.5],[1,0.5]];portConstraint=eastwest;" parent="8hqIu6tpNmQfpGZRK0oC-5" vertex="1" treatAsSingle="0">
          <mxGeometry y="450" width="280" height="30" as="geometry" />
        </mxCell>
        <mxCell id="8hqIu6tpNmQfpGZRK0oC-49" style="shape=partialRectangle;connectable=0;fillColor=none;top=0;left=0;bottom=0;right=0;editable=1;overflow=hidden;" parent="8hqIu6tpNmQfpGZRK0oC-48" vertex="1">
          <mxGeometry width="30" height="30" as="geometry" />
        </mxCell>
        <mxCell id="8hqIu6tpNmQfpGZRK0oC-50" value="parameter_type String" style="shape=partialRectangle;connectable=0;fillColor=none;top=0;left=0;bottom=0;right=0;align=left;spacingLeft=6;overflow=hidden;" parent="8hqIu6tpNmQfpGZRK0oC-48" vertex="1">
          <mxGeometry x="30" width="250" height="30" as="geometry" />
        </mxCell>
        <mxCell id="8hqIu6tpNmQfpGZRK0oC-51" style="shape=partialRectangle;collapsible=0;dropTarget=0;pointerEvents=0;fillColor=none;top=0;left=0;bottom=0;right=0;points=[[0,0.5],[1,0.5]];portConstraint=eastwest;" parent="8hqIu6tpNmQfpGZRK0oC-5" vertex="1" treatAsSingle="0">
          <mxGeometry y="480" width="280" height="30" as="geometry" />
        </mxCell>
        <mxCell id="8hqIu6tpNmQfpGZRK0oC-52" style="shape=partialRectangle;connectable=0;fillColor=none;top=0;left=0;bottom=0;right=0;editable=1;overflow=hidden;" parent="8hqIu6tpNmQfpGZRK0oC-51" vertex="1">
          <mxGeometry width="30" height="30" as="geometry" />
        </mxCell>
        <mxCell id="8hqIu6tpNmQfpGZRK0oC-53" value="case_no String NOT NULL" style="shape=partialRectangle;connectable=0;fillColor=none;top=0;left=0;bottom=0;right=0;align=left;spacingLeft=6;overflow=hidden;" parent="8hqIu6tpNmQfpGZRK0oC-51" vertex="1">
          <mxGeometry x="30" width="250" height="30" as="geometry" />
        </mxCell>
        <mxCell id="8hqIu6tpNmQfpGZRK0oC-437" value="EWR_EXP_STEP_CMP_PARA&#xa;(EPM_SRC_REQ_PARAM)" style="shape=table;startSize=30;container=1;collapsible=1;childLayout=tableLayout;fixedRows=1;rowLines=0;fontStyle=1;align=center;resizeLast=1;" parent="1" vertex="1" treatAsSingle="0">
          <mxGeometry x="1680" y="2290" width="290" height="420" as="geometry">
            <mxRectangle x="1590" y="860" width="210" height="30" as="alternateBounds" />
          </mxGeometry>
        </mxCell>
        <mxCell id="8hqIu6tpNmQfpGZRK0oC-438" value="" style="shape=partialRectangle;collapsible=0;dropTarget=0;pointerEvents=0;fillColor=none;top=0;left=0;bottom=1;right=0;points=[[0,0.5],[1,0.5]];portConstraint=eastwest;" parent="8hqIu6tpNmQfpGZRK0oC-437" vertex="1" treatAsSingle="0">
          <mxGeometry y="30" width="290" height="30" as="geometry" />
        </mxCell>
        <mxCell id="8hqIu6tpNmQfpGZRK0oC-439" value="PK" style="shape=partialRectangle;connectable=0;fillColor=none;top=0;left=0;bottom=0;right=0;fontStyle=1;overflow=hidden;" parent="8hqIu6tpNmQfpGZRK0oC-438" vertex="1">
          <mxGeometry width="30" height="30" as="geometry" />
        </mxCell>
        <mxCell id="8hqIu6tpNmQfpGZRK0oC-440" value="id String NOT NULL" style="shape=partialRectangle;connectable=0;fillColor=none;top=0;left=0;bottom=0;right=0;align=left;spacingLeft=6;fontStyle=5;overflow=hidden;" parent="8hqIu6tpNmQfpGZRK0oC-438" vertex="1">
          <mxGeometry x="30" width="260" height="30" as="geometry" />
        </mxCell>
        <mxCell id="8hqIu6tpNmQfpGZRK0oC-441" value="" style="shape=partialRectangle;collapsible=0;dropTarget=0;pointerEvents=0;fillColor=none;top=0;left=0;bottom=0;right=0;points=[[0,0.5],[1,0.5]];portConstraint=eastwest;" parent="8hqIu6tpNmQfpGZRK0oC-437" vertex="1" treatAsSingle="0">
          <mxGeometry y="60" width="290" height="30" as="geometry" />
        </mxCell>
        <mxCell id="8hqIu6tpNmQfpGZRK0oC-442" value="" style="shape=partialRectangle;connectable=0;fillColor=none;top=0;left=0;bottom=0;right=0;editable=1;overflow=hidden;" parent="8hqIu6tpNmQfpGZRK0oC-441" vertex="1">
          <mxGeometry width="30" height="30" as="geometry" />
        </mxCell>
        <mxCell id="8hqIu6tpNmQfpGZRK0oC-443" value="ewr_exp_step_id String NOT NULL" style="shape=partialRectangle;connectable=0;fillColor=none;top=0;left=0;bottom=0;right=0;align=left;spacingLeft=6;overflow=hidden;" parent="8hqIu6tpNmQfpGZRK0oC-441" vertex="1">
          <mxGeometry x="30" width="260" height="30" as="geometry" />
        </mxCell>
        <mxCell id="8hqIu6tpNmQfpGZRK0oC-444" value="" style="shape=partialRectangle;collapsible=0;dropTarget=0;pointerEvents=0;fillColor=none;top=0;left=0;bottom=0;right=0;points=[[0,0.5],[1,0.5]];portConstraint=eastwest;" parent="8hqIu6tpNmQfpGZRK0oC-437" vertex="1" treatAsSingle="0">
          <mxGeometry y="90" width="290" height="30" as="geometry" />
        </mxCell>
        <mxCell id="8hqIu6tpNmQfpGZRK0oC-445" value="" style="shape=partialRectangle;connectable=0;fillColor=none;top=0;left=0;bottom=0;right=0;editable=1;overflow=hidden;" parent="8hqIu6tpNmQfpGZRK0oC-444" vertex="1">
          <mxGeometry width="30" height="30" as="geometry" />
        </mxCell>
        <mxCell id="8hqIu6tpNmQfpGZRK0oC-446" value="case_no String NOT NULL" style="shape=partialRectangle;connectable=0;fillColor=none;top=0;left=0;bottom=0;right=0;align=left;spacingLeft=6;overflow=hidden;" parent="8hqIu6tpNmQfpGZRK0oC-444" vertex="1">
          <mxGeometry x="30" width="260" height="30" as="geometry" />
        </mxCell>
        <mxCell id="8hqIu6tpNmQfpGZRK0oC-447" value="" style="shape=partialRectangle;collapsible=0;dropTarget=0;pointerEvents=0;fillColor=none;top=0;left=0;bottom=0;right=0;points=[[0,0.5],[1,0.5]];portConstraint=eastwest;" parent="8hqIu6tpNmQfpGZRK0oC-437" vertex="1" treatAsSingle="0">
          <mxGeometry y="120" width="290" height="30" as="geometry" />
        </mxCell>
        <mxCell id="8hqIu6tpNmQfpGZRK0oC-448" value="" style="shape=partialRectangle;connectable=0;fillColor=none;top=0;left=0;bottom=0;right=0;editable=1;overflow=hidden;" parent="8hqIu6tpNmQfpGZRK0oC-447" vertex="1">
          <mxGeometry width="30" height="30" as="geometry" />
        </mxCell>
        <mxCell id="8hqIu6tpNmQfpGZRK0oC-449" value="PARAM_CODE String" style="shape=partialRectangle;connectable=0;fillColor=none;top=0;left=0;bottom=0;right=0;align=left;spacingLeft=6;overflow=hidden;" parent="8hqIu6tpNmQfpGZRK0oC-447" vertex="1">
          <mxGeometry x="30" width="260" height="30" as="geometry" />
        </mxCell>
        <mxCell id="8hqIu6tpNmQfpGZRK0oC-450" style="shape=partialRectangle;collapsible=0;dropTarget=0;pointerEvents=0;fillColor=none;top=0;left=0;bottom=0;right=0;points=[[0,0.5],[1,0.5]];portConstraint=eastwest;" parent="8hqIu6tpNmQfpGZRK0oC-437" vertex="1" treatAsSingle="0">
          <mxGeometry y="150" width="290" height="30" as="geometry" />
        </mxCell>
        <mxCell id="8hqIu6tpNmQfpGZRK0oC-451" style="shape=partialRectangle;connectable=0;fillColor=none;top=0;left=0;bottom=0;right=0;editable=1;overflow=hidden;" parent="8hqIu6tpNmQfpGZRK0oC-450" vertex="1">
          <mxGeometry width="30" height="30" as="geometry" />
        </mxCell>
        <mxCell id="8hqIu6tpNmQfpGZRK0oC-452" value="POLISH_TIME String" style="shape=partialRectangle;connectable=0;fillColor=none;top=0;left=0;bottom=0;right=0;align=left;spacingLeft=6;overflow=hidden;" parent="8hqIu6tpNmQfpGZRK0oC-450" vertex="1">
          <mxGeometry x="30" width="260" height="30" as="geometry" />
        </mxCell>
        <mxCell id="8hqIu6tpNmQfpGZRK0oC-453" style="shape=partialRectangle;collapsible=0;dropTarget=0;pointerEvents=0;fillColor=none;top=0;left=0;bottom=0;right=0;points=[[0,0.5],[1,0.5]];portConstraint=eastwest;" parent="8hqIu6tpNmQfpGZRK0oC-437" vertex="1" treatAsSingle="0">
          <mxGeometry y="180" width="290" height="30" as="geometry" />
        </mxCell>
        <mxCell id="8hqIu6tpNmQfpGZRK0oC-454" style="shape=partialRectangle;connectable=0;fillColor=none;top=0;left=0;bottom=0;right=0;editable=1;overflow=hidden;" parent="8hqIu6tpNmQfpGZRK0oC-453" vertex="1">
          <mxGeometry width="30" height="30" as="geometry" />
        </mxCell>
        <mxCell id="8hqIu6tpNmQfpGZRK0oC-455" value="PRESSURE_Z1 String" style="shape=partialRectangle;connectable=0;fillColor=none;top=0;left=0;bottom=0;right=0;align=left;spacingLeft=6;overflow=hidden;" parent="8hqIu6tpNmQfpGZRK0oC-453" vertex="1">
          <mxGeometry x="30" width="260" height="30" as="geometry" />
        </mxCell>
        <mxCell id="8hqIu6tpNmQfpGZRK0oC-456" style="shape=partialRectangle;collapsible=0;dropTarget=0;pointerEvents=0;fillColor=none;top=0;left=0;bottom=0;right=0;points=[[0,0.5],[1,0.5]];portConstraint=eastwest;" parent="8hqIu6tpNmQfpGZRK0oC-437" vertex="1" treatAsSingle="0">
          <mxGeometry y="210" width="290" height="30" as="geometry" />
        </mxCell>
        <mxCell id="8hqIu6tpNmQfpGZRK0oC-457" style="shape=partialRectangle;connectable=0;fillColor=none;top=0;left=0;bottom=0;right=0;editable=1;overflow=hidden;" parent="8hqIu6tpNmQfpGZRK0oC-456" vertex="1">
          <mxGeometry width="30" height="30" as="geometry" />
        </mxCell>
        <mxCell id="8hqIu6tpNmQfpGZRK0oC-458" value="PRESSURE_Z2 String" style="shape=partialRectangle;connectable=0;fillColor=none;top=0;left=0;bottom=0;right=0;align=left;spacingLeft=6;overflow=hidden;" parent="8hqIu6tpNmQfpGZRK0oC-456" vertex="1">
          <mxGeometry x="30" width="260" height="30" as="geometry" />
        </mxCell>
        <mxCell id="8hqIu6tpNmQfpGZRK0oC-459" style="shape=partialRectangle;collapsible=0;dropTarget=0;pointerEvents=0;fillColor=none;top=0;left=0;bottom=0;right=0;points=[[0,0.5],[1,0.5]];portConstraint=eastwest;" parent="8hqIu6tpNmQfpGZRK0oC-437" vertex="1" treatAsSingle="0">
          <mxGeometry y="240" width="290" height="30" as="geometry" />
        </mxCell>
        <mxCell id="8hqIu6tpNmQfpGZRK0oC-460" style="shape=partialRectangle;connectable=0;fillColor=none;top=0;left=0;bottom=0;right=0;editable=1;overflow=hidden;" parent="8hqIu6tpNmQfpGZRK0oC-459" vertex="1">
          <mxGeometry width="30" height="30" as="geometry" />
        </mxCell>
        <mxCell id="8hqIu6tpNmQfpGZRK0oC-461" value="PRESSURE_Z3 String" style="shape=partialRectangle;connectable=0;fillColor=none;top=0;left=0;bottom=0;right=0;align=left;spacingLeft=6;overflow=hidden;" parent="8hqIu6tpNmQfpGZRK0oC-459" vertex="1">
          <mxGeometry x="30" width="260" height="30" as="geometry" />
        </mxCell>
        <mxCell id="8hqIu6tpNmQfpGZRK0oC-462" style="shape=partialRectangle;collapsible=0;dropTarget=0;pointerEvents=0;fillColor=none;top=0;left=0;bottom=0;right=0;points=[[0,0.5],[1,0.5]];portConstraint=eastwest;" parent="8hqIu6tpNmQfpGZRK0oC-437" vertex="1" treatAsSingle="0">
          <mxGeometry y="270" width="290" height="30" as="geometry" />
        </mxCell>
        <mxCell id="8hqIu6tpNmQfpGZRK0oC-463" style="shape=partialRectangle;connectable=0;fillColor=none;top=0;left=0;bottom=0;right=0;editable=1;overflow=hidden;" parent="8hqIu6tpNmQfpGZRK0oC-462" vertex="1">
          <mxGeometry width="30" height="30" as="geometry" />
        </mxCell>
        <mxCell id="8hqIu6tpNmQfpGZRK0oC-464" value="PRESSURE_Z4 String" style="shape=partialRectangle;connectable=0;fillColor=none;top=0;left=0;bottom=0;right=0;align=left;spacingLeft=6;overflow=hidden;" parent="8hqIu6tpNmQfpGZRK0oC-462" vertex="1">
          <mxGeometry x="30" width="260" height="30" as="geometry" />
        </mxCell>
        <mxCell id="8hqIu6tpNmQfpGZRK0oC-465" style="shape=partialRectangle;collapsible=0;dropTarget=0;pointerEvents=0;fillColor=none;top=0;left=0;bottom=0;right=0;points=[[0,0.5],[1,0.5]];portConstraint=eastwest;" parent="8hqIu6tpNmQfpGZRK0oC-437" vertex="1" treatAsSingle="0">
          <mxGeometry y="300" width="290" height="30" as="geometry" />
        </mxCell>
        <mxCell id="8hqIu6tpNmQfpGZRK0oC-466" style="shape=partialRectangle;connectable=0;fillColor=none;top=0;left=0;bottom=0;right=0;editable=1;overflow=hidden;" parent="8hqIu6tpNmQfpGZRK0oC-465" vertex="1">
          <mxGeometry width="30" height="30" as="geometry" />
        </mxCell>
        <mxCell id="8hqIu6tpNmQfpGZRK0oC-467" value="PRESSURE_Z5 String" style="shape=partialRectangle;connectable=0;fillColor=none;top=0;left=0;bottom=0;right=0;align=left;spacingLeft=6;overflow=hidden;" parent="8hqIu6tpNmQfpGZRK0oC-465" vertex="1">
          <mxGeometry x="30" width="260" height="30" as="geometry" />
        </mxCell>
        <mxCell id="8hqIu6tpNmQfpGZRK0oC-468" style="shape=partialRectangle;collapsible=0;dropTarget=0;pointerEvents=0;fillColor=none;top=0;left=0;bottom=0;right=0;points=[[0,0.5],[1,0.5]];portConstraint=eastwest;" parent="8hqIu6tpNmQfpGZRK0oC-437" vertex="1" treatAsSingle="0">
          <mxGeometry y="330" width="290" height="30" as="geometry" />
        </mxCell>
        <mxCell id="8hqIu6tpNmQfpGZRK0oC-469" style="shape=partialRectangle;connectable=0;fillColor=none;top=0;left=0;bottom=0;right=0;editable=1;overflow=hidden;" parent="8hqIu6tpNmQfpGZRK0oC-468" vertex="1">
          <mxGeometry width="30" height="30" as="geometry" />
        </mxCell>
        <mxCell id="8hqIu6tpNmQfpGZRK0oC-470" value="PRESSURE_Z6 String" style="shape=partialRectangle;connectable=0;fillColor=none;top=0;left=0;bottom=0;right=0;align=left;spacingLeft=6;overflow=hidden;" parent="8hqIu6tpNmQfpGZRK0oC-468" vertex="1">
          <mxGeometry x="30" width="260" height="30" as="geometry" />
        </mxCell>
        <mxCell id="8hqIu6tpNmQfpGZRK0oC-471" style="shape=partialRectangle;collapsible=0;dropTarget=0;pointerEvents=0;fillColor=none;top=0;left=0;bottom=0;right=0;points=[[0,0.5],[1,0.5]];portConstraint=eastwest;" parent="8hqIu6tpNmQfpGZRK0oC-437" vertex="1" treatAsSingle="0">
          <mxGeometry y="360" width="290" height="30" as="geometry" />
        </mxCell>
        <mxCell id="8hqIu6tpNmQfpGZRK0oC-472" style="shape=partialRectangle;connectable=0;fillColor=none;top=0;left=0;bottom=0;right=0;editable=1;overflow=hidden;" parent="8hqIu6tpNmQfpGZRK0oC-471" vertex="1">
          <mxGeometry width="30" height="30" as="geometry" />
        </mxCell>
        <mxCell id="8hqIu6tpNmQfpGZRK0oC-473" value="PRESSURE_Z7 String" style="shape=partialRectangle;connectable=0;fillColor=none;top=0;left=0;bottom=0;right=0;align=left;spacingLeft=6;overflow=hidden;" parent="8hqIu6tpNmQfpGZRK0oC-471" vertex="1">
          <mxGeometry x="30" width="260" height="30" as="geometry" />
        </mxCell>
        <mxCell id="8hqIu6tpNmQfpGZRK0oC-474" style="shape=partialRectangle;collapsible=0;dropTarget=0;pointerEvents=0;fillColor=none;top=0;left=0;bottom=0;right=0;points=[[0,0.5],[1,0.5]];portConstraint=eastwest;" parent="8hqIu6tpNmQfpGZRK0oC-437" vertex="1" treatAsSingle="0">
          <mxGeometry y="390" width="290" height="30" as="geometry" />
        </mxCell>
        <mxCell id="8hqIu6tpNmQfpGZRK0oC-475" style="shape=partialRectangle;connectable=0;fillColor=none;top=0;left=0;bottom=0;right=0;editable=1;overflow=hidden;" parent="8hqIu6tpNmQfpGZRK0oC-474" vertex="1">
          <mxGeometry width="30" height="30" as="geometry" />
        </mxCell>
        <mxCell id="8hqIu6tpNmQfpGZRK0oC-476" value="RECIPE_STEP String" style="shape=partialRectangle;connectable=0;fillColor=none;top=0;left=0;bottom=0;right=0;align=left;spacingLeft=6;overflow=hidden;" parent="8hqIu6tpNmQfpGZRK0oC-474" vertex="1">
          <mxGeometry x="30" width="260" height="30" as="geometry" />
        </mxCell>
        <mxCell id="d4iNR7_XQfnhpuLEzn-K-14" value="" style="edgeStyle=entityRelationEdgeStyle;fontSize=12;html=1;endArrow=ERoneToMany;startArrow=ERzeroToOne;exitX=1;exitY=0.5;exitDx=0;exitDy=0;entryX=0;entryY=0.5;entryDx=0;entryDy=0;" parent="1" source="8hqIu6tpNmQfpGZRK0oC-119" target="d4iNR7_XQfnhpuLEzn-K-5" edge="1">
          <mxGeometry width="100" height="100" relative="1" as="geometry">
            <mxPoint x="1530" y="550" as="sourcePoint" />
            <mxPoint x="1630" y="450" as="targetPoint" />
          </mxGeometry>
        </mxCell>
      </root>
    </mxGraphModel>
  </diagram>
</mxfile>
